<?xml version="1.0" encoding="UTF-8" standalone="no"?>
<svg
   xmlns:dc="http://purl.org/dc/elements/1.1/"
   xmlns:cc="http://creativecommons.org/ns#"
   xmlns:rdf="http://www.w3.org/1999/02/22-rdf-syntax-ns#"
   xmlns:svg="http://www.w3.org/2000/svg"
   xmlns="http://www.w3.org/2000/svg"
   id="svg8"
   version="1.1"
   viewBox="0 0 30.853964 28.66093"
   height="28.660931mm"
   width="30.853964mm">
  <defs
     id="defs2" />
  <metadata
     id="metadata5">
    <rdf:RDF>
      <cc:Work
         rdf:about="">
        <dc:format>image/svg+xml</dc:format>
        <dc:type
           rdf:resource="http://purl.org/dc/dcmitype/StillImage" />
        <dc:title></dc:title>
      </cc:Work>
    </rdf:RDF>
  </metadata>
  <g
     transform="translate(-70.770383,-84.649988)"
     id="layer1">
    <path
       id="path4583"
       d="m 87.318265,113.1755 c -0.0326,-0.0528 -0.25986,-0.0832 -0.53416,-0.0713 -0.26255,0.0113 -0.53451,-0.005 -0.60436,-0.0359 -0.32438,-0.14428 -1.484827,-0.29023 -1.593947,-0.20047 -0.083,0.0683 -0.13179,0.0607 -0.18716,-0.0292 -0.0524,-0.0851 -0.31069,-0.13614 -0.86138,-0.1702 l -0.78651,-0.0486 0.8255,-0.0149 0.8255,-0.0148 v -0.28478 c 0,-0.26446 -0.0347,-0.30061 -0.48683,-0.50702 -0.26776,-0.12224 -0.6072,-0.30044 -0.7543,-0.396 l -0.26747,-0.17375 -0.0968,0.29323 c -0.0532,0.16127 -0.11048,0.49147 -0.12724,0.73378 -0.034,0.49201 -0.2467,0.82436 -0.35197,0.55002 -0.0323,-0.0843 -0.0125,-0.22742 0.0441,-0.31808 0.0577,-0.0923 0.0934,-0.37596 0.0812,-0.64495 -0.012,-0.26407 0.0223,-0.56029 0.0761,-0.65826 0.0843,-0.15331 0.0629,-0.21167 -0.15301,-0.41855 -0.3138,-0.30063 -0.33201,-0.27946 -0.66076,0.76845 -0.30538,0.97339 -0.30667,0.98138 -0.14795,0.92048 0.0651,-0.025 0.14737,10e-4 0.18273,0.0586 0.0498,0.0806 -0.0898,0.0921 -0.61863,0.0514 -0.555481,-0.0428 -0.691775,-0.0296 -0.730401,0.0711 -0.06981,0.18193 -0.222134,0.15067 -0.222134,-0.0456 0,-0.10243 -0.05854,-0.17182 -0.148166,-0.17563 -0.08149,-0.003 -0.2341,-0.0223 -0.339128,-0.0419 -0.115678,-0.0216 -0.257535,0.031 -0.359833,0.13329 -0.123936,0.12393 -0.168873,0.1367 -0.168873,0.048 0,-0.1927 -0.929553,-0.28455 -1.031742,-0.10195 -0.107137,0.19144 -0.231666,0.17361 -0.179541,-0.0257 0.05505,-0.21053 -0.08101,-0.23234 -2.429384,-0.38945 -0.302683,-0.0203 -1.014905,-0.0819 -1.582715,-0.13707 -0.810872,-0.0787 -1.059191,-0.078 -1.157332,0.003 -0.100388,0.0833 -0.139722,0.0773 -0.200094,-0.0306 -0.04133,-0.0738 -0.20633,-0.14776 -0.366668,-0.16423 -0.160338,-0.0165 -0.348674,-0.0497 -0.418524,-0.0738 -0.06985,-0.0241 -0.311443,-0.0916 -0.536874,-0.14995 -0.478121,-0.12377 -0.572863,-0.2762 -0.318793,-0.5129 0.100149,-0.0933 0.162613,-0.20115 0.13881,-0.23967 -0.0238,-0.0385 0.01345,-0.1171 0.08279,-0.17465 0.186658,-0.15491 0.153425,-0.25322 -0.0856,-0.25322 -0.116416,0 -0.211666,-0.0381 -0.211666,-0.0847 0,-0.0466 0.08573,-0.0852 0.1905,-0.0858 0.346347,-0.002 0.561842,-0.0985 0.703487,-0.31468 0.187495,-0.28615 0.05753,-0.36009 -0.526925,-0.29977 -0.29405,0.0303 -0.451729,0.0149 -0.451729,-0.0442 0,-0.11673 0.165648,-0.1605 0.866942,-0.22906 0.511616,-0.05 0.748414,-0.14869 0.633228,-0.26388 -0.02243,-0.0224 -0.311997,-0.0635 -0.643478,-0.0913 -0.864396,-0.0725 -0.743273,-0.1953 0.192583,-0.1953 0.766571,0 0.898058,-0.0435 0.898058,-0.29717 0,-0.0161 -0.219075,-0.0589 -0.486833,-0.0951 l -0.486833,-0.0658 0.583841,-0.0615 c 0.998744,-0.10516 1.118229,-0.57973 0.146625,-0.58237 -0.347007,-9.5e-4 -0.441959,-0.0244 -0.349466,-0.0863 0.06985,-0.0467 0.382518,-0.0782 0.694818,-0.07 0.6295,0.0166 1.053317,-0.16403 0.649919,-0.27708 -0.110955,-0.0311 -0.447482,-0.0603 -0.747837,-0.065 -0.809088,-0.0125 -0.529966,-0.19062 0.312985,-0.19972 0.559456,-0.006 0.673496,-0.0302 0.66577,-0.14084 -0.0083,-0.11854 0.220343,-0.13197 2.03509,-0.11957 l 2.044412,0.014 0.127926,-0.35264 c 0.441558,-1.21719 0.532363,-1.5687 0.648828,-2.51164 0.104471,-0.84584 0.257236,-1.6313 0.33757,-1.73566 0.03584,-0.0466 0.09119,-0.19897 0.122983,-0.33867 0.08468,-0.37204 0.336814,-0.97298 0.408382,-0.97335 0.10161,-5.1e-4 -0.0023,0.59253 -0.229878,1.31202 -0.05892,0.18626 -0.130951,0.52916 -0.160074,0.762 l -0.05295,0.42333 0.133319,-0.33867 c 0.07333,-0.18626 0.168589,-0.40482 0.211695,-0.48568 0.04311,-0.0809 0.08006,-0.25231 0.08211,-0.381 0.0044,-0.27597 0.187509,-1.00379 0.274383,-1.09066 0.309911,-0.30991 -0.166853,-0.5865 -1.288318,-0.74741 -0.718574,-0.1031 -1.814482,-0.793266 -1.882299,-1.185401 -0.0465,-0.268864 0.766665,-0.614353 2.021235,-0.858765 1.155534,-0.225118 1.475299,-0.397633 1.505857,-0.812423 0.0097,-0.131708 0.06768,-0.195998 0.176756,-0.195998 0.173031,0 0.17505,0.02002 0.07489,0.742804 -0.05591,0.403488 -0.05562,0.404111 0.185045,0.387491 0.208476,-0.0144 0.590128,0.144063 1.045381,0.434037 0.0699,0.04449 0.29845,0.161279 0.508,0.25953 0.20955,0.09825 0.6477,0.32619 0.97367,0.506529 0.32597,0.18034 0.64982,0.351695 0.71967,0.380775 0.0699,0.0291 0.19315,0.0882 0.27401,0.13135 0.0809,0.0432 0.20197,0.0785 0.26912,0.0785 0.17026,0 0.3895,0.23676 0.33961,0.36676 -0.1752,0.45657 -2.17085,0.60877 -3.749598,0.28597 -0.389319,-0.0796 -0.721716,-0.14473 -0.738659,-0.14473 -0.07334,0 -0.276334,0.49305 -0.322439,0.78316 -0.02766,0.17405 -0.08771,0.47862 -0.133435,0.67682 -0.04573,0.19819 -0.08407,0.38536 -0.08521,0.41593 -0.003,0.0797 0.349144,-0.0193 0.545935,-0.15341 0.27983,-0.19074 1.515646,-0.0852 1.776096,0.15168 0.0442,0.0402 0.16806,0.0731 0.27517,0.0731 0.1071,0 0.19473,0.0363 0.19473,0.0806 0,0.0443 0.16563,0.19456 0.36806,0.33383 l 0.36806,0.25323 0.39394,-0.41738 c 0.21667,-0.22957 0.39394,-0.45147 0.39394,-0.49312 0,-0.27435 0.98193,-0.70177 1.65912,-0.72218 0.515987,-0.0156 0.465147,0.0182 0.712797,-0.47263 0.13503,-0.26761 0.20126,-0.57375 0.22486,-1.03948 l 0.0335,-0.660158 -0.23562,0.0519 c -0.12959,0.0285 -0.37926,0.10576 -0.55483,0.17164 -0.591307,0.221895 -1.021337,0.0295 -1.359927,-0.608239 -0.16037,-0.302083 -1.55308,-1.727308 -1.68791,-1.727308 -0.0259,0 -0.0285,0.104775 -0.006,0.232833 0.10034,0.568382 -0.0112,0.917933 -0.26768,0.839038 -0.15721,-0.04836 -0.30568,-0.476964 -0.34503,-0.996067 -0.0215,-0.283896 -0.0752,-0.583532 -0.11924,-0.665857 -0.0441,-0.08233 -0.0561,-0.173686 -0.0268,-0.203023 0.0293,-0.02934 0.0427,-0.405821 0.0298,-0.836632 -0.013,-0.430811 -0.0304,-1.240866 -0.0388,-1.800122 -0.008,-0.559257 -0.0417,-1.059765 -0.0741,-1.11224 -0.0769,-0.124423 0.14432,-0.305886 0.32885,-0.269755 0.22041,0.04316 0.36386,0.588594 0.36386,1.383537 0,0.849674 0.15605,1.731922 0.31728,1.793793 0.063,0.02417 0.11452,0.12165 0.11452,0.216623 0,0.16879 0.55803,1.093861 0.69357,1.14976 0.0376,0.01552 0.0684,0.07637 0.0684,0.135229 0,0.05885 0.072,0.141403 0.15998,0.183445 0.088,0.04204 0.34668,0.324088 0.57486,0.626771 0.54598,0.724258 0.82769,0.747737 1.648697,0.137407 0.34041,-0.253052 0.61506,-0.394756 0.74912,-0.386501 0.3711,0.02286 0.42585,-5.08e-4 0.508,-0.216573 0.10325,-0.271568 -0.0188,-0.602693 -0.24915,-0.675794 -0.0958,-0.03041 -0.17418,-0.09622 -0.17418,-0.146245 0,-0.162598 -0.51425,-0.590681 -0.64794,-0.539377 -0.24095,0.09246 -0.55525,-0.04282 -0.50914,-0.219142 0.0397,-0.151983 -0.22345,-0.493775 -0.380227,-0.493775 -0.0363,0 -0.0441,-0.05715 -0.0173,-0.127 0.0316,-0.08227 0.16283,-0.127 0.372637,-0.127 0.30639,0 0.54353,-0.24334 0.38835,-0.398513 -0.0259,-0.0259 -0.007,-0.122849 0.043,-0.215449 0.0496,-0.0926 0.10681,-0.516216 0.12723,-0.941368 0.0567,-1.17993 0.42039,-1.371914 0.88278,-0.465945 0.18112,0.354877 0.25374,0.39121 1.05293,0.526835 0.75325,0.127826 0.94447,0.09828 1.00824,-0.155784 0.1326,-0.528343 0.86069,-0.709474 0.84543,-0.210325 -0.0377,1.232865 -0.11319,2.37693 -0.16211,2.456085 -0.0322,0.05212 0.017,0.16513 0.10927,0.25113 0.30038,0.279853 0.15937,0.598048 -0.24266,0.547536 -0.29673,-0.03728 -0.36232,-0.007 -0.69113,0.31947 -0.4762,0.472756 -0.44936,0.749483 0.10883,1.121919 0.20998,0.140109 0.6382,0.511917 0.95158,0.826242 0.67881,0.680851 0.77623,0.697481 1.00189,0.171033 0.0944,-0.220258 0.1982,-0.420283 0.23062,-0.4445 0.1075,-0.08029 0.48868,-0.716691 0.60956,-1.017699 0.0655,-0.162984 0.29829,-0.639234 0.51742,-1.058334 l 0.39842,-0.762 0.45132,0.02327 0.45132,0.02327 0.29633,-0.432254 c 0.16299,-0.237739 0.37932,-0.536205 0.48075,-0.663257 0.10143,-0.127052 0.28051,-0.448305 0.39797,-0.713896 0.24261,-0.548595 0.38756,-0.642854 0.68693,-0.446704 0.30763,0.201573 0.3447,0.47789 0.11253,0.838867 -0.55661,0.865409 -0.79201,1.287273 -1.28454,2.302038 -0.15821,0.325966 -0.3545,0.707218 -0.4362,0.847225 -0.1477,0.25312 -0.14709,0.256111 0.10798,0.529167 0.14109,0.151034 0.29547,0.274608 0.34307,0.274608 0.0476,0 0.26124,0.13335 0.47476,0.296333 0.21352,0.162983 0.41143,0.296333 0.43981,0.296333 0.0619,0 0.57454,0.422798 0.90137,0.743381 0.28387,0.278455 0.27371,0.548958 -0.0231,0.614878 -0.20311,0.0451 -1.0055,0.41543 -1.27,0.58615 -0.0699,0.0451 -0.32854,0.16478 -0.57488,0.26599 -0.24633,0.10122 -0.48448,0.25244 -0.52923,0.33604 -0.0697,0.13028 -0.22286,1.37962 -0.23272,1.89857 -0.002,0.0931 -0.0279,0.81703 -0.058,1.60866 l -0.0548,1.43934 0.23802,0.0966 c 0.47954,0.19466 1.02123,0.27077 1.94504,0.27329 0.92631,0.003 1.4498,0.11485 1.58964,0.34111 0.0317,0.0513 0.17196,0.0933 0.31166,0.0933 0.14778,0 0.23212,0.0354 0.20168,0.0847 -0.0288,0.0466 -0.20501,0.0847 -0.39162,0.0847 -0.32019,0 -0.33779,0.0131 -0.31251,0.23284 0.0267,0.23211 0.0289,0.23283 0.69629,0.23283 0.45992,0 0.68078,0.0331 0.70556,0.10583 0.0266,0.0782 -0.12228,0.10584 -0.56956,0.10584 -0.57961,0 -0.60445,0.008 -0.57855,0.1905 0.0273,0.19243 0.45487,0.23418 0.945,0.0923 0.11722,-0.0339 0.14858,-0.006 0.12627,0.1112 -0.0227,0.11982 -0.12839,0.16623 -0.45228,0.19867 -0.35205,0.0353 -0.4226,0.0706 -0.4226,0.21167 0,0.1532 0.0564,0.16933 0.59266,0.16933 0.47037,0 0.59267,0.0262 0.59267,0.127 0,0.10284 -0.10302,0.12118 -0.5415,0.0964 -0.53358,-0.0301 -0.54073,-0.0277 -0.48799,0.16933 0.0294,0.10996 0.054,0.22547 0.0547,0.25669 0.002,0.092 0.51105,0.17712 0.99299,0.16601 0.36098,-0.008 0.44749,0.0163 0.44749,0.12736 0,0.11239 -0.0583,0.12762 -0.3175,0.0829 -0.17462,-0.0301 -0.48504,-0.0791 -0.68983,-0.10896 l -0.37233,-0.0542 0.0616,0.24558 c 0.0974,0.38817 0.17548,0.43327 0.67779,0.39161 0.53314,-0.0442 0.9205,0.0301 0.87459,0.16787 -0.0205,0.0616 -0.26109,0.0883 -0.68335,0.076 -0.60823,-0.0178 -0.65167,-0.007 -0.65167,0.15583 0,0.19669 0.14446,0.22115 0.45918,0.0777 0.16422,-0.0748 0.24265,-0.0726 0.34172,0.01 0.13466,0.11176 0.0934,0.29632 -0.0468,0.20963 -0.12755,-0.0788 -0.56591,0.0453 -0.6154,0.1743 -0.0465,0.12108 0.21613,0.95085 0.38801,1.22607 0.13326,0.21338 -0.0605,0.45397 -0.31435,0.39026 -0.0997,-0.025 -0.25854,0.009 -0.35305,0.0749 -0.14536,0.10182 -0.22926,0.10314 -0.54473,0.009 -1.00722,-0.30187 -3.73014,-0.39162 -3.91408,-0.12901 l -0.12027,0.17171 -0.0446,-0.17053 c -0.0351,-0.13418 -0.10965,-0.16808 -0.34982,-0.15905 -0.16787,0.006 -0.33046,-0.0138 -0.36129,-0.0446 -0.0308,-0.0308 0.10268,-0.0561 0.29671,-0.0561 0.31028,0 0.35242,-0.0229 0.3498,-0.1905 -0.003,-0.22557 -0.30361,-1.53625 -0.50327,-2.19808 -0.049,-0.1624 -0.0346,-0.25836 0.0492,-0.32787 0.12471,-0.1035 0.16664,-0.58555 0.0509,-0.58555 -0.0371,0 -0.21275,0.14877 -0.39029,0.33059 l -0.32281,0.33058 0.0464,0.74892 c 0.0681,1.09819 0.15376,1.75135 0.24499,1.86711 0.0527,0.0669 0.04,0.16009 -0.0368,0.26975 -0.11455,0.16355 -0.11975,0.16373 -0.21728,0.008 -0.0693,-0.11099 -0.0724,-0.17699 -0.0101,-0.21549 0.0494,-0.0305 0.0696,-0.13706 0.045,-0.23675 -0.0246,-0.0997 -0.087,-0.60037 -0.13862,-1.1126 -0.10576,-1.04991 -0.15217,-1.14429 -0.46262,-0.94087 -0.49247,0.32268 -0.74373,0.81025 -0.69008,1.33909 0.0284,0.28011 0.0142,0.50443 -0.034,0.53417 -0.0946,0.0584 -0.10779,-0.0909 -0.0846,-0.95356 0.0138,-0.51128 -0.006,-0.61383 -0.11793,-0.61383 -0.1885,0 -0.16733,-0.1894 0.0524,-0.46871 l 0.18685,-0.23754 -0.18716,0.049 c -0.35205,0.0921 -0.56782,-0.18732 -0.46315,-0.59969 0.10177,-0.40092 0.005,-0.53673 -0.17652,-0.24854 -0.17801,0.28211 -0.24321,0.55245 -0.14751,0.6116 0.053,0.0328 0.0385,0.17927 -0.0395,0.40037 -0.0677,0.19179 -0.13853,0.42893 -0.15747,0.52697 -0.0189,0.098 -0.0749,0.3497 -0.12437,0.55925 -0.0495,0.20955 -0.0909,0.61803 -0.092,0.90772 l -0.002,0.52672 1.19371,-0.003 c 0.65653,-0.002 1.21533,0.0183 1.24177,0.0448 0.0264,0.0264 -0.1837,0.0481 -0.46698,0.0481 -0.48482,0 -0.52004,0.0137 -0.60009,0.23283 l -0.085,0.23283 -0.007,-0.24209 -0.007,-0.24208 -0.64334,0.0325 c -0.51224,0.0259 -0.66751,0.0656 -0.762,0.19477 -0.0653,0.0893 -0.11866,0.1169 -0.11866,0.0614 0,-0.11106 -0.607,-0.14296 -0.71252,-0.0375 -0.0349,0.0349 -0.28887,0.0504 -0.56444,0.0346 -0.32335,-0.0186 -0.50104,0.004 -0.50104,0.0636 0,0.11969 -0.22693,0.1201 -0.30081,5.1e-4 z m -0.1341,-0.30263 c 0.19117,-0.0512 0.24785,-0.75208 0.0748,-0.92512 -0.11909,-0.11909 -0.64059,0.0757 -0.73041,0.27283 -0.25141,0.55179 0.0205,0.8223 0.65559,0.65229 z m 1.307,-0.32513 c 9.2e-4,-1.23398 -0.0349,-1.3032 -0.51523,-0.996 -0.43623,0.27899 -0.51179,0.49652 -0.3878,1.11645 0.0527,0.26332 0.0621,0.26812 0.47825,0.24341 l 0.42452,-0.0252 2.6e-4,-0.33867 z m 0.67308,0.29188 c 0.29371,-0.0816 0.31754,-0.11166 0.31799,-0.40169 2.5e-4,-0.17244 0.0406,-0.54212 0.0896,-0.82152 0.049,-0.2794 0.11015,-0.71494 0.13586,-0.96787 l 0.0467,-0.45987 -0.55968,0.49138 c -0.3426,0.30078 -0.56273,0.56125 -0.56754,0.67153 -0.0287,0.65839 0.0666,1.57751 0.16346,1.57669 0.0308,-2.5e-4 0.19893,-0.0401 0.37356,-0.0887 z m 8.41329,-0.21875 c 0.079,-0.098 0.11431,-0.0885 0.21167,0.0564 0.1035,0.15415 0.14836,0.16301 0.39204,0.0775 0.32644,-0.1146 0.32231,-0.0825 0.0926,-0.71797 -0.10044,-0.27779 -0.21299,-0.67652 -0.25011,-0.88607 -0.17469,-0.98605 -0.3771,-1.75327 -0.5037,-1.9092 -0.0397,-0.0489 -0.0981,-0.25843 -0.1299,-0.46566 -0.0631,-0.41154 -0.4664,-1.37821 -0.61279,-1.46868 -0.0503,-0.0311 -0.0715,-0.10869 -0.047,-0.17241 0.055,-0.1433 -0.30578,-0.20539 -1.36419,-0.23479 -0.97924,-0.0272 -1.00855,-0.007 -0.94688,0.64312 0.11382,1.20041 0.23048,1.48159 0.76949,1.85474 0.3888,0.26917 0.2258,1.16022 -0.21224,1.16022 -0.18718,0 -0.16627,0.3601 0.0521,0.89762 0.0587,0.14444 0.12958,0.43019 0.15754,0.635 0.028,0.20481 0.0276,0.31523 -7.6e-4,0.24538 -0.0284,-0.0698 -0.0982,-0.2413 -0.1552,-0.381 -0.057,-0.1397 -0.21429,-0.60665 -0.34954,-1.03765 -0.15021,-0.47869 -0.36124,-0.93814 -0.54225,-1.18064 -0.28072,-0.37607 -0.49742,-0.47221 -0.43887,-0.19471 0.1082,0.51281 0.019,1.46708 -0.15442,1.65166 -0.17599,0.18734 -0.17926,0.22186 -0.0796,0.83983 l 0.10396,0.64447 1.10996,-0.007 c 0.61047,-0.004 1.27187,0.0192 1.46978,0.0515 0.27742,0.0453 0.36013,0.0321 0.36113,-0.0579 9e-4,-0.0805 0.0206,-0.0869 0.0635,-0.0206 0.1376,0.21244 0.82666,0.19671 1.00366,-0.0229 z m -0.0867,-0.44807 c -0.0277,-0.14303 -0.0725,-0.37436 -0.0995,-0.51406 -0.027,-0.1397 -0.0297,-0.254 -0.006,-0.254 0.0608,0 0.24815,0.9358 0.19751,0.98644 -0.0229,0.0229 -0.0643,-0.0754 -0.0921,-0.21838 z m -0.7596,-2.84566 c -0.029,-0.0757 -0.0495,-0.20114 -0.0455,-0.27882 0.004,-0.0777 0.0408,-0.0289 0.0819,0.1085 0.0798,0.26723 0.0516,0.39948 -0.0363,0.17032 z m -1.26635,-0.0955 c -0.031,-0.031 -0.054,-0.13582 -0.0511,-0.23283 0.005,-0.16219 0.0119,-0.16006 0.0865,0.0264 0.0829,0.20728 0.0657,0.30756 -0.0354,0.20643 z m -0.3545,-1.48267 c -0.0331,-0.15467 -0.0971,-0.32717 -0.14234,-0.38334 -0.0859,-0.1067 -0.0249,-0.27888 0.0988,-0.27888 0.0795,0 0.21501,0.83216 0.14669,0.90048 -0.0236,0.0236 -0.07,-0.0836 -0.10313,-0.23826 z m -9.709217,4.64078 c -0.0293,-0.29959 -0.56519,-0.48246 -0.7525,-0.25676 -0.18562,0.22366 -0.0552,0.49629 0.26111,0.54594 0.4294,0.0674 0.52096,0.0135 0.49139,-0.28918 z m 0.864427,0.2215 c 6.8e-4,-0.0815 0.0241,-0.23389 0.0522,-0.33866 0.0584,-0.21784 -0.61716,-0.30147 -0.68395,-0.0847 -0.168677,0.54754 -0.158287,0.5715 0.24797,0.5715 0.30751,0 0.38284,-0.0291 0.38377,-0.14817 z m -5.121757,-0.17063 c 0.11177,-0.0805 0.31326,-0.53743 0.26032,-0.59038 -0.0223,-0.0223 0.0334,-0.22838 0.12383,-0.45786 0.2347,-0.59543 0.21798,-0.8982 -0.0565,-1.02326 -0.29113,-0.13264 -0.398081,0.0129 -0.667589,0.90863 -0.347885,1.1562 -0.345984,1.1252 -0.07155,1.16629 0.132229,0.0198 0.259467,0.0411 0.28275,0.0474 0.02328,0.006 0.08121,-0.0166 0.128719,-0.0508 z m -0.687241,-0.58165 c 0.134192,-0.32626 0.144815,-0.43699 0.0635,-0.66186 -0.05371,-0.14853 -0.09765,-0.45057 -0.09765,-0.67121 0,-0.4393 -0.08934,-0.45277 -0.300086,-0.0452 -0.08566,0.16565 -0.103551,0.29697 -0.0528,0.38765 0.121586,0.21727 0.01811,0.45176 -0.199361,0.45176 -0.155144,0 -0.22077,0.079 -0.328792,0.39608 -0.185131,0.54333 -0.189785,0.53529 0.309541,0.53493 l 0.4445,-3.4e-4 0.161154,-0.3918 z m -1.148007,0.0749 c 0.218464,-0.55275 0.211837,-0.67521 -0.04316,-0.79742 -0.131995,-0.0633 -0.244753,-0.16214 -0.250574,-0.21972 -0.0058,-0.0576 -0.01535,-0.16184 -0.02117,-0.23169 -0.03515,-0.42184 -0.739774,0.82932 -0.771667,1.37021 -0.0015,0.025 0.44178,0.085 0.729645,0.0988 0.215898,0.0103 0.281917,-0.0304 0.356919,-0.22015 z m -1.203377,0.0354 c 0.0063,-0.008 0.03635,-0.13069 0.06678,-0.27296 0.05476,-0.256 0.05177,-0.2586 -0.2883,-0.25006 -0.569216,0.0143 -0.943199,0.49804 -0.445749,0.57659 0.194879,0.0308 0.627506,-0.004 0.66727,-0.0536 z m -0.917298,-0.37854 c 0.05039,-0.17219 0.09718,-0.52263 0.103961,-0.77874 0.0438,-1.65349 0.01317,-1.67927 -0.848766,-0.71439 -0.306626,0.34325 -0.677334,0.85641 -0.677334,0.93762 0,0.0255 -0.0762,0.14326 -0.169333,0.26166 -0.374365,0.47593 -0.256787,0.60629 0.5715,0.63364 0.927281,0.0306 0.90987,0.0364 1.019972,-0.33979 z m -1.928043,0.10474 c 0.129352,-0.34022 0.09958,-0.51161 -0.137895,-0.79383 -0.250398,-0.29759 -0.229638,-0.61672 0.04985,-0.7663 0.09133,-0.0489 0.389966,-0.27521 0.663645,-0.50297 0.486562,-0.40492 0.549959,-0.50169 1.33503,-2.03772 0.275787,-0.53959 0.205899,-0.71714 -0.293497,-0.74562 -0.548157,-0.0313 -0.760907,0.12619 -0.987164,0.73062 -0.158922,0.42455 -1.319068,2.87331 -1.741967,3.67684 -0.175139,0.33277 -0.220917,0.48784 -0.144658,0.49003 0.210297,0.006 0.788883,0.0991 0.824176,0.13265 0.114973,0.10913 0.360858,0.005 0.432484,-0.1837 z m 11.628583,-0.1259 c 0.72011,-0.10739 0.94505,-0.27143 0.75984,-0.5541 -0.13684,-0.20884 -0.13351,-0.22291 0.11049,-0.4669 0.2712,-0.27121 0.49036,-0.26527 0.56372,0.0153 0.0638,0.24386 0.13721,0.20887 0.70885,-0.33769 0.86846,-0.83037 1.42358,-2.46216 0.83761,-2.46216 -0.12594,0 -0.30268,-0.0394 -0.39276,-0.0877 -0.30692,-0.16426 -0.14249,-0.75902 0.20985,-0.75902 0.41893,0 0.46841,-0.32046 0.15617,-1.01131 -0.0748,-0.16556 -0.17701,-0.45342 -0.22708,-0.63969 -0.0833,-0.30989 -0.11921,-0.34227 -0.42259,-0.381 -0.28444,-0.0363 -0.34487,-0.082 -0.42519,-0.32173 -0.11028,-0.32909 -0.16722,-0.37016 -0.90924,-0.65595 -0.31092,-0.11975 -0.61086,-0.27261 -0.66653,-0.33969 -0.235,-0.28315 -0.58174,-0.15039 -0.78129,0.29915 -0.265,0.597 -0.946157,0.7 -0.902727,0.1365 0.0433,-0.56205 0.0256,-0.58512 -0.4073,-0.52994 -0.83959,0.107 -1.79917,0.57313 -1.79917,0.87396 0,0.21354 -0.25311,0.45303 -0.47879,0.45303 -0.25159,0 -0.80397,0.5436 -0.95007,0.93497 -0.0601,0.16098 -0.14418,0.35886 -0.18687,0.43972 -0.16532,0.3132 -0.0926,0.54388 0.19757,0.62657 0.54362,0.15492 0.33638,0.87741 -0.25168,0.87741 -0.1833,0 -0.20419,0.026 -0.22123,0.27517 -0.048,0.70228 0.59372,2.0573 0.9339,1.97192 0.42507,-0.10668 0.55093,0.0102 0.51974,0.48261 l -0.0282,0.42779 0.59054,0.36859 c 0.69504,0.43382 1.14513,0.50065 1.14513,0.17004 0,-0.21697 0.19543,-0.4281 0.47488,-0.51302 0.26424,-0.0803 0.40295,0.13743 0.3481,0.54639 l -0.0458,0.3412 0.521557,-0.0532 c 0.28686,-0.0292 0.74522,-0.0865 1.01858,-0.12728 z m -0.82118,-1.16578 c -0.36746,-0.38355 -0.41294,-1.16849 -0.0887,-1.5302 0.34138,-0.38079 1.0796,-0.47124 1.35361,-0.16585 0.56531,0.63006 0.39756,1.53113 -0.32601,1.7511 -0.63801,0.19396 -0.70407,0.19009 -0.93893,-0.055 z m 1.18017,-0.56783 c 0.23843,-0.36389 -0.0385,-0.97131 -0.44285,-0.97131 -0.33231,0 -0.7726,0.45505 -0.72883,0.75326 0.0898,0.61197 0.82404,0.7486 1.17168,0.21805 z m -13.35695,1.60733 c 0.100072,-0.11509 0.181948,-0.23277 0.181948,-0.2615 0,-0.0287 0.3048,-0.66167 0.677333,-1.40654 0.372534,-0.74486 0.677493,-1.39733 0.677688,-1.44994 1.95e-4,-0.0526 0.09544,-0.28309 0.211667,-0.51217 0.116222,-0.22909 0.211312,-0.49769 0.211312,-0.5969 0,-0.0992 0.04509,-0.22547 0.100189,-0.28058 0.151459,-0.15146 0.09852,-0.15795 -0.875369,-0.10746 l -0.90218,0.0468 -0.473542,0.57837 c -0.383627,0.46855 -0.463488,0.61843 -0.420591,0.78934 0.04359,0.17366 0.02492,0.20613 -0.105585,0.18363 -0.107763,-0.0186 -0.201226,0.0578 -0.291842,0.23865 -0.07332,0.1463 -0.187781,0.32167 -0.25436,0.38972 -0.06658,0.068 -0.273453,0.32225 -0.45972,0.56491 -0.186267,0.24265 -0.437854,0.56258 -0.559084,0.71095 -0.436081,0.5337 -0.465712,0.65785 -0.209593,0.87816 0.255324,0.21962 0.55701,0.25966 0.55701,0.0739 0,-0.0671 0.04218,-0.14807 0.09374,-0.17994 0.06225,-0.0385 0.07563,-8.6e-4 0.03981,0.11198 -0.131893,0.41556 0.682366,0.34309 0.919108,-0.0818 1.01956,-1.82985 1.201414,-2.06562 0.501767,-0.65054 -0.255716,0.51721 -0.446989,0.98715 -0.425051,1.04432 0.07613,0.19839 0.608247,0.1433 0.805347,-0.0834 z m -1.511385,-0.92685 c 0,-0.1229 0.265937,-0.55112 0.342267,-0.55112 0.120142,0 0.822721,-1.46631 0.966629,-2.01739 0.118772,-0.45483 0.276816,-0.6641 0.404849,-0.53607 0.03529,0.0353 -0.0376,0.27183 -0.161976,0.52565 -0.670319,1.36792 -0.8382,1.68541 -1.105928,2.09146 -0.276055,0.41869 -0.445841,0.60433 -0.445841,0.48747 z m 1.608666,-1.1466 c 0,-0.0481 0.103165,-0.28624 0.229256,-0.52917 0.277457,-0.53455 0.429815,-0.91153 0.570419,-1.4114 0.103727,-0.36876 0.317965,-0.60787 0.437523,-0.48831 0.03299,0.033 -2.71e-4,0.1269 -0.07391,0.20867 -0.07365,0.0818 -0.215924,0.35824 -0.316173,0.61436 -0.425735,1.08767 -0.84711,1.88646 -0.84711,1.60585 z m 4.047362,1.63265 c 0.103742,-0.20776 0.117045,-0.8009 0.0213,-0.94989 -0.06175,-0.0961 -0.128964,-0.019 -0.295471,0.33866 -0.27702,0.59514 -0.278861,0.75939 -0.0085,0.75939 0.114779,0 0.241982,-0.0667 0.282674,-0.14816 z m 0.672529,-0.80162 c -0.22249,-0.38909 -0.400657,-0.54405 -0.410862,-0.35735 -0.01704,0.3118 0.02528,0.66168 0.105603,0.87294 l 0.0806,0.212 0.165106,-0.2715 c 0.138881,-0.22837 0.148339,-0.30081 0.05955,-0.45609 z m 14.794438,0.33595 c 0.0268,-0.15134 0.0157,-0.50377 -0.0247,-0.78317 -0.0707,-0.48983 -0.0769,-0.49947 -0.17183,-0.26965 -0.10464,0.25323 -0.13293,0.97039 -0.0471,1.19406 0.0832,0.2169 0.19134,0.15422 0.2436,-0.14124 z m -17.764529,-0.14887 c 0.20957,-0.38605 0.152349,-0.43011 -0.170287,-0.1311 -0.136091,0.12613 -0.203474,0.25831 -0.172638,0.33867 0.07706,0.20083 0.142842,0.16101 0.342925,-0.20757 z m 5.136959,0.1912 c 0.130211,-0.48029 0.132043,-0.60018 0.01071,-0.70088 -0.198088,-0.16439 -0.251487,-0.0265 -0.222217,0.57388 0.01433,0.29393 0.144982,0.37238 0.211507,0.127 z m -0.829023,-0.19837 c 0.07448,-0.14402 0.113791,-0.28349 0.08736,-0.30992 -0.08047,-0.0805 -0.387762,0.24888 -0.387762,0.41558 0,0.23882 0.149449,0.18625 0.300402,-0.10566 z m -2.243763,-0.46983 c 0.106673,-0.32322 -0.01896,-1.01469 -0.167667,-0.92278 -0.106149,0.0656 -0.194358,0.78081 -0.131562,1.06672 0.06746,0.30714 0.166003,0.25974 0.299229,-0.14394 z m 1.86703,0.21409 c 0.378119,-0.43597 0.51874,-0.8965 0.487019,-1.59499 -0.05075,-1.11743 -0.197795,-1.0414 -0.673615,0.34829 -0.364537,1.06467 -0.37529,1.12706 -0.223906,1.299 0.14628,0.16614 0.230334,0.15544 0.410502,-0.0523 z m 2.027349,-0.39255 c -0.12967,-0.26776 -0.30506,-0.70669 -0.38973,-0.97539 -0.18056,-0.57295 -0.282948,-0.57893 -0.454485,-0.0266 -0.145067,0.46712 -0.01204,0.85379 0.293725,0.85379 0.10248,0 0.17527,0.0661 0.19058,0.17308 0.0215,0.15029 0.37694,0.45316 0.53946,0.45967 0.0309,0.001 -0.0499,-0.21683 -0.17955,-0.48458 z m 13.405787,0.21166 c 0.055,-0.20184 -0.0356,-0.29922 -0.77297,-0.83067 -0.4283,-0.30869 -0.46403,-0.19532 -0.10772,0.34178 0.42236,0.63667 0.78552,0.83826 0.88069,0.48889 z m -18.53298,-0.47375 c -0.06804,-0.0679 -0.465463,0.38014 -0.46201,0.52081 0.0014,0.0556 0.118378,-0.0263 0.260028,-0.18214 0.141651,-0.15579 0.232543,-0.30819 0.201982,-0.33867 z m 15.43696,0.33088 c 0.0212,-0.0635 -0.0106,-0.0953 -0.0741,-0.0741 -0.0611,0.0204 -0.12779,0.087 -0.14816,0.14817 -0.0212,0.0635 0.0106,0.0953 0.0741,0.0741 0.0611,-0.0204 0.12779,-0.087 0.14817,-0.14816 z m 0.0385,-0.68731 c 0.7465,-0.76448 0.74874,-0.76808 0.77608,-1.24884 0.0258,-0.45285 0.0197,-0.47057 -0.0996,-0.29164 -0.0699,0.10477 -0.18077,0.1905 -0.2464,0.1905 -0.0656,0 -0.14126,0.0571 -0.16807,0.127 -0.0268,0.0699 -0.10067,0.127 -0.16414,0.127 -0.0635,0 -0.19991,0.1143 -0.3032,0.254 -0.1634,0.22101 -0.2407,0.254 -0.5952,0.254 -0.4374,0 -0.50637,0.0668 -0.24044,0.23287 0.0987,0.0616 0.14675,0.15695 0.11754,0.23307 -0.0587,0.15306 0.0403,0.88872 0.11968,0.88872 0.0303,0 0.39205,-0.34501 0.80381,-0.76668 z m -12.761879,-0.0195 c 0.108268,-0.26612 0.182377,-0.48385 0.164688,-0.48385 -0.01769,0 0.01918,-0.12382 0.08193,-0.27516 0.236397,-0.57016 0.20566,-1.1905 -0.0637,-1.28558 -0.343363,-0.12119 -0.487196,0.009 -0.654027,0.59163 -0.07927,0.2769 -0.20643,0.6451 -0.28257,0.81823 -0.194729,0.44278 -0.175636,0.57011 0.133287,0.88883 0.341736,0.35259 0.379929,0.33694 0.620392,-0.2541 z m 13.324979,0.24699 c 0.20591,-0.33317 0.2157,-0.39217 0.0651,-0.39217 -0.16285,0 -0.59433,0.47862 -0.52809,0.58579 0.10459,0.16923 0.28551,0.0936 0.46301,-0.19362 z m -1.6296,-0.0165 c 0.0138,-0.0437 -0.0108,-0.13621 -0.0547,-0.20567 -0.1066,-0.16879 -0.3009,0.0145 -0.22501,0.21231 0.0545,0.14209 0.23405,0.13782 0.2797,-0.007 z m -10.230417,-0.67603 c 0.05404,-0.11861 0.09826,-0.35373 0.09826,-0.5225 0,-0.16877 0.06327,-0.37676 0.140592,-0.4622 0.187278,-0.20694 0.108668,-0.26469 -0.237141,-0.17422 -0.278201,0.0728 -0.284518,0.0845 -0.28749,0.53399 -0.0055,0.8262 0.09449,1.04477 0.285781,0.62493 z m -3.717888,-0.0921 c 0.197376,-0.25092 0.227708,-0.4011 0.07042,-0.34867 -0.138367,0.0461 -0.443783,0.57176 -0.332215,0.57176 0.04747,0 0.16528,-0.10039 0.261793,-0.22309 z m 17.418835,-0.0521 c -0.0261,-0.15134 -0.0729,-0.45661 -0.10385,-0.67838 -0.031,-0.22176 -0.0907,-0.42442 -0.13266,-0.45035 -0.0419,-0.0259 -0.0549,-0.0818 -0.0286,-0.1242 0.0909,-0.14709 -0.13252,-0.41924 -0.34418,-0.41924 -0.39468,0 -0.31226,1.24583 0.10881,1.64494 0.40825,0.38694 0.56407,0.39541 0.50053,0.0272 z m -15.994523,-0.27725 c 0.104775,-0.25714 0.1905,-0.59237 0.1905,-0.74495 0,-0.15259 0.04089,-0.31832 0.09087,-0.3683 0.101058,-0.10106 -0.290212,-0.24077 -0.430856,-0.15385 -0.215052,0.13291 -0.431797,1.21633 -0.295905,1.47912 0.18036,0.34878 0.225675,0.3272 0.445395,-0.21202 z m 14.888383,-0.32064 c 0.0388,-0.19504 0.0769,-1.07851 0.0847,-1.96328 0.0141,-1.6003 0.0504,-2.30963 0.18838,-3.683 0.0773,-0.76979 0.0584,-0.93133 -0.10945,-0.93133 -0.12176,0 -0.39233,1.23579 -0.38281,1.74841 0.01,0.52549 -0.0773,3.6478 -0.12375,4.44111 -0.0235,0.40068 -0.0207,0.75048 0.006,0.77733 0.11701,0.11702 0.27167,-0.0617 0.3368,-0.38924 z m -1.76507,-0.0794 c 0.0639,-0.23365 0.0859,-0.84233 0.0626,-1.73567 -0.0197,-0.75671 -0.005,-1.37583 0.0331,-1.37583 0.10081,0 0.18377,1.73892 0.12148,2.54656 -0.0618,0.80202 0.009,0.84515 0.44748,0.27207 l 0.26243,-0.34308 -0.0153,-1.4069 c -0.0173,-1.59063 3.4e-4,-1.53364 -0.43784,-1.41704 -0.17916,0.0477 -0.43444,0.10918 -0.56729,0.13667 -0.22692,0.0469 -0.23801,0.0688 -0.18328,0.36057 0.0671,0.35777 0.0709,1.32517 0.006,1.5316 -0.0242,0.0769 -0.0981,0.44468 -0.16426,0.81721 -0.0661,0.37254 -0.14706,0.74401 -0.17981,0.8255 -0.0497,0.12374 -0.0121,0.14817 0.22836,0.14817 0.26682,0 0.29511,-0.0263 0.38637,-0.35983 z m -0.86531,0.127 c 0.5047,-1.18793 0.38464,-3.4652 -0.21978,-4.1686 l -0.18082,-0.21044 -0.40053,0.45669 -0.40053,0.45668 0.27568,0.45781 c 0.15162,0.25179 0.32386,0.6458 0.38275,0.87558 0.11297,0.44081 0.24439,0.55651 0.24439,0.21517 0,-0.11144 0.0534,-0.22311 0.11872,-0.24817 0.27476,-0.10543 0.29483,0.22951 0.0397,0.66196 l -0.18026,0.30553 0.2226,-0.0559 c 0.27003,-0.0678 0.2695,-0.089 0.0106,0.42134 -0.26463,0.5216 -0.28191,0.98048 -0.0369,0.98048 0.0338,0 0.0898,-0.0667 0.12444,-0.14816 z m -13.024182,-0.0423 c 0.04403,-0.0582 0.08475,-0.19586 0.09049,-0.3059 0.01225,-0.2347 0.001,-0.22634 -0.183553,0.13657 -0.135305,0.26605 -0.06999,0.38489 0.09306,0.16933 z m 3.208205,-1.04292 c 0.195539,-0.46798 0.55741,-1.89125 0.50317,-1.97901 -0.0705,-0.11411 -0.940183,-0.35226 -1.084345,-0.29694 -0.348652,0.13379 -0.825099,1.80993 -0.612335,2.15419 0.02895,0.0468 0.125255,0.0852 0.214002,0.0852 0.08875,0 0.202139,0.0762 0.251982,0.16934 0.161889,0.30249 0.577345,0.22668 0.727526,-0.13276 z m -1.988572,-0.36688 c -0.144625,-0.1351 -0.264479,-0.29703 -0.266344,-0.35983 -0.0019,-0.0628 -0.06188,-0.006 -0.133372,0.12563 -0.187684,0.3463 -0.100749,0.47984 0.312392,0.47984 h 0.350278 z m 0.566559,-0.41053 c 0.07439,-0.1967 0.151172,-0.48739 0.201169,-0.76162 0.0064,-0.0351 0.06123,-0.18254 0.121825,-0.32758 0.172924,-0.41386 -0.112286,-1.17825 -0.37829,-1.01385 -0.0705,0.0436 -0.269265,0.7199 -0.313246,1.06588 -0.0089,0.0699 -0.04404,0.32029 -0.07815,0.55653 -0.0881,0.61035 0.25714,0.98183 0.446688,0.48064 z m 13.39448,0.0212 c 0,-0.11642 -0.0329,-0.21167 -0.0731,-0.21167 -0.0574,0 -0.0742,0.30071 -0.0224,0.40217 0.0443,0.0868 0.0955,-0.0152 0.0955,-0.1905 z m 0.05,-1.87674 0.0244,-0.7364 -0.16201,0.24697 c -0.119,0.18141 -0.14994,0.33722 -0.11653,0.5869 0.12931,0.96644 0.21999,0.93165 0.25412,-0.0975 z m -10.675627,0.12749 c 0.1397,-0.18943 0.35877,-0.4438 0.48683,-0.56527 0.28755,-0.27276 0.29501,-0.39123 0.0256,-0.40675 -0.1139,-0.007 -0.29549,-0.10732 -0.40354,-0.22391 -0.8562,-0.92385 -2.947516,-0.78051 -2.734915,0.18745 0.08873,0.40398 0.254704,0.52293 0.643006,0.46084 0.312285,-0.0499 0.338657,-0.0376 0.420333,0.1967 0.09572,0.2746 0.562466,0.53385 0.961106,0.53385 0.13214,0 0.20821,0.0361 0.17822,0.0847 -0.15749,0.25482 0.20882,0.0233 0.42333,-0.26758 z m 9.806827,-0.29839 c 0.32149,-0.16458 0.52363,-0.65322 0.42651,-1.03102 -0.0651,-0.25325 -0.1352,-0.30887 -0.62368,-0.4949 -0.57538,-0.21912 -1.87559,-0.29971 -2.04834,-0.12697 -0.0888,0.0888 0.38245,0.52553 0.56701,0.52553 0.20887,0 0.62644,0.60698 0.68466,0.99522 l 0.0556,0.37079 0.34937,-0.058 c 0.19215,-0.0319 0.45715,-0.11319 0.58887,-0.18063 z m -2.27863,-0.54867 c -0.0248,-0.0831 0.0323,-0.19306 0.13898,-0.26776 0.17633,-0.1235 0.17679,-0.12906 0.018,-0.21403 -0.17905,-0.0958 -0.5588,0.25081 -0.70975,0.64785 -0.10102,0.26569 -0.10611,0.25643 0.15771,0.28679 0.25909,0.0298 0.46767,-0.2093 0.39503,-0.45285 z m -6.232867,0.1541 c 0.68606,-0.42721 1.38204,-1.48661 0.779,-1.18577 -0.1397,0.0697 -0.254,0.16019 -0.254,0.20111 0,0.0409 -0.16192,0.18747 -0.35983,0.32566 -0.32346,0.22587 -0.84344,0.94503 -0.67986,0.94029 0.0363,-0.001 0.26792,-0.12763 0.51469,-0.28129 z m 2.472327,0.1208 c 0,-0.0428 0.0231,-0.13801 0.0514,-0.21167 0.0313,-0.0816 0.007,-0.1339 -0.0635,-0.13386 -0.0632,3e-5 -0.12038,0.0953 -0.1271,0.21166 -0.007,0.11639 0.0219,0.21161 0.0635,0.21161 0.0416,0 0.0757,-0.035 0.0757,-0.0777 z m 3.14831,-0.49376 c 0.0567,-0.15134 0.12905,-0.27517 0.16083,-0.27517 0.0318,0 0.0773,-0.0748 0.10125,-0.16622 0.0533,-0.20383 -0.12084,-0.36417 -0.31472,-0.28977 -0.0924,0.0354 -0.18583,-0.006 -0.26349,-0.11692 -0.0772,-0.11017 -0.24994,-0.18744 -0.48144,-0.2153 -0.19859,-0.0239 -0.45632,-0.0657 -0.57274,-0.0929 -0.18575,-0.0434 -0.25052,0.0115 -0.52916,0.44862 -0.34272,0.5376 -0.36667,0.60181 -0.22446,0.60181 0.0512,0 0.21309,0.0521 0.35983,0.11583 1.34974,0.58604 1.25323,0.55926 1.46493,0.40659 0.10788,-0.0778 0.2425,-0.26525 0.29917,-0.41659 z m -3.825637,-0.10774 c 0.266077,-0.003 0.341397,-0.0637 0.737727,-0.59035 l 0.44139,-0.58657 -0.27206,-0.0415 c -0.67753,-0.10338 -1.076867,-0.11001 -1.089287,-0.0181 -0.007,0.0525 -0.0171,0.14104 -0.0222,0.19678 -0.005,0.0557 -0.10667,0.20814 -0.22568,0.33867 -0.23023,0.25251 -0.50123,0.65985 -0.50123,0.75342 0,0.031 0.14288,0.0328 0.3175,0.004 0.17463,-0.0289 0.45085,-0.0542 0.61384,-0.0563 z m 1.321807,-0.23093 c 0.13268,-0.17462 0.3658,-0.44259 0.51805,-0.59549 0.34386,-0.34532 0.34333,-0.35701 -0.0161,-0.35701 -0.34668,0 -0.62882,0.25991 -0.94206,0.86784 l -0.20722,0.40216 h 0.20304 c 0.1353,0 0.28354,-0.10593 0.44428,-0.3175 z m 6.36601,-0.52669 c 0.0105,-0.13835 0.0567,-0.35038 0.10267,-0.47118 0.22283,-0.58609 0.0919,-0.85474 -0.67849,-1.39203 -0.16298,-0.11367 -0.34612,-0.2749 -0.40697,-0.3583 -0.0609,-0.0834 -0.19229,-0.15163 -0.2921,-0.15163 -0.14114,0 -0.15888,0.0226 -0.0799,0.1016 0.23202,0.23201 -0.20004,1.22643 -0.47556,1.09455 -0.0784,-0.0375 -0.33862,-0.1696 -0.57831,-0.29351 -0.2397,-0.12392 -0.45425,-0.22531 -0.47679,-0.22531 -0.0636,0 -0.2304,0.72331 -0.2304,0.99885 v 0.24653 l 0.8255,0.0468 c 1.03255,0.0585 1.56173,0.19081 1.80696,0.45184 0.26607,0.28322 0.45957,0.26393 0.48335,-0.0482 z m -3.44629,-0.47489 c 0.0278,-0.0162 0.054,-0.15042 0.0582,-0.29817 0.004,-0.14774 0.0444,-0.30535 0.0893,-0.35025 0.0501,-0.0501 0.0527,-0.18238 0.007,-0.34262 -0.0412,-0.14355 -0.0568,-0.27906 -0.0347,-0.30115 0.0221,-0.0221 0.005,-0.0819 -0.0368,-0.13284 -0.20124,-0.24249 0.13574,-0.42117 0.43394,-0.2301 0.86348,0.55328 1.17019,0.57871 1.34773,0.11174 0.10074,-0.26496 -0.11608,-0.470511 -0.50394,-0.477761 -0.13958,-0.003 -0.25406,-0.0727 -0.31391,-0.192095 -0.0518,-0.10339 -0.20554,-0.27395 -0.34164,-0.37901 -0.1361,-0.105063 -0.28555,-0.233636 -0.33211,-0.285717 -0.13247,-0.148161 -0.60953,-0.459618 -0.704,-0.459618 -0.10569,0 -0.52367,0.824205 -0.52367,1.032625 0,0.200945 -0.18065,0.193855 -0.42333,-0.0166 -0.21458,-0.1861 -0.22178,-0.18748 -0.46567,-0.0892 -0.21342,0.086 -0.381,-0.0419 -0.381,-0.290771 0,-0.104435 -0.0808,-0.292569 -0.1795,-0.418075 -0.0987,-0.125508 -0.18499,-0.337571 -0.19172,-0.471252 -0.0161,-0.319615 -0.0961,-0.387373 -0.32741,-0.277062 -1.745047,0.832368 -1.973297,0.978979 -1.797617,1.154657 0.14875,0.148753 0.19972,0.143553 1.168547,-0.119274 0.83825,-0.227404 0.92571,-0.161515 0.70241,0.529167 -0.0645,0.199535 -0.1612,0.610446 -0.21487,0.913126 -0.0537,0.30268 -0.11705,0.64984 -0.14086,0.77146 -0.0394,0.20119 -0.0143,0.22569 0.27836,0.27172 0.73938,0.11629 0.92488,0.15354 1.12599,0.22609 0.11642,0.042 0.35705,0.0936 0.53472,0.11465 0.17768,0.0211 0.34791,0.0631 0.37828,0.0935 0.0505,0.0505 0.67021,-0.018 0.78853,-0.0872 z m 4.16158,-1.26527 c 0.0225,-0.11753 0.01,-0.2329 -0.0282,-0.25637 -0.0903,-0.0558 -0.23504,0.22763 -0.18606,0.36422 0.0626,0.17446 0.17072,0.12001 0.21427,-0.10785 z m 0.83274,0.0357 c 0.96739,-0.31707 1.07215,-0.44412 0.43732,-0.53038 -0.22119,-0.0301 -0.50319,-0.0772 -0.62667,-0.10474 -0.23898,-0.0533 -0.25397,-0.0314 -0.36857,0.53797 -0.0305,0.15134 -0.0396,0.27517 -0.0203,0.27517 0.0193,0 0.27949,-0.0801 0.57823,-0.17802 z m -10.806167,-0.17424 c 0.11861,-0.054 0.21565,-0.13533 0.21565,-0.18065 0,-0.12938 -0.44342,-0.482081 -0.67733,-0.538751 -0.11642,-0.0282 -0.47094,-0.179625 -0.78782,-0.336485 -0.31689,-0.15686 -0.61581,-0.285198 -0.66427,-0.285198 -0.0485,0 -0.19741,-0.07784 -0.33101,-0.172968 -0.1336,-0.09513 -0.434761,-0.195689 -0.66924,-0.22346 -0.254746,-0.03017 -0.426326,-0.0926 -0.426326,-0.155115 0,-0.05754 -0.116998,-0.128023 -0.259997,-0.156623 -0.21606,-0.04321 -0.250585,-0.08165 -0.204305,-0.227468 0.06267,-0.197456 -0.08381,-0.190226 -1.087703,0.05369 -0.271519,0.06597 -0.557269,0.119976 -0.635,0.120013 -0.253466,1.19e-4 -1.199662,0.495661 -1.199662,0.628286 0,0.118374 0.549585,0.556983 0.697911,0.556983 0.03626,0 0.227445,0.0729 0.424846,0.16193 0.55683,0.251236 0.911693,0.343046 1.417244,0.366656 0.256116,0.012 0.486689,0.0499 0.512384,0.0843 0.07306,0.0978 0.898485,0.23992 1.688948,0.29089 0.39582,0.0255 0.73554,0.0612 0.75495,0.0793 0.0811,0.0757 1.03202,0.0252 1.23073,-0.0653 z m -3.135366,-0.906936 c 0.02892,-0.0468 -0.0149,-0.12314 -0.09737,-0.16967 -0.123997,-0.07 -0.130645,-0.10383 -0.03841,-0.195705 0.09208,-0.09173 0.130625,-0.08526 0.221,0.03706 0.06021,0.08149 0.213218,0.148165 0.340023,0.148165 0.353483,0 0.215933,0.20706 -0.158402,0.23845 -0.198399,0.0166 -0.2995,-0.005 -0.266841,-0.0583 z m -1.351154,-0.471176 c -0.09487,-0.04948 -0.277853,-0.167168 -0.406632,-0.261519 l -0.234145,-0.171545 0.21365,-0.200714 c 0.170653,-0.16032 0.238104,-0.18042 0.335157,-0.09987 0.06683,0.05546 0.28702,0.120562 0.489315,0.144666 0.366802,0.0437 0.668582,0.20268 0.384743,0.20268 -0.07916,0 -0.153459,-0.0064 -0.1651,-0.01431 -0.01164,-0.0079 -0.113759,0.03525 -0.226926,0.09581 -0.188711,0.100995 -0.193809,0.118856 -0.06153,0.215582 0.199657,0.145993 -0.07612,0.220882 -0.328534,0.08922 z m 14.058297,1.217712 c 0.008,-0.11386 0.0305,-0.26147 0.0495,-0.32802 0.023,-0.0803 -0.0294,-0.119081 -0.15584,-0.115251 -0.10477,0.003 -0.34607,0.01 -0.53622,0.0152 -0.42219,0.0115 -0.4031,0.0996 0.0917,0.423451 0.44109,0.28863 0.53036,0.28939 0.55081,0.005 z m 2.75119,-0.562651 c 0.0233,-0.022 -0.10948,-0.160515 -0.29504,-0.307835 -0.18555,-0.14733 -0.45025,-0.374431 -0.58822,-0.50468 -0.13797,-0.130249 -0.39573,-0.318239 -0.5728,-0.417757 -0.17707,-0.09952 -0.32194,-0.212027 -0.32194,-0.250018 0,-0.233734 -0.85955,0.123644 -1.2867,0.534974 -0.16275,0.156722 -0.4256,0.388693 -0.5841,0.515491 l -0.2882,0.23054 0.7595,-0.0189 0.7595,-0.0189 0.0903,-0.322563 c 0.11221,-0.400882 0.2623,-0.376715 0.2277,0.03666 -0.0226,0.270613 -1.7e-4,0.311633 0.1905,0.348093 0.24484,0.0468 0.25173,0.0354 0.12367,-0.20385 -0.13911,-0.259921 0.0383,-0.387692 0.20596,-0.148331 0.10958,0.156441 0.15545,0.171351 0.26009,0.08451 0.16718,-0.138754 0.30379,-0.046 0.30379,0.20626 0,0.320036 0.74398,0.493027 1.016,0.236236 z m -2.794,-0.474105 c 0,-0.117708 0.16415,-0.313261 0.26297,-0.313261 0.0329,0 0.0157,0.09495 -0.0381,0.211006 -0.10526,0.226925 -0.22487,0.281325 -0.22487,0.102255 z m 1.524,0.36407 c 0,-0.0466 -0.0762,-0.0847 -0.16933,-0.0847 -0.0931,0 -0.16934,0.0381 -0.16934,0.0847 0,0.0466 0.0762,0.0847 0.16934,0.0847 0.0931,0 0.16933,-0.03811 0.16933,-0.0847 z m -2.89984,-0.30402 c 0.10478,-0.0678 0.1905,-0.191408 0.1905,-0.274756 0,-0.08335 0.10977,-0.256704 0.24393,-0.385238 0.13416,-0.128533 0.26558,-0.354736 0.29204,-0.502673 0.0265,-0.147938 0.10276,-0.545203 0.16957,-0.882811 0.15868,-0.801947 0.0371,-0.807555 -0.43454,-0.02005 -0.19562,0.326578 -0.35566,0.615193 -0.35566,0.641364 0,0.02617 -0.14817,0.301894 -0.32927,0.612719 -0.57327,0.983945 -0.49314,1.27495 0.22343,0.811445 z m -3.11055,-0.58714 c 0.1707,-0.398224 0.13796,-0.7406 -0.067,-0.700398 -0.1728,0.0339 -0.34372,0.553064 -0.29388,0.892648 0.0498,0.33899 0.15781,0.281422 0.36085,-0.19225 z m -0.84761,0.208611 c 0,-0.379441 -0.28716,-0.926076 -0.48649,-0.926076 -0.24636,0 -0.23652,0.423464 0.0189,0.813289 0.13257,0.202328 0.46758,0.283137 0.46758,0.112787 z m -3.132667,-0.135088 c 0,-0.08355 -0.64243,-0.896415 -0.84196,-1.065325 -0.0957,-0.08104 -0.17404,-0.203721 -0.17404,-0.272633 0,-0.06891 -0.11111,-0.207444 -0.24692,-0.30785 -0.1358,-0.100405 -0.26559,-0.253946 -0.2884,-0.341201 -0.0228,-0.08725 -0.10221,-0.158645 -0.17642,-0.158645 -0.20671,0 -0.17502,0.476577 0.0437,0.656995 0.40444,0.333623 1.15119,1.094176 1.2877,1.311505 0.1295,0.206143 0.39636,0.325419 0.39636,0.177154 z m 8.474287,-0.605088 c 0.40179,-0.401788 0.4063,-0.412358 0.3688,-0.863707 -0.0209,-0.251318 -0.0687,-0.487634 -0.10618,-0.525149 -0.0901,-0.09007 -0.4011,0.337311 -0.51095,0.70206 -0.0479,0.159076 -0.14488,0.470205 -0.21548,0.691396 -0.1659,0.519721 -0.0594,0.518665 0.46381,-0.0046 z m -5.02912,0.1316 c 0.0809,-0.125036 0.27828,-0.93979 0.23757,-0.980785 -0.28236,-0.284342 -1.03744,0.01997 -0.77342,0.311707 0.0763,0.08428 0.13868,0.219425 0.13868,0.300311 0,0.34861 0.25624,0.586522 0.39717,0.368767 z m -5.854947,-1.158963 c -0.027,-0.04371 0.0144,-0.115019 0.0921,-0.158475 0.1264,-0.07074 0.12801,-0.09783 0.0153,-0.258665 -0.0692,-0.09881 -0.15099,-0.154495 -0.18174,-0.123747 -0.0919,0.09193 -0.0632,0.62035 0.0338,0.62035 0.0493,0 0.0676,-0.03576 0.0406,-0.07946 z m 6.079007,-0.385907 c 0.37472,-0.156567 0.95173,-0.744361 1.02675,-1.045931 0.11792,-0.47408 0.18271,-1.03847 0.12341,-1.075118 -0.0826,-0.05105 -0.0186,-0.679702 0.0899,-0.882334 0.11766,-0.219848 0.10793,-0.341247 -0.0274,-0.341247 -0.10411,0 -0.28118,0.277361 -0.29123,0.456201 -0.0106,0.189206 -1.07542,0.182254 -1.54269,-0.01007 -0.0699,-0.02875 -0.2413,-0.05516 -0.381,-0.0587 -0.21369,-0.0054 -0.28053,-0.06354 -0.42114,-0.366261 -0.26499,-0.570473 -0.44887,-0.446978 -0.50627,0.340007 -0.0144,0.197171 -0.0529,0.495547 -0.0855,0.663058 l -0.0594,0.304566 0.51477,-0.02168 c 0.58552,-0.02465 0.68491,0.0464 0.41571,0.297197 -0.14281,0.133054 -0.25373,0.162736 -0.46205,0.123655 -0.38787,-0.07277 -0.45116,-0.0073 -0.35506,0.367035 0.11419,0.444837 0.72823,1.076588 1.05103,1.081347 0.0506,7.62e-4 0.15813,0.06742 0.23888,0.148167 0.17955,0.179552 0.2823,0.18263 0.67128,0.02011 z m -0.72643,-0.580472 c -0.0204,-0.14657 -0.0527,-0.323641 -0.0717,-0.393491 -0.0275,-0.100526 0.0531,-0.127 0.3866,-0.127 0.40863,0 0.42173,0.0076 0.43504,0.254 0.008,0.1397 0.0374,0.31115 0.0663,0.381 0.0422,0.101938 -0.0295,0.129465 -0.36329,0.139491 -0.40544,0.01218 -0.41684,0.0058 -0.45295,-0.254 z m 0.78254,-0.895785 c 0,-0.04343 -0.0737,-0.102353 -0.16378,-0.130942 -0.22672,-0.07196 -0.18821,-0.360478 0.0543,-0.406837 0.12551,-0.02399 0.19414,0.0036 0.19414,0.07815 0,0.117915 0.0587,0.139217 0.41593,0.150907 0.28693,0.0094 0.31923,0.200557 0.0511,0.302498 -0.281,0.106834 -0.55171,0.10989 -0.55171,0.0062 z m 5.98452,0.565794 c 1.06122,-1.767461 0.96458,-2.32682 -0.11337,-0.656167 -0.5735,0.888834 -0.73359,1.354667 -0.46554,1.354667 0.10945,0 0.29112,-0.219199 0.57891,-0.6985 z m -1.15296,0.441521 c 0.23264,-0.124503 0.21345,-0.35452 -0.0267,-0.32041 -0.12242,0.01739 -0.20017,0.09513 -0.21755,0.217556 -0.0303,0.213381 0.008,0.229422 0.24428,0.102854 z M 82.602578,96.205525 c 0,-0.117266 -0.0336,-0.233981 -0.0747,-0.259366 -0.0988,-0.06106 -0.18938,0.184394 -0.12753,0.345577 0.0772,0.201082 0.20221,0.147768 0.20221,-0.08621 z m -0.12584,-0.739289 c 0.0482,-0.140067 -0.10272,-0.5715 -0.19994,-0.5715 -0.0875,0 -0.0974,0.20927 -0.023,0.486833 0.056,0.208936 0.16582,0.250642 0.22296,0.08467 z m 16.318337,16.361844 c -0.0901,-0.0583 0.0143,-0.0824 0.35984,-0.0834 0.26897,-6.8e-4 0.48683,0.0366 0.48683,0.0834 0,0.10836 -0.67898,0.10836 -0.84667,0 z m 0.008,-5.07371 c -0.27379,-0.22345 -0.30293,-0.42963 -0.0607,-0.42963 0.0961,0 0.43422,0.57836 0.37361,0.63897 -0.0139,0.0139 -0.15473,-0.0803 -0.31288,-0.20934 z m -27.440008,-1.26968 c 0,-0.11872 0.148423,-0.19241 0.629701,-0.31262 0.235748,-0.0589 0.5182,-0.13387 0.627672,-0.16664 0.163787,-0.049 0.193688,-0.0318 0.168822,0.0973 -0.02215,0.115 -0.154462,0.182 -0.495374,0.25085 -0.255835,0.0517 -0.56993,0.12057 -0.697988,0.15314 -0.133432,0.0339 -0.232833,0.0245 -0.232833,-0.0221 z m 27.803278,-0.42342 c -0.28476,-0.13184 -0.54998,-0.29202 -0.5894,-0.35595 -0.0522,-0.0846 -0.015,-0.0794 0.13674,0.0191 0.26092,0.16944 1.05708,0.36393 1.22538,0.29935 0.185055,-0.071 0.376375,0.0266 0.323285,0.165 -0.0724,0.18869 -0.527425,0.13576 -1.096005,-0.12748 z m 0.941075,-1.46011 c -0.595585,-0.23391 -0.690895,-0.36197 -0.211675,-0.28438 0.209555,0.0339 0.452585,0.0674 0.540075,0.0743 0.0875,0.007 0.21596,0.0984 0.2855,0.20314 0.16314,0.24584 -8.7e-4,0.24769 -0.6139,0.007 z m -27.876507,-1.00439 c -0.236646,-0.0951 -0.254975,-0.28106 -0.02117,-0.21473 0.09313,0.0264 0.245534,0.0696 0.338667,0.0961 0.09313,0.0264 0.169333,0.0836 0.169333,0.127 0,0.0976 -0.233147,0.0936 -0.486833,-0.008 z m 28.765507,-0.64535 c -0.48818,-0.0465 -1.189665,-0.22184 -1.244865,-0.31115 -0.0328,-0.053 0.0228,-0.0583 0.15212,-0.0145 0.112055,0.038 0.496015,0.0849 0.853245,0.10424 0.45942,0.0249 0.66306,0.0705 0.69584,0.15594 0.0255,0.0665 -1e-5,0.11467 -0.0568,0.10721 -0.0567,-0.007 -0.23653,-0.0262 -0.39951,-0.0418 z m -28.479757,-1.23195 c -0.257054,-0.0935 -0.560917,-0.35446 -0.560917,-0.48167 0,-0.15678 0.238654,-0.15795 0.474731,-0.002 0.134715,0.0888 0.310271,0.16172 0.390124,0.16203 0.154123,5.9e-4 0.351219,0.28026 0.261055,0.37043 -0.07382,0.0738 -0.276739,0.0564 -0.564993,-0.0485 z m 27.590757,-0.914061 c 0.23939,-0.102875 1.22766,-0.102875 1.22766,0 0,0.0501 -0.28531,0.0822 -0.6985,0.0787 -0.46896,-0.004 -0.642855,-0.0299 -0.52916,-0.0787 z M 72.865913,98.313643 c -0.456894,-0.444208 -0.490757,-0.54024 -0.1905,-0.54024 0.116417,0 0.211667,0.03937 0.211667,0.08749 0,0.04812 0.13335,0.22084 0.296333,0.383823 0.162983,0.162983 0.296333,0.333163 0.296333,0.378177 0,0.179167 -0.231357,0.06261 -0.613833,-0.309248 z m 27.664837,-0.45566 c 0.78834,-0.209397 1.01506,-0.239272 1.07535,-0.141708 0.0911,0.147326 -0.15744,0.214908 -0.77902,0.211867 -0.4327,-0.0021 -0.49604,-0.01711 -0.29633,-0.07016 z M 73.608333,95.647489 c -0.408694,-0.40908 -0.482213,-0.522193 -0.381,-0.586193 0.175112,-0.110726 0.232984,-0.101576 0.317963,0.05027 0.04068,0.07269 0.236313,0.299687 0.43474,0.504436 0.198427,0.204748 0.336238,0.411974 0.306247,0.460501 -0.08734,0.141317 -0.143934,0.105503 -0.67795,-0.429016 z m 26.456747,0.2093 c 0.0699,-0.02232 0.36997,-0.118506 0.66692,-0.213749 0.4405,-0.14128 0.55278,-0.152368 0.60973,-0.06022 0.0529,0.08567 -0.0468,0.137604 -0.41292,0.214997 -0.46263,0.0978 -1.127265,0.143171 -0.86373,0.05897 z M 96.318265,95.68999 c -0.23339,-0.380058 -0.0597,-0.806771 0.29993,-0.736834 0.32471,0.06315 0.38619,0.139139 0.33389,0.41272 -0.0428,0.224134 -0.18901,0.285375 -0.18901,0.07919 0,-0.200747 -0.15284,-0.148149 -0.28116,0.09676 -0.0645,0.123064 -0.13812,0.189739 -0.16365,0.148166 z M 80.325946,95.395681 c -0.0065,-0.112537 -0.0191,-0.338289 -0.02802,-0.501674 -0.0089,-0.163384 -0.04244,-0.401509 -0.07448,-0.529167 -0.05371,-0.214 0.04604,-0.326397 0.146049,-0.164573 0.06983,0.112982 0.09565,1.272631 0.02981,1.338476 -0.03385,0.03385 -0.06686,-0.03053 -0.07335,-0.143062 z m -0.633438,-0.431812 c -0.106316,-0.170443 -0.125626,-0.4078 -0.03318,-0.4078 0.09136,0 0.216534,0.405437 0.146728,0.475243 -0.02421,0.02421 -0.07531,-0.0061 -0.113551,-0.06744 z m 20.033907,-0.758746 c 0.11641,-0.05381 0.355715,-0.168312 0.531775,-0.254447 0.34367,-0.168134 0.65356,-0.205359 0.65356,-0.07851 0,0.07761 -0.31833,0.196073 -0.80433,0.299316 -0.139705,0.02968 -0.330205,0.0714 -0.423345,0.09272 -0.10988,0.02515 -0.095,0.0044 0.0423,-0.05908 z m -24.955502,-0.74558 c -0.397036,-0.443522 -0.445964,-0.596807 -0.1905,-0.596807 0.09313,0 0.16951,0.02858 0.169725,0.0635 2.12e-4,0.03493 0.114516,0.185259 0.254,0.334075 0.139485,0.148816 0.253608,0.310741 0.253608,0.359833 0,0.04909 0.0381,0.08926 0.08467,0.08926 0.04657,0 0.08467,0.0381 0.08467,0.08467 0,0.201747 -0.323944,0.03659 -0.656167,-0.334526 z m 19.329352,-0.590027 c -0.0673,-0.108885 0.36254,-0.430113 0.57553,-0.430113 0.15166,0 0.1355,0.03452 -0.11725,0.250559 -0.31829,0.272057 -0.38496,0.298181 -0.45828,0.179554 z m 5.34486,-0.690695 c 0.0811,-0.08113 0.2768,-0.1449 0.937455,-0.305513 0.11147,-0.0271 0.1905,-0.0071 0.1905,0.04822 0,0.052 -0.0667,0.09511 -0.14816,0.09581 -0.0815,7.03e-4 -0.30057,0.05618 -0.486845,0.123284 -0.41946,0.151115 -0.62153,0.166771 -0.49295,0.03819 z M 84.063078,92.06877 c 0,-0.06415 -0.0571,-0.164064 -0.127,-0.222034 -0.15447,-0.128201 -0.16515,-0.254994 -0.0212,-0.251243 0.1563,0.0041 0.41893,0.58991 0.26446,0.58991 -0.064,0 -0.11629,-0.05249 -0.11629,-0.116633 z m 10.321737,-0.0012 c 0.0879,-0.105933 0.43093,-0.246507 0.43093,-0.176604 0,0.08366 -0.28451,0.294455 -0.39741,0.294455 -0.1026,0 -0.10993,-0.02578 -0.0335,-0.117851 z M 76.746939,91.33224 c -0.120556,-0.143273 -0.219193,-0.292557 -0.219193,-0.331742 0,-0.03919 -0.02313,-0.131512 -0.05139,-0.205171 -0.120335,-0.313588 0.221734,-0.106216 0.425153,0.25774 0.33482,0.599058 0.247422,0.756911 -0.15457,0.279173 z m 7.536869,0.126571 c -0.0724,-0.188782 -0.0668,-0.204742 0.0726,-0.204742 0.0682,0 0.1648,0.0762 0.21464,0.169333 0.0761,0.142121 0.0644,0.169334 -0.0726,0.169334 -0.0898,0 -0.18638,-0.06027 -0.21464,-0.133925 z m 13.842427,-1.704648 c 0.17676,-0.254348 0.88418,-0.870761 0.99933,-0.870761 0.25863,0 0.0559,0.197755 -0.95471,0.931334 -0.16941,0.122971 -0.17083,0.12105 -0.0446,-0.06057 z m -19.114759,-0.04526 c -0.416965,-0.665954 -0.611887,-1.442857 -0.278316,-1.109286 0.142964,0.142964 0.579325,1.111493 0.52517,1.165647 -0.07944,0.07944 -0.175572,0.05749 -0.246854,-0.05636 z m 17.412939,-1.046149 c 0,-0.02822 0.0952,-0.126238 0.21166,-0.217811 0.11642,-0.09157 0.21167,-0.203375 0.21167,-0.248447 0,-0.165595 0.37513,-0.583094 0.52392,-0.583094 0.24129,0 0.18768,0.09839 -0.33588,0.616484 -0.45429,0.449553 -0.61137,0.560772 -0.61137,0.432868 z M 80.7588,87.676902 c -0.173156,-0.38147 -0.207818,-0.572332 -0.103553,-0.570203 0.163621,0.0033 0.269896,0.156404 0.300327,0.432552 0.0183,0.166025 0.06047,0.345878 0.09372,0.399674 0.03325,0.0538 0.01824,0.09781 -0.03335,0.09781 -0.05159,0 -0.167303,-0.161925 -0.257137,-0.359834 z m 13.972275,-0.271936 c 0,-0.119138 0.61832,-1.316116 0.72604,-1.40552 0.25535,-0.211916 0.30529,0.04831 0.0525,0.273541 -0.13231,0.11789 -0.32793,0.429611 -0.43472,0.692713 -0.15777,0.388726 -0.34382,0.626423 -0.34382,0.439266 z M 84.224068,86.556993 c -0.0525,-0.208491 -0.16656,-0.461059 -0.25346,-0.561261 -0.16688,-0.192412 -0.14558,-0.329663 0.0512,-0.329663 0.11869,0 0.25199,0.363584 0.34921,0.9525 0.0729,0.441771 -0.0311,0.398148 -0.14691,-0.06158 z m 8.766467,-0.467591 c 0.0574,-0.54487 0.20401,-0.832066 0.37176,-0.728389 0.0563,0.03481 0.0255,0.239022 -0.0876,0.581518 -0.25032,0.757482 -0.35413,0.811147 -0.28412,0.146871 z m -6.08853,0.07575 c -0.11011,-0.454599 -0.0909,-0.88008 0.0397,-0.88008 0.094,0 0.13377,0.118737 0.15301,0.456589 0.0277,0.486795 -0.10615,0.780966 -0.19274,0.423491 z m 2.85646,-0.50709 c 0.0505,-0.470216 0.26751,-1.00799 0.40681,-1.00799 0.10203,0 0.10531,-0.01985 -0.0909,0.550333 -0.0931,0.270697 -0.16933,0.560163 -0.16933,0.643258 0,0.0831 -0.044,0.178301 -0.0979,0.211569 -0.0716,0.04424 -0.0847,-0.06241 -0.0487,-0.39717 z"
       style="fill:#000000;stroke-width:0.08466667" />
  </g>
</svg>
