<?xml version="1.0" encoding="UTF-8" standalone="no"?>
<svg
   xmlns:dc="http://purl.org/dc/elements/1.1/"
   xmlns:cc="http://creativecommons.org/ns#"
   xmlns:rdf="http://www.w3.org/1999/02/22-rdf-syntax-ns#"
   xmlns:svg="http://www.w3.org/2000/svg"
   xmlns="http://www.w3.org/2000/svg"
   id="svg8"
   version="1.1"
   viewBox="0 0 114.44133 79.994454"
   height="79.994453mm"
   width="114.44133mm">
  <defs
     id="defs2" />
  <metadata
     id="metadata5">
    <rdf:RDF>
      <cc:Work
         rdf:about="">
        <dc:format>image/svg+xml</dc:format>
        <dc:type
           rdf:resource="http://purl.org/dc/dcmitype/StillImage" />
        <dc:title></dc:title>
      </cc:Work>
    </rdf:RDF>
  </metadata>
  <g
     transform="translate(-91.814793,-117.01059)"
     id="layer1">
    <path
       id="path4798"
       d="m 108.18481,143.21433 h -2e-5 c -0.34054,0.34054 -3.62753,-0.15155 -4.86228,-0.72793 -0.30269,-0.14129 -0.93134,-0.38191 -1.397,-0.53471 -0.46567,-0.1528 -1.48278,-0.60348 -2.260255,-1.00151 -0.777471,-0.39803 -1.577571,-0.75593 -1.778,-0.79533 -0.575404,-0.1131 -0.626019,-0.83644 -0.05219,-0.74584 0.475963,0.0751 1.599828,0.33187 2.608775,0.59596 0.44238,0.1158 1.20078,0.2856 1.68533,0.3774 0.68612,0.12995 1.11687,0.27846 1.94734,0.67138 0.82413,0.38992 3.37302,1.31477 4.1355,1.50053 0.15045,0.0366 0.13128,0.50157 -0.0272,0.66005 z m 43.69405,1.85427 v -3.2e-4 c -0.44936,0.14594 -6.20022,0.1535 -6.64633,0.009 -0.38037,-0.12321 -1.58842,-0.20368 -5.588,-0.37223 -1.09432,-0.0461 -2.31352,-0.12202 -2.70933,-0.16862 -0.39582,-0.0466 -1.29117,-0.1076 -1.98967,-0.1356 -0.6985,-0.028 -1.49215,-0.10498 -1.76367,-0.17118 -0.27152,-0.0661 -0.79228,-0.12034 -1.15724,-0.12034 -0.94006,0 -0.94876,-0.006 -0.88216,-0.5944 0.11165,-0.98687 -0.74107,-0.97445 -1.05866,0.0154 -0.0547,0.1705 -0.15727,0.33219 -0.22787,0.35929 -0.13927,0.0534 -2.17402,-0.0687 -3.33473,-0.20018 -0.39582,-0.0448 -1.34832,-0.12315 -2.11667,-0.17395 -2.42477,-0.16041 -3.32582,-0.25548 -3.97934,-0.41987 -0.39992,-0.1006 -1.23051,-0.19288 -2.24366,-0.24938 -2.40036,-0.13378 -4.38973,-0.31367 -6.12245,-0.55363 -2.18182,-0.30216 -2.21722,-0.31366 -2.21722,-0.72054 0,-0.51512 -0.4155,-0.63305 -0.89311,-0.25349 -0.25878,0.20563 -0.37577,0.2469 -0.58314,0.2058 -0.73129,-0.14509 -3.01611,-0.96862 -3.98475,-1.43624 -1.06855,-0.51586 -1.27393,-0.57985 -2.70933,-0.84403 -0.37254,-0.0686 -1.17264,-0.2544 -1.778,-0.41297 -0.605367,-0.15856 -1.253067,-0.31654 -1.439333,-0.35114 -0.33867,-0.0629 -0.33867,-0.0629 -0.08467,-0.1753 0.859973,-0.38072 1.819133,-0.66459 2.986633,-0.88391 0.73225,-0.13757 1.92192,-0.40002 2.6437,-0.58324 1.37802,-0.34979 2.28213,-0.52352 3.89467,-0.74841 1.19867,-0.16716 9.09933,-0.25587 10.20233,-0.11456 0.37253,0.0477 1.70603,0.1101 2.96334,0.1387 1.51295,0.0343 2.45294,0.0923 2.77967,0.17164 0.29872,0.0724 0.93398,0.11942 1.60866,0.11891 0.61325,-4e-4 1.47695,0.0375 1.91933,0.0842 0.44239,0.0468 1.45204,0.12354 2.24367,0.17074 2.04789,0.12199 4.86192,0.36449 6.05367,0.52166 0.34925,0.0461 1.41605,0.13391 2.37066,0.19531 1.35719,0.0873 1.83001,0.14918 2.16834,0.28402 0.28729,0.11451 0.80011,0.20195 1.52626,0.26015 0.60147,0.0482 1.28307,0.12526 1.51466,0.17116 1.47479,0.29235 2.71595,0.48283 3.89241,0.59736 0.4191,0.0408 1.35255,0.15009 2.07433,0.24289 0.72179,0.0928 1.80764,0.19173 2.413,0.21993 1.08353,0.0504 1.71368,0.11193 3.556,0.34705 0.51224,0.0654 1.17899,0.14032 1.48167,0.16652 0.56181,0.0487 2.16128,0.23436 3.302,0.38336 0.34925,0.0456 1.84468,0.0827 3.32317,0.0824 1.50009,-3e-4 2.68816,0.0325 2.68816,0.0743 0,0.10012 -0.65425,0.68718 -0.76583,0.68718 -0.14955,0 -2.2186,1.02403 -2.60629,1.28992 -0.20154,0.13823 -0.59731,0.34513 -0.87949,0.45979 -0.28217,0.11466 -0.74678,0.36795 -1.03247,0.56288 -1.55443,1.06058 -7.30189,2.16465 -7.46451,1.43391 -0.10622,-0.4773 -0.13987,-0.5415 -0.32904,-0.6277 -0.26176,-0.11927 -0.53785,0.0348 -0.59815,0.33381 -0.10698,0.53054 -0.17261,0.64335 -0.42122,0.72395 z m -22.41637,0.62827 v -5e-5 c -0.0459,0.0582 -0.20252,0.0982 -0.34816,0.0882 -0.14564,-0.01 -1.4078,-0.0401 -2.8048,-0.0676 -1.397,-0.0275 -2.82575,-0.0945 -3.175,-0.149 -0.34925,-0.0545 -1.1303,-0.16003 -1.73567,-0.23473 -0.60537,-0.0746 -1.29117,-0.19559 -1.524,-0.26869 -0.31029,-0.0974 -0.99984,-0.14942 -2.58233,-0.19442 -4.06999,-0.11585 -5.95256,-0.4285 -7.46705,-1.2401 -0.86904,-0.46571 -0.63955,-0.79518 0.41262,-0.59241 1.4219,0.27404 3.36125,0.49265 5.74209,0.6473 2.57701,0.16738 3.55849,0.2605 4.14867,0.39362 0.78612,0.17731 1.56957,0.26047 3.85234,0.40893 3.61932,0.23538 5.51059,0.42756 5.59789,0.5688 0.0757,0.12253 0.0109,0.47823 -0.1166,0.64015 z m 27.24237,0.81331 v -5e-5 c -0.91366,0.1376 -1.74995,0.1814 -1.83515,0.0962 -0.0237,-0.0236 -0.38245,-0.0713 -0.79728,-0.10583 -0.73228,-0.061 -0.75498,-0.0692 -0.77998,-0.28481 -0.0346,-0.29837 0.0431,-0.3197 1.5005,-0.4126 0.67901,-0.0433 1.48223,-0.13281 1.78491,-0.19901 1.8516,-0.4049 2.28423,-0.5213 3.22895,-0.86872 0.57569,-0.21172 1.27532,-0.53251 1.55472,-0.71287 0.2794,-0.18036 0.6985,-0.41125 0.93133,-0.51307 0.23284,-0.10183 0.53225,-0.26165 0.66537,-0.35525 0.35221,-0.24753 2.12104,-1.14516 2.63706,-1.33823 0.24321,-0.091 0.51045,-0.24081 0.59385,-0.33301 0.23785,-0.26281 0.37939,-0.2106 0.37939,0.13995 0,0.38093 -0.29734,0.6834 -1.19515,1.21573 -0.34384,0.20388 -0.80958,0.51606 -1.03495,0.69373 -0.22538,0.17767 -0.45177,0.32303 -0.50307,0.32303 -0.0513,0 -0.34318,0.14798 -0.64857,0.32883 -0.68628,0.40642 -1.84676,0.88898 -2.44041,1.0148 -0.24521,0.052 -1.04532,0.33671 -1.778,0.63276 -1.07304,0.43356 -1.51334,0.56553 -2.26352,0.67842 z m -12.90241,0.49701 v 1e-5 c -1.2391,0.0435 -2.59582,0.0906 -3.01492,0.10456 -0.81061,0.0271 -1.36291,-0.0289 -2.921,-0.29598 -0.53552,-0.0919 -1.32492,-0.16683 -1.75422,-0.16666 -0.60167,2e-4 -0.92767,-0.0478 -1.42257,-0.20931 -0.82584,-0.26958 -1.89486,-0.45864 -2.96154,-0.52384 -1.01997,-0.0623 -1.17877,-0.12528 -1.10347,-0.43771 0.10388,-0.43134 1.08142,-0.60707 1.90836,-0.34314 0.16267,0.0519 0.71487,0.12644 1.22711,0.16564 2.76203,0.21125 4.88293,0.34026 6.81566,0.41446 2.3929,0.0919 3.71594,0.20544 4.62835,0.39716 0.63206,0.13281 5.98925,0.1217 6.60363,-0.0137 0.33666,-0.0742 0.5215,0.16924 0.32866,0.43317 -0.10941,0.14969 -0.29828,0.16259 -2.98122,0.20219 -1.57543,0.0233 -2.91736,0.0765 -2.98216,0.11819 -0.0648,0.0417 -1.13156,0.11146 -2.37067,0.15496 z m -36.59975,10.33135 v 4e-5 c -0.0788,0.1534 -0.32,0.1755 -0.78984,0.0723 -0.24839,-0.0546 -0.25379,-0.0663 -0.24339,-0.55229 0.0147,-0.6903 0.34679,-3.25354 0.60412,-4.66355 0.0984,-0.53927 0.14018,-1.27457 0.14418,-2.51562 0.006,-2.01072 -0.0554,-1.86762 0.88036,-2.05592 0.91823,-0.18478 0.90361,-0.21416 0.6128,1.23166 -0.31915,1.58677 -0.51722,2.95738 -0.52022,3.59388 -0.001,0.2794 -0.0566,0.75565 -0.12318,1.05833 -0.0665,0.30269 -0.12203,0.74571 -0.12403,0.9845 -0.002,0.23879 -0.0591,0.56848 -0.12769,0.73264 -0.0686,0.16417 -0.14994,0.67365 -0.18084,1.13218 -0.0309,0.45853 -0.0904,0.90035 -0.13227,0.98185 z m 45.56191,1.45362 c -0.9817,0.29165 -0.9065,0.46888 -0.9727,-2.27912 -0.12388,-5.13882 -0.14231,-4.8981 0.38329,-5.00833 1.48707,-0.3119 1.86266,-0.14859 1.86266,0.80992 0,0.36181 0.057,0.84486 0.12662,1.07345 0.32097,1.05361 0.58636,4.4309 0.39857,5.07229 -0.0744,0.25396 -0.0744,0.25396 -0.71099,0.22596 -0.41073,-0.0181 -0.79659,0.0194 -1.08745,0.10583 z m -23.51609,-0.14129 c -0.0354,1.03767 -0.0354,1.03767 -0.4712,1.02767 -0.43318,-0.009 -1.27415,-0.16213 -1.35585,-0.24613 -0.0627,-0.0645 0.48454,-2.24119 0.75816,-3.0157 0.28207,-0.79844 0.39597,-2.99524 0.19817,-3.82225 -0.13797,-0.57686 -0.1172,-0.59355 0.90296,-0.72566 0.49838,-0.0645 0.93368,-0.16998 1.06968,-0.25908 0.41766,-0.27352 0.43346,-0.21446 0.41166,1.51583 -0.0223,1.76564 0.003,1.66493 -0.68771,2.72227 -0.57142,0.87452 -0.78477,1.59857 -0.82587,2.80305 z m -23.11779,1.79829 h -4e-5 c -0.0636,0.52271 -0.14235,0.57089 -0.60287,0.36872 -0.17344,-0.0761 -0.75886,-0.15881 -1.43934,-0.20331 -2.21997,-0.1451 -3.6551,-0.49679 -4.555971,-1.11649 -0.234974,-0.16163 -0.611831,-0.34031 -0.837456,-0.39701 -0.225627,-0.0567 -0.532703,-0.17873 -0.682392,-0.27113 -0.375882,-0.23169 -0.711066,-0.31639 -0.93201,-0.23469 -0.229075,0.0847 -0.323835,-0.26601 -0.247115,-0.91468 0.02638,-0.22304 0.08394,-0.97703 0.127898,-1.67553 0.04396,-0.6985 0.121637,-1.67005 0.172617,-2.159 0.146855,-1.4086 0.262723,-2.59291 0.352053,-3.59833 0.04551,-0.51224 0.07346,-2.76756 0.06211,-5.01183 -0.01135,-2.24427 0.0027,-4.10381 0.03119,-4.13231 0.0285,-0.0285 0.332234,0.0974 0.674954,0.27967 1.686753,0.89734 2.868592,1.4514 3.290132,1.5424 0.25611,0.0553 0.73236,0.22978 1.05833,0.38772 1.01847,0.49348 3.1402,0.96464 4.35733,0.96664 0.91659,0.002 0.89538,-0.0288 0.76098,1.10136 -0.14769,1.24195 -0.20112,1.31035 -1.02307,1.31035 -0.57447,0 -0.6259,0.015 -0.7257,0.21166 -0.13385,0.26395 -0.14407,1.64637 -0.0172,2.33266 0.10284,0.55633 0.0624,0.98662 -0.3495,3.72101 -0.13329,0.88477 -0.28332,1.98967 -0.33332,2.45533 -0.05,0.46567 -0.1309,1.18562 -0.1798,1.59989 -0.12883,1.09249 0.0412,1.40578 0.7628,1.40578 0.46658,0 0.49602,0.21715 0.27539,2.03112 z m 49.53713,2.12501 2e-5,1e-5 c -1.72581,0.32196 -1.67581,0.36318 -1.73661,-1.43189 -0.0491,-1.44984 -0.0648,-1.4123 0.54338,-1.29868 0.45348,0.0847 0.87406,-0.0468 0.94766,-0.29624 0.13863,-0.46996 0.23833,-1.65462 0.19663,-2.33771 -0.16699,-2.73834 -0.2215,-3.26039 -0.39548,-3.78694 -0.12834,-0.38845 -0.19598,-0.86011 -0.23008,-1.60339 -0.0576,-1.25697 -0.16336,-1.44461 -0.81428,-1.44461 -0.20597,0 -0.41457,-0.0484 -0.46367,-0.10747 -0.0693,-0.0834 -0.14685,-2.01328 -0.10695,-2.6574 0.004,-0.0717 0.36335,-0.0854 1.34468,-0.0514 1.93695,0.0672 3.33607,-0.19358 4.68315,-0.87295 0.21529,-0.10858 0.86299,-0.33514 1.43934,-0.50348 1.1058,-0.32297 3.46522,-1.41128 3.75585,-1.73243 0.16803,-0.18566 1.50713,-1.01753 1.63797,-1.01753 0.10493,0 0.26841,1.13296 0.26841,1.86008 0,0.62351 -0.11516,0.84925 -0.43323,0.84925 -0.52878,0 -0.61328,0.31328 -0.55488,2.05797 0.0541,1.61616 0.0541,1.61616 -0.2,2.06634 -0.78785,1.39594 -0.74045,5.11003 0.0763,5.98207 0.30699,0.32779 0.34979,0.61392 0.34979,2.33962 0,1.65512 -0.0595,2.11657 -0.27306,2.11674 -0.0594,3e-5 -0.34948,0.11433 -0.64471,0.254 -0.29522,0.13966 -0.641,0.25393 -0.7684,0.25393 -0.1274,0 -0.50218,0.0945 -0.83285,0.21005 -0.55619,0.19432 -0.91169,0.25403 -2.77264,0.46564 -0.37254,0.0424 -0.88256,0.11724 -1.13339,0.16634 -0.25084,0.0491 -0.63184,0.089 -0.84667,0.0887 -0.42456,-6.4e-4 -1.66593,0.17573 -3.03628,0.43138 z m -28.82167,0.42611 8e-5,3e-5 c -0.0623,0.0395 -0.15139,0.0673 -0.19799,0.0613 -0.0466,-0.006 -0.37042,-0.0405 -0.71967,-0.0772 -0.34925,-0.0366 -0.7681,-0.10749 -0.93078,-0.15749 -0.17644,-0.0542 -1.13289,-0.0908 -2.37066,-0.0908 -1.46502,4e-5 -2.27399,-0.0366 -2.75223,-0.12468 -0.37253,-0.0686 -1.29027,-0.24009 -2.03941,-0.38107 -0.74914,-0.14097 -1.58734,-0.25673 -1.86266,-0.25732 -0.27533,-5.6e-4 -0.71015,-0.0573 -0.96626,-0.126 -0.25612,-0.0687 -0.61807,-0.12625 -0.80434,-0.12725 -0.18626,-0.001 -0.58631,-0.0609 -0.889,-0.13257 -0.75314,-0.17834 -2.27187,-0.303 -4.191,-0.3441 -2.24186,-0.048 -2.00993,0.10531 -1.94063,-1.28265 0.0618,-1.23807 0.11773,-1.45776 0.37078,-1.45776 0.39555,0 0.68089,-0.40222 0.68097,-0.96003 1.2e-4,-0.56179 0.18294,-1.72728 0.33169,-2.11465 0.0503,-0.13109 0.0915,-0.41684 0.0915,-0.635 10e-6,-0.21816 0.0572,-0.69528 0.127,-1.06027 0.0698,-0.36499 0.12657,-0.89839 0.12614,-1.18533 -9.7e-4,-0.60417 0.20053,-2.06618 0.42783,-3.10406 0.50073,-2.28639 0.4244,-3.0343 -0.31078,-3.0453 -0.34292,-0.005 -0.39952,-0.1894 -0.28952,-0.9417 0.16482,-1.12725 0.15891,-1.12417 1.20732,-0.62979 0.9553,0.45048 1.58683,0.6194 2.71812,0.72706 0.47421,0.0451 1.14796,0.11794 1.49721,0.16184 0.34925,0.0439 1.42189,0.0815 2.38365,0.0835 1.39141,0.003 1.91032,0.0373 2.54,0.16799 1.29319,0.26844 1.67954,0.33362 2.56935,0.43322 0.46567,0.0521 1.22485,0.14862 1.68708,0.21432 0.54702,0.0778 1.61109,0.12054 3.048,0.12154 2.20617,0.002 2.80481,0.0564 2.93835,0.26702 0.16439,0.25928 0.086,3.52853 -0.0888,3.70333 -0.24564,0.24564 -1.03265,0.32049 -1.43971,0.13694 -0.80196,-0.36164 -0.96416,-0.0786 -0.63832,1.11384 0.41853,1.53172 0.40707,2.89859 -0.0366,4.36669 -0.97524,3.22684 -0.99054,3.97152 -0.0857,4.17025 0.32652,0.0717 0.38093,0.2184 0.24522,0.66077 -0.0596,0.19441 -0.15667,0.67299 -0.21567,1.06351 -0.0596,0.39458 -0.15756,0.74197 -0.22056,0.78187 z m 13.80242,0.83457 c -0.46343,0.2103 -4.96036,0.24089 -6.08408,0.0414 -1.64506,-0.29204 -2.59369,-0.41206 -3.72533,-0.47136 -1.67327,-0.0877 -2.46766,-0.16705 -2.65737,-0.26555 -0.29586,-0.15362 0.036,-2.15837 0.3947,-2.38466 0.0841,-0.053 0.33689,-0.0418 0.73098,0.0326 0.9727,0.18353 1.0299,0.0922 1.0026,-1.60089 -0.0239,-1.484 0.16298,-2.14336 0.92815,-3.27455 0.48246,-0.71321 0.51186,-0.87319 0.56436,-3.06713 0.0559,-2.33492 0.0386,-2.38532 -0.81564,-2.38532 -0.66278,0 -0.65578,0.0194 -0.65578,-1.78888 0,-1.76278 0.026,-1.85178 0.54146,-1.85178 0.65069,0 2.95287,0.40414 3.59721,0.63147 0.21485,0.0758 0.65834,0.13115 1.0578,0.13201 0.66342,0.001 1.57078,0.12334 2.63519,0.35407 0.72249,0.15659 6.54653,0.11781 8.001,-0.0533 0.65658,-0.0773 2.05189,-0.13289 3.67566,-0.14649 3.07821,-0.0259 2.74406,-0.1982 2.75306,1.42135 0.007,1.29243 0.0373,1.24173 -0.8313,1.38613 -1.03236,0.17162 -1.25318,0.44316 -1.12216,1.37975 0.0571,0.40827 0.12531,2.31439 0.15551,4.34446 0.0626,4.21163 0.0742,4.25747 0.96585,3.7964 0.15364,-0.0794 0.41066,-0.12133 0.64964,-0.10583 0.44155,0.0286 0.59191,0.49874 0.60401,1.88829 0.008,0.89904 0.21068,0.83514 -2.58833,0.81534 -1.90825,-0.0135 -2.58657,0.0112 -3.10522,0.11286 -0.36499,0.0716 -0.91744,0.13076 -1.22767,0.1316 -0.31022,8.1e-4 -0.82692,0.0571 -1.1482,0.12523 -0.32129,0.0681 -0.94994,0.1854 -1.397,0.2607 -0.44707,0.0753 -1.02087,0.19037 -1.27514,0.25577 -0.25426,0.0653 -0.64062,0.11883 -0.85858,0.11883 -0.21797,0 -0.56238,0.0754 -0.76538,0.16748 z m -35.33657,-0.2312 c -0.0467,0.35782 -0.2687,0.65565 -0.39472,0.52963 -0.0199,-0.0199 -0.47256,-0.0763 -1.00597,-0.12526 -2.96378,-0.27236 -5.136072,-0.89246 -5.918103,-1.6894 -0.212146,-0.21619 -0.585745,-0.55716 -0.83022,-0.75771 -0.4445,-0.36464 -0.4445,-0.36464 -0.4445,-1.31631 0,-1.14093 0.0053,-1.14878 0.490785,-0.72147 0.246498,0.21698 0.55241,0.38514 0.856501,0.47094 0.260176,0.0734 0.727609,0.28233 1.038742,0.46435 1.127785,0.65979 2.281965,0.97181 4.048635,1.09453 2.52813,0.17561 2.69338,0.2573 2.37567,1.1744 -0.0904,0.2609 -0.18792,0.65523 -0.21682,0.8763 z m 21.00321,3.3856 v -2e-5 c -0.12538,0.0863 -0.35206,0.0696 -0.89472,-0.0658 -0.25612,-0.0639 -0.63194,-0.1178 -0.83515,-0.1198 -0.35417,-0.003 -2.76091,-0.38267 -2.99242,-0.47147 -0.1048,-0.0402 -0.41471,-0.0923 -2.43777,-0.40958 -1.66428,-0.26103 -2.67771,-0.39353 -3.00566,-0.39285 -0.18627,3.6e-4 -0.66252,-0.0541 -1.05834,-0.121 -1.54154,-0.26058 -2.53952,-0.39193 -3.556,-0.46813 -1.40116,-0.10499 -2.64437,-0.24127 -3.21733,-0.35268 -0.25612,-0.0498 -0.78155,-0.1188 -1.16762,-0.1534 -0.9133,-0.0818 -0.92866,-0.10017 -0.75433,-0.90352 0.28115,-1.29563 0.22346,-1.25693 1.92195,-1.28563 1.72425,-0.0291 3.31797,0.0783 4.572,0.30813 1.33653,0.24495 2.16179,0.3645 3.00567,0.4356 0.67577,0.0569 1.46351,0.1858 3.89466,0.63729 0.47916,0.089 1.27203,0.12576 2.7099,0.12572 1.13406,0 2.1633,0.0382 2.32833,0.0864 0.16268,0.0476 0.61474,0.11946 1.00459,0.15986 0.43664,0.0452 0.73687,0.11769 0.78187,0.18869 0.17873,0.28211 -0.0741,2.64702 -0.29963,2.80219 z m 28.31597,-0.1106 v -4e-5 c -1.10662,0.40028 -1.04897,0.44603 -0.97997,-0.77711 0.1188,-2.10712 0.20127,-2.34961 0.79914,-2.34935 0.2155,8e-5 0.92521,-0.0928 1.57714,-0.20642 1.65965,-0.28922 2.98145,-0.47157 3.429,-0.47357 0.20955,-8e-4 0.5334,-0.0379 0.71967,-0.0824 0.18626,-0.0445 0.8913,-0.13738 1.56674,-0.20638 0.67543,-0.069 1.55173,-0.21767 1.94733,-0.33037 0.3956,-0.1127 0.87035,-0.23173 1.055,-0.26453 0.18466,-0.0328 0.44621,-0.11677 0.58123,-0.18657 0.34787,-0.17989 0.43337,-0.0495 0.26477,0.40373 -0.0763,0.205 -0.17779,0.52513 -0.22559,0.7114 -0.12365,0.48163 -0.18269,0.57935 -0.42065,0.69634 -0.32108,0.15786 -1.9124,0.44615 -2.46433,0.4464 -0.26923,1.5e-4 -0.71853,0.0774 -0.99844,0.17171 -0.27992,0.0943 -0.68829,0.19352 -0.9075,0.22042 -0.65868,0.0809 -1.54129,0.36846 -2.30356,0.7504 -0.69706,0.34926 -1.62473,0.74368 -2.49767,1.06194 -0.23283,0.0849 -0.74687,0.27136 -1.14231,0.4144 z m -2.1384,0.57756 c -0.1427,0.17903 -18.42111,0.0706 -21.86529,-0.12975 -3.06319,-0.17816 -3.2633,-0.24331 -3.08169,-1.00338 0.0541,-0.22662 0.12194,-0.79304 0.15074,-1.25871 0.0523,-0.84665 0.0523,-0.84665 0.39095,-0.83255 0.18627,0.008 0.91017,0.0384 1.60867,0.0682 1.14925,0.049 2.79562,0.25378 4.7958,0.59657 1.24117,0.21275 5.76019,0.17863 6.41621,-0.0484 0.2763,-0.0956 0.76223,-0.20691 1.07984,-0.24731 0.61947,-0.0788 2.43524,-0.40058 2.66252,-0.47178 0.34226,-0.10728 1.68843,-0.28993 2.14829,-0.29093 0.2794,-8.2e-4 0.80663,-0.0586 1.17162,-0.12848 1.1409,-0.21831 4.56342,-0.13956 4.81361,0.11076 0.0322,0.0322 0.0222,0.40149 -0.0223,0.82059 -0.0444,0.4191 -0.10424,1.20015 -0.13274,1.73567 -0.0285,0.53551 -0.0898,1.0213 -0.13623,1.0795 z m -19.74862,5.4344 4e-5,-4e-5 c 2.91028,0.13339 3.25708,0.0854 5.75733,-0.79697 3.44791,-1.2168 4.26812,-1.36214 9.3382,-1.65471 1.11959,-0.0646 1.49451,-0.11999 1.98967,-0.29389 0.33557,-0.11785 1.16258,-0.2924 1.8378,-0.388 0.88796,-0.12566 1.49709,-0.26853 2.20133,-0.51633 0.79463,-0.2796 1.14492,-0.35515 1.905,-0.41075 2.2122,-0.16187 3.2574,-0.26346 3.85233,-0.37441 0.34925,-0.0651 0.86138,-0.14164 1.13807,-0.16994 0.72721,-0.0745 2.86199,-0.61242 3.42128,-0.86211 0.45006,-0.20093 1.29252,-0.53075 2.25632,-0.88334 0.23283,-0.0852 0.74718,-0.28951 1.143,-0.45407 0.60956,-0.25342 0.81946,-0.29962 1.37185,-0.30062 1.30105,-0.003 1.35943,-0.10745 1.44173,-2.58376 0.034,-1.02447 0.0849,-2.33115 0.11302,-2.90374 0.0606,-1.23381 -0.018,-1.4566 -0.5136,-1.4566 -0.56855,0 -0.58895,0.1013 -0.62045,3.08573 -0.0315,2.97906 0.0171,2.80498 -0.79891,2.86068 -0.4781,0.0327 -0.85434,0.13874 -1.71331,0.48303 -0.60536,0.24265 -1.29116,0.5131 -1.524,0.601 -0.23283,0.0879 -0.76623,0.29693 -1.18533,0.4645 -0.84225,0.33675 -2.76411,0.85477 -3.45264,0.93057 -0.24311,0.0268 -0.76588,0.10174 -1.16169,0.16664 -3.01791,0.49469 -4.79883,0.48261 -3.38019,-0.0229 0.80683,-0.2875 1.9262,-0.76722 2.40652,-1.03135 0.56502,-0.3107 1.58483,-0.6507 2.159,-0.7199 0.25612,-0.0308 0.69427,-0.12646 0.97367,-0.21236 0.2794,-0.086 0.79375,-0.1755 1.143,-0.1989 1.65759,-0.11123 3.01939,-0.55508 3.16334,-1.03102 0.0421,-0.13934 0.20078,-0.53909 0.35252,-0.88834 0.39802,-0.91607 0.47893,-1.53249 0.55543,-4.23334 0.10412,-3.67347 0.14472,-4.64476 0.19772,-4.73056 0.0267,-0.0432 0.12442,-0.78595 0.21712,-1.65055 0.0927,-0.8646 0.20668,-1.74189 0.25318,-1.94953 0.0975,-0.43509 0.1268,-4.78183 0.0494,-7.33269 -0.10104,-3.33096 -0.12146,-3.62852 -0.26854,-3.91296 -0.0769,-0.14871 -0.15891,-0.51976 -0.18231,-0.82455 -0.0511,-0.66648 -0.20334,-0.99886 -0.49052,-1.07096 -0.38339,-0.0962 -0.57244,0.17411 -0.52104,0.74501 0.0739,0.82017 0.30508,0.76987 -3.332,0.72417 -2.32366,-0.0292 -3.40655,-0.0764 -4.05834,-0.17672 -0.48895,-0.0753 -1.1557,-0.16625 -1.48167,-0.20225 -0.59264,-0.0654 -0.59264,-0.0654 -0.56804,-0.51948 0.0574,-1.05875 -0.85192,-1.17425 -1.04726,-0.13302 -0.0782,0.41674 -0.18176,0.46784 -0.76133,0.37594 -0.49529,-0.0786 -1.78154,-0.18776 -4.0157,-0.34089 -0.62865,-0.0431 -1.54305,-0.13439 -2.032,-0.20279 -0.48895,-0.0685 -1.44145,-0.18795 -2.11667,-0.26555 -0.67522,-0.0776 -1.60867,-0.21081 -2.07433,-0.29611 -0.83411,-0.15273 -1.62701,-0.2731 -2.62467,-0.39846 -0.50803,-0.0638 -0.50803,-0.0638 -0.48163,-0.44777 0.052,-0.75676 -0.55871,-0.89714 -0.9925,-0.22814 -0.19892,0.30674 -0.21511,0.31384 -0.635,0.27674 -0.23698,-0.0209 -0.94522,-0.0787 -1.57387,-0.12816 -0.62865,-0.0496 -1.68248,-0.14917 -2.34185,-0.22147 -0.65937,-0.0723 -1.70712,-0.16325 -2.32833,-0.20215 -0.62122,-0.0389 -1.54859,-0.11305 -2.06082,-0.16465 -0.51223,-0.0516 -1.31233,-0.13159 -1.778,-0.17769 -0.46567,-0.0461 -1.79917,-0.10602 -2.96333,-0.13322 -1.4753,-0.0344 -2.28343,-0.0894 -2.667,-0.18161 -0.35498,-0.0853 -1.00117,-0.13655 -1.82034,-0.14455 -1.20972,-0.0117 -2.75219,-0.0992 -3.14709,-0.17837 -0.12052,-0.0242 -0.20247,-0.12227 -0.23827,-0.28508 -0.10569,-0.4812 -0.6567,-0.59394 -0.86365,-0.1767 -0.21608,0.43567 -0.0916,0.42477 -4.86297,0.42477 -5.60243,0 -6.10762,0.0519 -10.3051,1.05908 -1.82699,0.43835 -1.87659,0.43778 -1.87659,-0.0216 0,-0.98281 -0.77799,-0.94306 -0.97589,0.0499 -0.0733,0.36759 -0.14317,0.50341 -0.300617,0.58401 -0.313867,0.16069 -1.48769,0.58217 -2.175764,0.78125 -1.302883,0.37696 -1.224064,-0.20414 -1.074118,7.91905 0.03763,2.03839 0.02488,3.35649 -0.0385,3.97933 -0.197088,1.9369 -0.271382,2.73957 -0.344802,3.72534 -0.04162,0.5588 -0.115487,1.3589 -0.164137,1.778 -0.09812,0.84522 -0.245606,3.13211 -0.343996,5.334 -0.07423,1.66125 -0.07474,1.65953 0.621723,2.10505 0.248806,0.15916 0.612151,0.47887 0.807433,0.71046 0.845082,1.00222 3.468078,1.77569 7.121338,2.09993 0.69975,0.0621 0.84667,0.13456 0.84667,0.41751 0,0.61159 0.59383,0.78734 0.92547,0.27389 0.27613,-0.42751 0.40075,-0.44457 1.71396,-0.23457 0.62053,0.0992 1.54733,0.2165 2.05957,0.2607 1.99015,0.17158 2.82085,0.25972 3.51366,0.37278 0.87742,0.14319 2.37526,0.34497 3.51367,0.47334 1.43804,0.16216 2.67552,0.32787 2.84125,0.38047 0.0871,0.0276 0.47399,0.10167 0.85985,0.16457 0.38586,0.0629 1.42547,0.23287 2.31024,0.37776 0.88476,0.1449 1.98966,0.31971 2.45533,0.38851 0.7974,0.1178 0.86145,0.14234 1.10067,0.42184 0.32837,0.38369 0.55195,0.37982 0.86869,-0.015 0.25012,-0.31179 0.25012,-0.31179 1.46871,-0.15955 1.39242,0.17395 7.27107,0.29618 17.07243,0.35488 3.14376,0.0188 5.69383,0.0671 5.69383,0.10774 0,0.0953 -0.30219,0.17467 -0.67733,0.17867 -0.16298,0.002 -0.56303,0.0984 -0.889,0.21507 -0.73637,0.26355 -1.40439,0.36184 -3.13267,0.46074 -3.26332,0.18681 -5.24934,0.46773 -6.604,0.93412 -0.51223,0.17636 -1.17898,0.40383 -1.48166,0.50548 -0.30269,0.10166 -0.87419,0.30003 -1.27,0.44083 -1.23549,0.43948 -2.49122,0.67806 -3.0374,0.5771 -0.25577,-0.0473 -0.84856,-0.0876 -1.31732,-0.0886 -1.76569,-0.005 -2.82927,-0.13384 -3.50901,-0.42383 -0.41707,-0.17794 -1.02216,-0.33293 -1.82034,-0.46628 -0.65758,-0.10986 -1.5004,-0.25857 -1.87293,-0.33037 -1.17477,-0.22653 -3.30276,-0.55518 -3.60463,-0.55618 -0.51676,-0.002 -1.29803,-0.23478 -1.79587,-0.53457 -0.5062,-0.30482 -0.54649,-0.31321 -3.15084,-0.65621 -0.4191,-0.0552 -0.93345,-0.15425 -1.143,-0.22005 -0.36548,-0.11482 -1.10559,-0.17065 -4.74133,-0.3577 -2.19839,-0.11311 -2.54877,-0.15356 -3.34434,-0.38613 -0.37253,-0.1089 -1.14897,-0.24027 -1.72541,-0.29197 -1.07835,-0.0967 -2.65236,-0.45253 -4.34486,-0.98226 -0.49808,-0.1559 -1.08863,-0.30931 -1.31233,-0.34101 -0.2237,-0.0317 -0.749626,-0.14436 -1.168726,-0.25046 -0.4191,-0.10609 -0.97155,-0.21842 -1.227666,-0.24962 -0.960191,-0.11697 -2.262773,-0.41257 -3.086042,-0.70031 -0.468027,-0.16359 -1.193859,-0.38264 -1.612959,-0.4868 -0.762005,-0.18936 -0.762005,-0.18936 -0.738915,-1.19668 0.01362,-0.59448 0.09258,-1.33695 0.192643,-1.81165 0.667748,-3.16764 0.675316,-3.59954 0.06204,-3.54034 -0.350919,0.0339 -0.431338,0.19743 -0.661402,1.34541 -0.09728,0.48543 -0.25402,1.2255 -0.34831,1.6446 -0.186439,0.82873 -0.38787,3.34185 -0.29691,3.70428 0.11229,0.4474 0.391611,0.6575 0.986517,0.7421 0.302683,0.043 1.143376,0.2689 1.868205,0.50192 1.210443,0.38913 2.43566,0.67074 3.508129,0.80632 0.232833,0.0294 0.785283,0.14304 1.227666,0.25245 0.442384,0.10941 0.98565,0.22417 1.20726,0.25507 0.2216,0.0309 0.6788,0.15221 1.016,0.26965 1.1741,0.40891 3.5549,0.94658 4.62933,1.04538 0.57208,0.0526 1.27406,0.17198 1.55995,0.26518 0.63523,0.20712 1.47651,0.28704 4.75313,0.45154 2.42696,0.12184 2.78291,0.15853 3.556,0.36661 0.18626,0.0502 0.56726,0.11557 0.84666,0.14547 1.84434,0.19719 2.37243,0.30941 3.175,0.67466 0.77179,0.35124 1.31097,0.4847 2.41301,0.59729 0.62001,0.0633 3.6082,0.54379 3.6877,0.59299 0.0314,0.0194 0.54191,0.11313 1.1344,0.20813 0.62708,0.1006 1.40141,0.29219 1.85291,0.45847 0.83513,0.30755 1.27656,0.36683 3.48499,0.46806 z m 36.83,13.07815 c -0.73622,0.44083 -0.97988,0.33969 -1.67412,-0.69492 -0.31442,-0.46859 -0.50561,-0.66254 -0.78863,-0.80004 -0.46692,-0.22685 -0.46674,-0.22851 0.0699,-0.65579 0.24391,-0.19421 0.58527,-0.55298 0.75858,-0.79728 0.1733,-0.2443 0.5274,-0.58513 0.78687,-0.75742 0.25948,-0.17228 0.5686,-0.45492 0.68694,-0.62809 0.63374,-0.92742 1.06914,-1.72916 1.29262,-2.38022 0.13755,-0.40074 0.38916,-1.05248 0.55913,-1.44829 0.16997,-0.39582 0.42403,-1.00468 0.56458,-1.35302 0.14056,-0.34835 0.59088,-1.2056 1.00073,-1.905 0.40985,-0.69941 0.86863,-1.5193 1.01953,-1.82198 0.15089,-0.30269 0.41927,-0.79799 0.59639,-1.10067 0.17713,-0.30268 0.40659,-0.83608 0.50991,-1.18533 0.10332,-0.34925 0.31841,-0.89669 0.47799,-1.21652 0.15957,-0.31984 0.43563,-0.98659 0.61346,-1.48167 0.35697,-0.99378 0.91924,-2.19051 1.69587,-3.60948 0.67332,-1.23021 0.87919,-1.67458 1.31405,-2.83633 0.20046,-0.53552 0.48499,-1.24037 0.63231,-1.56634 0.24886,-0.55064 0.50004,-1.21551 0.97558,-2.58233 0.10531,-0.30268 0.36886,-0.94438 0.58567,-1.426 0.54698,-1.21504 1.02388,-2.4915 1.22627,-3.28217 0.24426,-0.95425 0.47531,-1.59158 0.75901,-2.09358 0.13591,-0.24049 0.27337,-0.5706 0.30557,-0.73358 0.0322,-0.16299 0.30065,-0.79164 0.59666,-1.397 0.29599,-0.60537 0.73408,-1.69122 0.97353,-2.413 0.41491,-1.25072 0.57394,-1.58305 1.45849,-3.048 1.00366,-1.66221 1.37621,-2.35233 1.79862,-3.33181 0.25137,-0.58288 0.56,-1.22288 0.68583,-1.42221 0.12583,-0.19933 0.34042,-0.6683 0.47685,-1.04215 0.13644,-0.37385 0.39415,-0.89373 0.57269,-1.15529 0.17854,-0.26155 0.42286,-0.66185 0.54292,-0.88955 0.23795,-0.45121 0.70482,-1.19475 1.35856,-2.16363 0.23047,-0.34157 0.58345,-0.86868 0.78441,-1.17136 0.20095,-0.30269 0.60293,-0.82926 0.8933,-1.17017 0.29036,-0.34091 0.7418,-0.96956 1.0032,-1.397 0.44302,-0.72444 0.51416,-0.79795 1.04859,-1.08351 0.54743,-0.2925 1.90514,-1.38367 1.90514,-1.53113 0,-0.0386 0.58526,-0.65064 1.30057,-1.36004 1.45911,-1.44704 1.68014,-1.77638 1.61254,-2.40257 -0.0521,-0.48259 -0.0243,-0.54028 0.92545,-1.92393 1.45923,-2.12577 2.90906,-3.13506 3.56346,-2.48067 0.46386,0.46387 0.11011,1.92321 -0.67939,2.80275 -0.2116,0.23573 -0.72234,0.8858 -1.13497,1.4446 -0.83334,1.12853 -1.7725,2.11349 -2.40656,2.52392 -0.59252,0.38353 -0.7098,0.58598 -0.8532,1.47267 -0.0693,0.42859 -0.1985,0.98104 -0.287,1.22767 -0.0885,0.24662 -0.18343,0.57449 -0.21083,0.7286 -0.0588,0.33076 -0.55612,1.2052 -0.92304,1.62309 -0.30608,0.3486 -0.90121,1.57874 -1.16823,2.41472 -0.10411,0.32596 -0.27952,0.72952 -0.38979,0.89679 -0.11027,0.16727 -0.46502,0.90672 -0.78834,1.64321 -0.32333,0.73649 -0.68755,1.4897 -0.80938,1.67381 -0.12184,0.1841 -0.39155,0.84618 -0.59938,1.47128 -0.35011,1.0531 -0.74929,1.93714 -1.75295,3.88224 -0.21625,0.4191 -0.60798,1.2192 -0.87051,1.778 -0.26253,0.5588 -0.78384,1.53035 -1.15847,2.159 -0.37463,0.62865 -0.83249,1.46685 -1.01747,1.86267 -0.18498,0.39581 -0.50075,0.95118 -0.7017,1.23414 -0.20096,0.28297 -0.47954,0.76891 -0.61906,1.07988 -0.13952,0.31097 -0.63569,1.13728 -1.10262,1.83625 -0.46692,0.69897 -0.93028,1.43223 -1.02968,1.62946 -0.0994,0.19723 -0.34227,0.5872 -0.53968,0.8666 -0.19742,0.2794 -0.43662,0.6604 -0.53162,0.84667 -0.095,0.18626 -0.45736,0.72742 -0.80531,1.20256 -0.44061,0.60168 -0.91761,1.43689 -1.57152,2.75167 -0.51639,1.03827 -1.14228,2.21162 -1.39087,2.60743 -0.2486,0.39582 -0.69322,1.17687 -0.98804,1.73567 -0.29483,0.5588 -0.64644,1.19252 -0.78137,1.40826 -0.13491,0.21574 -0.36209,0.76819 -0.50482,1.22766 -0.29884,0.96199 -0.56831,1.61374 -1.25558,3.03675 -0.26987,0.5588 -0.5381,1.1684 -0.5961,1.35466 -0.20224,0.64971 -0.7933,2.03504 -1.03925,2.43579 -0.1363,0.22208 -0.43392,0.84391 -0.66139,1.38183 -0.22747,0.53793 -0.48645,1.08035 -0.57545,1.20538 -0.089,0.12503 -0.29287,0.49381 -0.45297,0.8195 -0.32594,0.66305 -0.82257,1.60477 -1.116,2.11617 -0.62475,1.08883 -1.69802,3.15304 -1.83746,3.53399 -0.0897,0.24494 -0.27454,0.67394 -0.41084,0.95334 -0.1363,0.27941 -0.42756,0.8977 -0.64723,1.37398 -0.44102,0.95618 -0.52482,1.05562 -1.26095,1.49641 z m -0.93464,1.27198 c 0.43792,0.15054 0.6089,0.0978 1.5907,-0.49053 0.96789,-0.58002 1.1756,-0.83846 1.67032,-2.07818 0.14097,-0.35328 0.37078,-0.87092 0.51071,-1.15032 0.13991,-0.2794 0.31258,-0.67945 0.38368,-0.889 0.0711,-0.20955 0.47091,-1.01534 0.88843,-1.79064 0.41752,-0.7753 0.75913,-1.43848 0.75913,-1.47368 0,-0.0352 0.0879,-0.18193 0.19531,-0.32602 0.10743,-0.1441 0.47399,-0.81445 0.81459,-1.48966 0.3406,-0.67522 0.69284,-1.33164 0.78284,-1.45871 0.09,-0.12707 0.3287,-0.62517 0.53052,-1.10688 0.20182,-0.48171 0.57891,-1.2731 0.83798,-1.75863 0.25908,-0.48553 0.60878,-1.2789 0.77713,-1.76305 0.16834,-0.48415 0.52781,-1.3414 0.79882,-1.905 0.56421,-1.17335 1.02788,-2.32104 1.23491,-3.05673 0.12546,-0.44581 0.61176,-1.40607 1.17912,-2.32834 0.10026,-0.16298 0.23583,-0.42968 0.30123,-0.59266 0.0654,-0.16299 0.32185,-0.62019 0.56989,-1.016 0.24803,-0.39582 0.82491,-1.46262 1.28194,-2.37067 1.0239,-2.03429 1.29711,-2.51221 1.89188,-3.30938 0.25754,-0.34519 0.53492,-0.76097 0.61632,-0.92395 0.0814,-0.16299 0.35151,-0.58643 0.60018,-0.94099 0.24866,-0.35456 0.48889,-0.74145 0.53389,-0.85975 0.045,-0.1183 0.50595,-0.84995 1.02438,-1.62588 0.51843,-0.77593 1.05553,-1.66248 1.19355,-1.97011 0.13802,-0.30762 0.41583,-0.79083 0.61735,-1.07379 0.20151,-0.28297 0.47858,-0.78118 0.61568,-1.10715 0.13711,-0.32597 0.59671,-1.16519 1.02135,-1.86494 0.42463,-0.69975 0.85037,-1.47095 0.94607,-1.71377 0.0957,-0.24282 0.2644,-0.5847 0.37485,-0.75972 0.11045,-0.17503 0.22761,-0.40281 0.26041,-0.50617 0.0328,-0.10336 0.47574,-1.01572 0.98436,-2.02746 0.54311,-1.08036 1.05093,-2.22576 1.23048,-2.7754 0.16815,-0.51473 0.49592,-1.29782 0.72837,-1.74021 0.23246,-0.44238 0.57444,-1.18294 0.75994,-1.64569 0.1855,-0.46274 0.48571,-1.09139 0.66713,-1.397 0.18141,-0.3056 0.42852,-0.86044 0.54911,-1.23297 0.26916,-0.83142 0.73681,-1.77695 1.0469,-2.11667 0.20709,-0.22687 0.34154,-0.41343 0.87757,-1.21769 0.0813,-0.12191 0.14817,-0.32596 0.14817,-0.45346 2.5e-4,-0.12751 0.11077,-0.58471 0.24561,-1.016 0.13484,-0.4313 0.26847,-0.97221 0.29687,-1.20202 0.0636,-0.51398 0.21875,-0.76172 0.59937,-0.95699 0.40385,-0.20719 1.89628,-1.83202 2.69471,-2.93376 0.36361,-0.50175 0.79882,-1.03297 0.96713,-1.18051 0.90384,-0.79224 1.34658,-3.15664 0.73502,-3.9253 -1.1766,-1.47882 -3.33184,-0.58435 -5.13965,2.13306 -0.21686,0.32597 -0.54793,0.80774 -0.73572,1.0706 -0.45659,0.63914 -0.59422,0.99466 -0.59422,1.5349 0,0.57005 0.022,0.54169 -1.99121,2.56845 -1.35358,1.36269 -1.70558,1.66992 -2.23114,1.94733 -0.68625,0.36225 -0.97806,0.67063 -1.51562,1.60175 -0.18895,0.32727 -0.55443,0.83138 -0.81219,1.12026 -0.25776,0.28887 -0.80596,1.03076 -1.21824,1.64863 -0.41228,0.61788 -0.87803,1.31392 -1.03501,1.54675 -0.78432,1.16333 -0.92562,1.38732 -1.13095,1.79262 -0.12202,0.24087 -0.31499,0.57518 -0.42881,0.74291 -0.11383,0.16773 -0.31037,0.58025 -0.43678,0.91671 -0.12641,0.33647 -0.39287,0.91656 -0.59214,1.28909 -0.19927,0.37254 -0.52351,1.05834 -0.72055,1.524 -0.19703,0.46567 -0.48471,1.04543 -0.63928,1.28835 -0.15457,0.24293 -0.38209,0.64298 -0.50558,0.889 -0.1235,0.24603 -0.38462,0.69497 -0.58028,0.99765 -0.79712,1.23316 -1.05971,1.7737 -1.43955,2.96334 -0.22514,0.70509 -0.64047,1.73222 -0.97574,2.413 -0.32106,0.65193 -0.62789,1.35426 -0.68179,1.56074 -0.0539,0.20647 -0.20742,0.58035 -0.34109,0.83083 -0.13366,0.25048 -0.34305,0.7864 -0.46531,1.19092 -0.56801,1.87943 -0.92616,2.90084 -1.32244,3.77146 -0.43958,0.96574 -0.75762,1.77593 -1.16985,2.98023 -0.12843,0.37519 -0.40533,1.08004 -0.61534,1.56633 -0.21,0.48628 -0.50551,1.22705 -0.65669,1.64615 -0.25276,0.70073 -1.2013,2.61639 -1.66402,3.36061 -0.26604,0.42791 -0.89776,1.86494 -1.31413,2.98939 -0.18967,0.51224 -0.45512,1.1508 -0.58989,1.41903 -0.13476,0.26823 -0.33948,0.78673 -0.45494,1.15222 -0.11546,0.36548 -0.29828,0.79471 -0.40626,0.95383 -0.10798,0.15912 -0.34087,0.57407 -0.51752,0.92212 -0.17665,0.34804 -0.64595,1.20057 -1.04289,1.89451 -0.39692,0.69394 -0.84412,1.53214 -0.99376,1.86267 -0.65724,1.45171 -1.06582,2.4254 -1.27777,3.04501 -0.37107,1.08482 -1.04159,2.13262 -1.6856,2.63407 -0.30036,0.23387 -0.69699,0.62842 -0.88141,0.87678 -0.18442,0.24837 -0.57531,0.63733 -0.86864,0.86435 -1.25938,0.9747 -1.37243,1.78749 -0.28189,2.02673 0.23208,0.0509 0.48971,0.11318 0.57261,0.13828 0.0828,0.0251 0.31912,0.29998 0.52505,0.61073 0.38957,0.58788 0.94223,1.03661 1.52233,1.23604 z m 22.995,-16.29454 c -0.26369,0.14112 -0.3996,0.10306 -0.63621,-0.17812 -0.35366,-0.42031 -0.12698,-0.74646 0.52088,-0.74946 0.54507,-0.003 0.62668,0.65391 0.11533,0.92758 z m -0.72764,1.03289 c 1.14763,0.53504 2.66524,-1.13333 1.99784,-2.1963 -0.92337,-1.47064 -3.66652,-0.6485 -3.14173,0.9416 0.13425,0.40681 0.73234,1.06283 1.14389,1.2547 z m 1.27328,3.50391 -3e-5,1e-5 c -2.47116,0.77781 -4.5647,0.26156 -4.99737,-1.23229 -0.0337,-0.11642 -0.22802,-0.52965 -0.4318,-0.9183 -0.3705,-0.70662 -0.3705,-0.70662 -0.3705,-1.92117 0,-1.44704 0.0186,-1.46918 0.62036,-0.73707 0.25807,0.31398 0.68227,0.78012 0.94268,1.03588 0.32323,0.31744 0.50216,0.57268 0.56376,0.80433 0.22206,0.83456 1.00587,0.84454 1.00587,0.0128 0,-0.71056 -1.39074,-2.51533 -2.29283,-2.97539 -0.42044,-0.21444 -0.41603,-0.29291 0.0388,-0.6914 0.67411,-0.5906 1.60177,-0.79153 3.60873,-0.78353 2.17976,0.009 2.6752,0.32115 3.35104,2.10984 0.0792,0.20955 0.30956,0.60653 0.51197,0.88219 0.42267,0.57598 0.49667,0.86081 0.42967,1.66006 -0.11759,1.40266 -0.85665,2.08559 -2.98035,2.75404 z m -5.14987,20.86786 4e-5,-1e-5 c 0.13911,0.16535 0.29079,0.25185 0.44146,0.25185 0.55223,0 0.56692,-0.45134 0.0517,-1.59054 -0.20955,-0.46335 -0.381,-0.96137 -0.381,-1.10671 0,-0.14535 -0.0751,-0.46181 -0.16679,-0.70324 -0.0917,-0.24143 -0.19237,-0.67046 -0.22367,-0.95341 -0.0788,-0.71252 -0.33525,-1.23495 -1.04231,-2.1231 -0.6066,-0.762 -0.6066,-0.762 -0.5749,-4.826 0.0364,-4.6649 0.002,-4.4086 0.59464,-4.4091 0.34168,-3.1e-4 0.62761,-0.0866 1.28603,-0.38821 1.08708,-0.49794 1.23282,-0.54984 1.95623,-0.69669 0.65525,-0.13301 1.74577,-0.6423 2.26794,-1.05918 0.55903,-0.44629 1.41232,-0.62797 1.8295,-0.38949 0.75543,0.43184 1.42252,-0.23992 0.74083,-0.746 -0.80589,-0.59829 -2.10659,-0.47393 -3.17248,0.30331 -0.61379,0.44758 -1.35955,0.78743 -1.97102,0.89822 -0.56226,0.10187 -0.85375,0.20906 -2.11666,0.77837 -1.32923,0.5992 -1.39808,0.55463 -0.89764,-0.58102 0.15824,-0.35908 0.33453,-0.7772 0.39173,-0.92914 0.0572,-0.15195 0.28703,-0.42949 0.51071,-0.61676 0.22367,-0.18727 0.51412,-0.51056 0.64544,-0.71842 0.27418,-0.43399 0.32879,-0.44663 0.81363,-0.18829 0.64395,0.34313 3.01012,0.33158 4.2429,-0.0207 2.85251,-0.81516 3.86049,-1.89974 3.86049,-4.15443 7e-5,-1.14888 7e-5,-1.14888 -0.3476,-1.60867 -0.19121,-0.25289 -0.51463,-0.81605 -0.7187,-1.25147 -1.0412,-2.22156 -1.2267,-2.3294 -4.19342,-2.43784 -2.82406,-0.10322 -4.31415,0.5018 -5.20803,2.1146 -0.24251,0.43758 -0.24251,0.43758 -0.24251,2.13092 0,1.86505 -0.0516,1.62505 0.61939,2.87866 0.73722,1.37725 0.7089,1.69069 -0.22383,2.47718 -0.42636,0.3595 -0.48998,0.46743 -1.12266,1.90423 -0.1589,0.36084 -0.34022,0.65612 -0.40292,0.65617 -0.77412,6.3e-4 -2.88801,-3.67085 -3.22685,-5.60451 -0.0954,-0.54464 -0.20912,-1.08388 -0.25262,-1.1983 -0.0435,-0.11442 -0.1205,-0.44985 -0.1712,-0.7454 -0.27999,-1.6335 -0.9385,-2.48882 -1.34992,-1.75338 -0.1137,0.20321 -0.10552,0.29087 0.0908,0.97366 0.28498,0.99108 0.64097,2.51177 0.70707,3.02021 0.10044,0.77272 0.30311,1.36473 0.74284,2.16993 0.24267,0.44434 0.50465,0.98662 0.58225,1.20507 0.31984,0.90076 1.73245,2.53872 2.65806,3.08211 0.11414,0.067 0.15044,0.17847 0.13764,0.42333 -0.01,0.18281 -0.0455,2.16117 -0.08,4.39637 -0.0692,4.48234 -0.0141,4.19905 -1.0901,5.60867 -0.16385,0.21464 -0.42843,0.64947 -0.58799,0.96629 -0.15954,0.31682 -0.46143,0.83153 -0.67086,1.1438 -0.20942,0.31226 -0.38077,0.59951 -0.38077,0.63841 0,0.0388 -0.15409,0.38745 -0.34242,0.77465 -0.42758,0.87909 -0.47626,1.35235 -0.16353,1.58997 0.41827,0.31783 1.01347,-0.1208 1.01447,-0.74808 2.8e-4,-0.13038 0.0614,-0.35134 0.13575,-0.49104 0.0744,-0.1397 0.18647,-0.39605 0.24907,-0.56966 0.0626,-0.17361 0.26138,-0.53556 0.44169,-0.80433 0.18032,-0.26877 0.48043,-0.77443 0.66694,-1.12368 0.41225,-0.772 1.05224,-1.68277 1.187,-1.68877 0.37242,-0.0172 1.09998,1.25904 1.2102,2.12291 0.0438,0.34331 0.1387,0.79091 0.2109,0.99467 0.0722,0.20377 0.13126,0.49368 0.13126,0.64426 0,0.15057 0.10885,0.47915 0.2419,0.73018 0.13303,0.25103 0.28873,0.60026 0.34593,0.77607 0.0572,0.17581 0.19942,0.43298 0.31597,0.5715 z m -57.7998,0.50585 -3e-5,-5e-5 c 0.28664,0.28664 0.59823,0.15797 0.9343,-0.38581 0.10756,-0.17402 0.38002,-0.41065 0.64508,-0.56024 0.90809,-0.5125 2.16536,-1.56948 2.68004,-2.25311 0.69862,-0.92794 0.76818,-0.89686 0.82058,0.3669 0.0457,1.10095 0.14841,1.39453 0.5523,1.57857 0.41082,0.18717 0.66228,-0.25312 0.52915,-0.92648 -0.15358,-0.77671 -0.0577,-0.77967 0.71629,-0.0221 0.54072,0.52922 0.80761,0.72392 1.17696,0.85859 0.29093,0.10608 0.60395,0.30349 0.80067,0.50495 0.37778,0.38689 0.71145,0.43868 0.91883,0.14261 0.33453,-0.47761 -0.0537,-1.01439 -1.09092,-1.50846 -0.69227,-0.32974 -0.88811,-0.50049 -2.2154,-1.93161 -0.27439,-0.29584 -0.61318,-0.59638 -0.75288,-0.66798 -0.1397,-0.0715 -0.282,-0.17239 -0.3162,-0.22409 -0.12346,-0.1866 -0.0685,-6.06126 0.0622,-6.65569 0.0851,-0.38691 0.1232,-1.16634 0.1292,-2.62467 0.0105,-2.66904 0.24168,-7.79024 0.38428,-8.51218 0.0772,-0.3909 -0.19945,-0.69994 -0.52579,-0.58734 -0.49336,0.17024 -0.56782,0.50953 -0.64062,2.91885 -0.0359,1.18745 -0.10407,2.52095 -0.15147,2.96334 -0.0474,0.44238 -0.0874,1.79493 -0.0884,3.00566 -0.002,1.6255 -0.0343,2.33422 -0.12486,2.70934 -0.0958,0.39671 -0.12299,1.20587 -0.12399,3.69354 -0.001,3.18555 -0.001,3.18555 -0.62197,4.00067 -0.64443,0.84635 -1.73963,1.80871 -2.51369,2.20877 -0.94039,0.48603 -1.57794,1.51374 -1.18366,1.90802 z"
       style="fill:#fdfdfd;stroke-width:0.08466667;fill-opacity:1" />
  </g>
</svg>
