<?xml version="1.0" encoding="UTF-8" standalone="no"?>
<svg
   xmlns:dc="http://purl.org/dc/elements/1.1/"
   xmlns:cc="http://creativecommons.org/ns#"
   xmlns:rdf="http://www.w3.org/1999/02/22-rdf-syntax-ns#"
   xmlns:svg="http://www.w3.org/2000/svg"
   xmlns="http://www.w3.org/2000/svg"
   id="svg8"
   version="1.1"
   viewBox="0 0 82.67955 76.105927"
   height="76.105927mm"
   width="82.67955mm">
  <defs
     id="defs2" />
  <metadata
     id="metadata5">
    <rdf:RDF>
      <cc:Work
         rdf:about="">
        <dc:format>image/svg+xml</dc:format>
        <dc:type
           rdf:resource="http://purl.org/dc/dcmitype/StillImage" />
        <dc:title></dc:title>
      </cc:Work>
    </rdf:RDF>
  </metadata>
  <g
     transform="translate(-55.757191,-98.481888)"
     id="layer1">
    <path
       d="m 168.71265,94.799023 c 0.004,-0.01584 -0.0163,0.02892 -0.0196,0.04496 -0.006,0.03015 -0.0125,0.06016 -0.0186,0.09043 0.0137,-0.04494 0.0263,-0.09001 0.0382,-0.135392 z m -6.08542,8.916767 c -0.132,0.0933 -0.26818,0.18099 -0.40308,0.26355 -0.0381,0.058 0.0161,-0.0465 -0.14831,0.21808 0.22558,-0.18268 0.422,-0.35315 0.55139,-0.48163 z m -0.70538,0.43253 c -0.0478,0.0222 -0.096,0.0445 -0.14211,0.0698 -0.0394,0.0216 0.0887,-0.026 0.12402,-0.0538 0.006,-0.005 0.0118,-0.011 0.0181,-0.016 z m -78.190062,7.25589 c -0.02787,-0.002 -0.05606,-0.002 -0.08372,0.002 -0.132745,0.0159 -0.258808,0.0978 -0.336413,0.25425 -0.216081,0.43567 -0.09133,0.42478 -4.862752,0.42478 -5.602423,0 -6.107832,0.0522 -10.305314,1.05937 -1.826946,0.43834 -1.876371,0.43766 -1.876371,-0.0217 0,-0.9828 -0.777753,-0.94282 -0.975651,0.0501 -0.07326,0.3676 -0.143309,0.50334 -0.300757,0.58394 -0.313867,0.16068 -1.488021,0.58228 -2.176095,0.78135 -1.302883,0.37696 -1.223782,-0.20431 -1.073836,7.9189 0.03763,2.03839 0.02462,3.35624 -0.03876,3.97908 -0.197088,1.9369 -0.271265,2.7396 -0.344682,3.72536 -0.04162,0.5588 -0.115164,1.35908 -0.163814,1.77818 -0.09812,0.84523 -0.245775,3.13216 -0.344165,5.33404 -0.07423,1.66126 -0.0748,1.65929 0.621667,2.10478 0.248806,0.15916 0.611904,0.47895 0.807186,0.71055 0.845082,1.00221 3.468273,1.77589 7.121529,2.10013 0.699749,0.0621 0.84646,0.1346 0.84646,0.41755 0,0.6116 0.59389,0.78732 0.925525,0.27389 0.276127,-0.42752 0.400889,-0.44461 1.714107,-0.23462 0.620527,0.0992 1.547589,0.21625 2.059823,0.26045 1.990151,0.17158 2.82067,0.26004 3.51348,0.37311 0.877412,0.14319 2.375074,0.34498 3.513481,0.47335 1.438035,0.16215 2.675442,0.32774 2.841169,0.38034 0.08706,0.0276 0.474033,0.10143 0.859896,0.16433 0.385863,0.0629 1.425686,0.23287 2.310455,0.37776 0.884767,0.14489 1.989479,0.3198 2.455146,0.38861 0.797398,0.11779 0.861488,0.14269 1.100709,0.42219 0.328379,0.38369 0.551942,0.37975 0.86868,-0.015 0.250121,-0.31178 0.250052,-0.31192 1.468643,-0.15969 1.392412,0.17396 7.271506,0.29632 17.072856,0.35502 3.14376,0.0188 5.69371,0.0669 5.69371,0.10749 0,0.0953 -0.30234,0.1748 -0.67748,0.1788 -0.16298,0.002 -0.56286,0.0983 -0.88883,0.21497 -0.73637,0.26356 -1.40435,0.36206 -3.13263,0.46096 -3.26332,0.18681 -5.24958,0.4674 -6.60424,0.93379 -0.51223,0.17636 -1.17889,0.40374 -1.48157,0.5054 -0.30269,0.10166 -0.87439,0.30001 -1.27021,0.4408 -1.23546,0.43949 -2.49084,0.67819 -3.037016,0.57722 -0.25577,-0.0472 -0.848992,-0.0874 -1.317749,-0.0884 -1.765691,-0.005 -2.829084,-0.13374 -3.50883,-0.42374 -0.417065,-0.17793 -1.021863,-0.33329 -1.820042,-0.46664 -0.657582,-0.10987 -1.500738,-0.25841 -1.873271,-0.33021 -1.174766,-0.22654 -3.302566,-0.55504 -3.604432,-0.55604 -0.516769,-0.002 -1.297914,-0.23507 -1.795756,-0.53485 -0.506199,-0.30482 -0.546881,-0.31277 -3.151229,-0.65578 -0.4191,-0.0552 -0.933016,-0.15434 -1.142566,-0.22014 -0.365482,-0.11482 -1.10609,-0.17105 -4.741829,-0.35812 -2.198392,-0.11309 -2.548411,-0.15345 -3.343982,-0.38602 -0.372533,-0.1089 -1.149032,-0.24027 -1.725476,-0.29197 -1.078351,-0.0967 -2.652455,-0.45263 -4.344955,-0.98237 -0.498082,-0.15589 -1.088363,-0.30885 -1.312064,-0.34055 -0.223699,-0.0317 -0.749821,-0.14454 -1.168921,-0.25063 -0.4191,-0.10609 -0.971716,-0.21839 -1.227832,-0.24959 -0.960191,-0.11697 -2.262847,-0.41247 -3.086116,-0.70022 -0.468027,-0.16358 -1.193722,-0.38264 -1.612822,-0.48679 -0.762005,-0.18937 -0.762063,-0.18952 -0.738973,-1.19683 0.01362,-0.59449 0.09269,-1.33708 0.192753,-1.81177 0.667748,-3.16764 0.675288,-3.59956 0.06201,-3.54035 -0.350919,0.0338 -0.431394,0.19767 -0.661458,1.34565 -0.09728,0.48543 -0.25401,1.22524 -0.3483,1.64434 -0.186438,0.82872 -0.387592,3.34174 -0.296622,3.70417 0.11229,0.44741 0.391597,0.65799 0.986503,0.74259 0.302683,0.043 1.143274,0.26877 1.868103,0.50178 1.210443,0.38913 2.435844,0.67056 3.508313,0.80615 0.232833,0.0294 0.784932,0.14328 1.227315,0.2527 0.442382,0.10941 0.985553,0.22386 1.207162,0.25476 0.221605,0.0309 0.678766,0.15231 1.015958,0.26975 1.174102,0.40891 3.555263,0.94662 4.629692,1.04542 0.572081,0.0526 1.273705,0.1719 1.559594,0.2651 0.635233,0.20713 1.476581,0.28716 4.753198,0.45165 2.42696,0.12184 2.783289,0.15831 3.556372,0.36639 0.186268,0.0502 0.56706,0.11582 0.84646,0.14572 1.844335,0.19719 2.37243,0.30912 3.175001,0.67438 0.771787,0.35124 1.310738,0.4848 2.412772,0.59738 0.620014,0.0633 3.608626,0.54414 3.688146,0.59325 0.03143,0.0194 0.541804,0.11263 1.134298,0.20774 0.627073,0.1006 1.401096,0.29261 1.8526,0.45888 0.835133,0.30755 1.276627,0.36645 3.485059,0.46767 2.910282,0.1334 3.257042,0.0855 5.757272,-0.79685 3.44792,-1.21679 4.26837,-1.3621 9.33845,-1.65468 1.11959,-0.0646 1.49438,-0.12013 1.98954,-0.29403 0.33557,-0.11787 1.16291,-0.2925 1.83813,-0.38809 0.88796,-0.12566 1.49666,-0.26845 2.2009,-0.51625 0.79463,-0.27961 1.14523,-0.35523 1.90531,-0.41083 2.21218,-0.16188 3.25754,-0.26319 3.85248,-0.37414 0.34925,-0.0651 0.86122,-0.14171 1.13791,-0.17001 0.72721,-0.0745 2.8617,-0.61228 3.42098,-0.86197 0.45006,-0.20093 1.29291,-0.53106 2.25671,-0.88366 0.23284,-0.0852 0.74676,-0.28917 1.14257,-0.45372 0.60956,-0.25343 0.81962,-0.29976 1.37201,-0.30076 1.30105,-0.003 1.35947,-0.10751 1.44177,-2.58382 0.034,-1.02446 0.0851,-2.33111 0.11317,-2.9037 0.0606,-1.23381 -0.0181,-1.45676 -0.51366,-1.45676 -0.56855,0 -0.58904,0.10118 -0.62064,3.0856 -0.0315,2.97907 0.0171,2.80501 -0.79891,2.86081 -0.47811,0.0327 -0.85412,0.13888 -1.71308,0.48317 -0.60537,0.24265 -1.29111,0.5131 -1.52394,0.601 -0.23284,0.0879 -0.76635,0.29701 -1.18545,0.46457 -0.84225,0.33676 -2.76398,0.85489 -3.45251,0.93069 -0.24311,0.0268 -0.76586,0.1015 -1.16168,0.1664 -3.01791,0.49469 -4.7988,0.48267 -3.38016,-0.0227 0.80683,-0.2875 1.92625,-0.76734 2.40657,-1.03147 0.56502,-0.3107 1.58438,-0.65065 2.15853,-0.71985 0.25612,-0.0308 0.6947,-0.12639 0.9741,-0.21239 0.2794,-0.0859 0.79334,-0.17555 1.14256,-0.19895 1.65759,-0.11123 3.01969,-0.55501 3.16364,-1.03095 0.0421,-0.13934 0.20069,-0.53906 0.35243,-0.88831 0.39802,-0.91607 0.47902,-1.53249 0.55552,-4.23334 0.10412,-3.67347 0.14441,-4.64466 0.1974,-4.73046 0.0267,-0.0432 0.12486,-0.78594 0.21756,-1.65054 0.0927,-0.8646 0.20672,-1.74212 0.25322,-1.94976 0.0975,-0.43509 0.12649,-4.78203 0.0491,-7.33288 -0.10104,-3.33097 -0.12112,-3.6285 -0.2682,-3.91294 -0.0769,-0.14871 -0.15902,-0.51945 -0.18242,-0.82424 -0.0511,-0.66648 -0.20374,-0.99915 -0.49092,-1.07125 -0.38339,-0.0962 -0.5723,0.17427 -0.5209,0.74517 0.0739,0.82016 0.30498,0.76969 -3.3321,0.72399 -2.32366,-0.0292 -3.40636,-0.0764 -4.05815,-0.17674 -0.48895,-0.0753 -1.15559,-0.16605 -1.48156,-0.20205 -0.59264,-0.0654 -0.59253,-0.0653 -0.56793,-0.51935 0.0574,-1.05874 -0.85215,-1.17455 -1.04748,-0.13332 -0.0782,0.41673 -0.18162,0.4681 -0.76119,0.3762 -0.49529,-0.0786 -1.78162,-0.18794 -4.01578,-0.34106 -0.62865,-0.0431 -1.54296,-0.13418 -2.03191,-0.20258 -0.48895,-0.0685 -1.44145,-0.18801 -2.11667,-0.26561 -0.67522,-0.0776 -1.60863,-0.21081 -2.07429,-0.29611 -0.8341,-0.15272 -1.62699,-0.27306 -2.62465,-0.39842 -0.50803,-0.0638 -0.50802,-0.0641 -0.48162,-0.44804 0.052,-0.75676 -0.55892,-0.89689 -0.99271,-0.22789 -0.19892,0.30674 -0.21524,0.31357 -0.6351,0.27647 -0.23697,-0.0209 -0.9449,-0.0787 -1.57355,-0.12816 -0.62865,-0.0495 -1.68261,-0.14898 -2.34197,-0.22118 -0.65938,-0.0723 -1.707327,-0.16315 -2.328542,-0.20205 -0.621216,-0.0389 -1.548625,-0.11325 -2.060859,-0.16485 -0.512233,-0.0516 -1.312002,-0.13166 -1.777669,-0.17776 -0.465666,-0.0461 -1.799476,-0.10613 -2.963643,-0.13333 -1.475292,-0.0344 -2.283444,-0.0893 -2.667021,-0.18138 -0.35497,-0.0853 -1.000879,-0.1367 -1.820042,-0.1447 -1.209723,-0.0118 -2.752199,-0.0991 -3.147094,-0.17828 -0.120521,-0.0242 -0.202494,-0.12245 -0.238229,-0.28526 -0.0578,-0.26316 -0.248785,-0.41619 -0.443902,-0.43253 z m -3.88555,1.62006 c 1.613571,-0.004 2.983065,0.0173 3.396691,0.0703 0.372535,0.0477 1.705826,0.10999 2.963126,0.13849 1.512954,0.0344 2.452947,0.0924 2.779676,0.17157 0.298722,0.0724 0.934003,0.11936 1.608687,0.11885 0.613246,-4e-4 1.476881,0.0375 1.919264,0.0842 0.442383,0.0467 1.452155,0.12334 2.243791,0.17054 2.047894,0.122 4.86215,0.36476 6.053897,0.52193 0.34922,0.0461 1.41578,0.13393 2.37039,0.19533 1.35719,0.0872 1.83002,0.14938 2.16835,0.28423 0.28729,0.11451 0.80037,0.20173 1.52652,0.25993 0.60148,0.0482 1.28306,0.12515 1.51463,0.17105 1.47479,0.29234 2.71581,0.48285 3.89227,0.59738 0.4191,0.0408 1.35252,0.15008 2.07429,0.24288 0.7218,0.0928 1.80793,0.19194 2.4133,0.22014 1.08353,0.0504 1.71353,0.11163 3.55585,0.34675 0.51224,0.0654 1.17888,0.14071 1.48156,0.16691 0.56182,0.0487 2.16141,0.23393 3.30213,0.38292 0.34925,0.0456 1.84482,0.083 3.32331,0.0827 1.50009,-3e-4 2.68769,0.0326 2.68769,0.0744 0,0.10013 -0.65426,0.68678 -0.76584,0.68678 -0.14955,0 -2.21836,1.02447 -2.60605,1.29036 -0.20154,0.13823 -0.59735,0.34474 -0.87953,0.4594 -0.28217,0.11465 -0.7468,0.36835 -1.03249,0.56328 -1.55444,1.06057 -7.30207,2.16424 -7.46466,1.4335 -0.10623,-0.47731 -0.1395,-0.54115 -0.32867,-0.62735 -0.26176,-0.11926 -0.53811,0.0348 -0.59841,0.33383 -0.10698,0.53053 -0.17255,0.64339 -0.42116,0.72399 v -5.3e-4 c -0.44936,0.14595 -6.2,0.15329 -6.64611,0.009 -0.38036,-0.12317 -1.58871,-0.20354 -5.58829,-0.37207 -1.09432,-0.0461 -2.31358,-0.12186 -2.70939,-0.16846 -0.39582,-0.0466 -1.29105,-0.10791 -1.98955,-0.13591 -0.698497,-0.028 -1.492194,-0.10485 -1.763712,-0.17105 -0.271521,-0.0662 -0.792073,-0.12041 -1.157036,-0.12041 -0.940017,0 -0.948675,-0.006 -0.882119,-0.59428 0.111652,-0.98686 -0.741262,-0.97435 -1.058849,0.0155 -0.0547,0.17051 -0.157274,0.33205 -0.227893,0.35915 -0.139269,0.0534 -2.173965,-0.0685 -3.334679,-0.19999 -0.395817,-0.0448 -1.348317,-0.12335 -2.116667,-0.17415 -2.424768,-0.1604 -3.325569,-0.25523 -3.979084,-0.41961 -0.399931,-0.1006 -1.230638,-0.1931 -2.243792,-0.2496 -2.400363,-0.13377 -4.389902,-0.31348 -6.122624,-0.55345 -2.181824,-0.30215 -2.216919,-0.31401 -2.216919,-0.72089 0,-0.51512 -0.415873,-0.63277 -0.893485,-0.25321 -0.258782,0.20563 -0.375542,0.24677 -0.58291,0.20567 -0.731292,-0.14502 -3.016133,-0.96845 -3.98477,-1.43608 -1.068546,-0.51586 -1.273994,-0.5802 -2.709395,-0.84439 -0.372533,-0.0686 -1.172819,-0.25433 -1.778186,-0.4129 -0.605367,-0.15857 -1.252923,-0.31628 -1.439189,-0.35088 -0.33867,-0.0628 -0.338749,-0.0627 -0.08475,-0.17518 0.85997,-0.38072 1.819402,-0.66486 2.986897,-0.88419 0.732253,-0.13756 1.921983,-0.4002 2.643767,-0.58342 1.378013,-0.34979 2.281794,-0.5234 3.894336,-0.74828 0.749165,-0.10447 4.116499,-0.1783 6.805786,-0.18448 z m -16.965373,3.49642 c 0.03101,-3.4e-4 0.06439,0.003 0.100252,0.008 0.475964,0.0751 1.59968,0.33174 2.608627,0.59583 0.442384,0.1158 1.201136,0.28544 1.685685,0.37724 0.686123,0.12996 1.116706,0.27836 1.947168,0.67128 0.824132,0.38993 3.373191,1.31492 4.135665,1.50068 0.150439,0.0366 0.131092,0.50143 -0.02739,0.65991 -0.340541,0.34054 -3.627478,-0.15123 -4.862235,-0.72761 -0.302683,-0.14129 -0.931664,-0.38205 -1.397331,-0.53485 -0.465667,-0.1528 -1.482339,-0.60346 -2.25981,-1.00149 -0.777471,-0.39803 -1.577757,-0.7559 -1.778186,-0.7953 -0.539442,-0.10604 -0.617598,-0.74873 -0.152446,-0.75396 z m -0.155546,1.70274 c 0.0285,-0.0285 0.332174,0.0972 0.674894,0.27957 1.686753,0.89734 2.868702,1.45154 3.290239,1.54254 0.256114,0.0553 0.732366,0.22964 1.058333,0.38758 1.018462,0.49347 3.140227,0.96486 4.357357,0.96686 0.916587,0.002 0.895597,-0.029 0.761194,1.10123 -0.147689,1.24194 -0.201245,1.31 -1.023194,1.31 -0.574472,0 -0.625777,0.0152 -0.725537,0.21187 -0.133894,0.26394 -0.144432,1.64637 -0.01757,2.33267 0.102842,0.5563 0.0626,0.98683 -0.349332,3.72122 -0.133287,0.88476 -0.283273,1.9895 -0.333313,2.45515 -0.05004,0.46567 -0.130984,1.18563 -0.179834,1.5999 -0.128831,1.09249 0.04111,1.4056 0.762744,1.4056 0.466578,0 0.496071,0.21742 0.275435,2.0314 -0.06358,0.52271 -0.142538,0.57062 -0.603064,0.36845 -0.173437,-0.0761 -0.758708,-0.15858 -1.439188,-0.20309 -2.219971,-0.1451 -3.654921,-0.49703 -4.555795,-1.11672 -0.234974,-0.16163 -0.61205,-0.34018 -0.837675,-0.39688 -0.225627,-0.0567 -0.532439,-0.1789 -0.682129,-0.2713 -0.375881,-0.23169 -0.711298,-0.31631 -0.932242,-0.23461 -0.229075,0.0847 -0.323734,-0.26599 -0.247014,-0.91467 0.02638,-0.22304 0.08368,-0.97685 0.127641,-1.67535 0.04396,-0.6985 0.121619,-1.67009 0.1726,-2.15904 0.146854,-1.4086 0.263103,-2.5928 0.352433,-3.59823 0.04551,-0.51223 0.07336,-2.76783 0.06201,-5.0121 -0.01135,-2.24426 0.0025,-4.10355 0.03101,-4.13205 z m 68.834561,0.21549 c 0.0995,-0.0181 0.15451,0.0848 0.15451,0.30386 0,0.38094 -0.29696,0.68309 -1.19476,1.21543 -0.34385,0.20388 -0.80971,0.51635 -1.03508,0.69401 -0.22538,0.17767 -0.45203,0.32298 -0.50333,0.32298 -0.0513,0 -0.34314,0.14783 -0.64854,0.32866 -0.68628,0.40641 -1.84651,0.88911 -2.44016,1.01493 -0.24521,0.052 -1.04549,0.33648 -1.77818,0.63252 -1.07304,0.43357 -1.51325,0.56561 -2.26343,0.67851 -0.91366,0.1375 -1.74983,0.18132 -1.83503,0.0961 -0.0237,-0.0237 -0.38254,-0.0714 -0.79737,-0.10594 -0.73228,-0.061 -0.7548,-0.0692 -0.7798,-0.28473 -0.0346,-0.29839 0.0428,-0.31958 1.50017,-0.41238 0.67902,-0.0433 1.48222,-0.13276 1.7849,-0.19896 1.85161,-0.40491 2.28454,-0.52125 3.22927,-0.86868 0.57569,-0.21171 1.27502,-0.53277 1.55442,-0.71313 0.2794,-0.18037 0.69837,-0.41132 0.93121,-0.51315 0.23283,-0.10181 0.53246,-0.26142 0.66559,-0.35502 0.3522,-0.24753 2.12103,-1.14535 2.63705,-1.33842 0.24321,-0.091 0.51036,-0.24059 0.59376,-0.33279 0.0892,-0.0986 0.16507,-0.15298 0.2248,-0.16382 z m -56.806355,1.66037 c 0.155897,-0.01 0.367409,0.008 0.630453,0.0584 1.421896,0.27403 3.361437,0.49287 5.742285,0.64751 2.577009,0.16739 3.558398,0.26066 4.148583,0.39377 0.78612,0.17731 1.56971,0.2603 3.852479,0.40876 3.61932,0.23538 5.5103,0.42771 5.597591,0.56896 0.07572,0.12252 0.01127,0.47783 -0.116271,0.63975 -0.04585,0.0582 -0.20266,0.0984 -0.3483,0.0884 -0.14564,-0.01 -1.407996,-0.0402 -2.804996,-0.0677 -1.397,-0.0275 -2.82575,-0.0943 -3.175,-0.14883 -0.34925,-0.0545 -1.12993,-0.16002 -1.735296,-0.23461 -0.605367,-0.0747 -1.291104,-0.19562 -1.523937,-0.26872 -0.310293,-0.0974 -1.000299,-0.14975 -2.582788,-0.19482 -4.069985,-0.11585 -5.952243,-0.42812 -7.466728,-1.23972 -0.651779,-0.34928 -0.685766,-0.62217 -0.218075,-0.65112 z m 56.862165,0.45268 c 0.10492,0 0.2682,1.13273 0.2682,1.85984 0,0.6235 -0.11498,0.84956 -0.43305,0.84956 -0.52878,0 -0.6133,0.31306 -0.55501,2.05775 0.0541,1.61616 0.0541,1.61637 -0.19998,2.06654 -0.78785,1.39594 -0.74027,5.11003 0.0765,5.98207 0.307,0.32779 0.34933,0.61371 0.34933,2.33939 0,1.65512 -0.0593,2.11652 -0.27285,2.11666 -0.0594,4e-5 -0.3497,0.11459 -0.64492,0.25425 -0.29523,0.13966 -0.64103,0.25374 -0.76843,0.25374 -0.1274,0 -0.50185,0.0948 -0.83251,0.21032 -0.5562,0.19432 -0.91201,0.25398 -2.77296,0.4656 -0.37253,0.0424 -0.88243,0.11678 -1.13326,0.16589 -0.25084,0.0491 -0.63163,0.0892 -0.84646,0.0889 -0.42456,-5.3e-4 -1.66616,0.17585 -3.03651,0.4315 -1.72581,0.32197 -1.67553,0.36308 -1.73633,-1.43196 -0.0491,-1.44984 -0.0651,-1.41225 0.54312,-1.29863 0.45348,0.0847 0.87415,-0.0466 0.94775,-0.2961 0.13863,-0.46996 0.23859,-1.65475 0.19689,-2.33785 -0.16699,-2.73833 -0.22186,-3.26028 -0.39584,-3.78684 -0.12833,-0.38844 -0.19586,-0.86023 -0.22996,-1.60352 -0.0576,-1.25696 -0.16351,-1.44436 -0.81443,-1.44436 -0.20597,0 -0.41443,-0.0484 -0.46353,-0.10749 -0.0692,-0.0834 -0.14687,-2.01359 -0.10697,-2.65771 0.004,-0.0717 0.36328,-0.0853 1.34462,-0.0512 1.93694,0.0672 3.33634,-0.19398 4.68343,-0.87334 0.21528,-0.10858 0.86284,-0.33499 1.43919,-0.50332 1.10581,-0.32299 3.4652,-1.41106 3.75584,-1.7322 0.16802,-0.18567 1.5073,-1.01751 1.63815,-1.01751 z m -57.324152,1.07901 c 0.161228,0.0135 0.405765,0.12983 0.798918,0.31522 0.955302,0.45048 1.586889,0.61943 2.71818,0.72709 0.474217,0.0451 1.147816,0.11785 1.497066,0.16175 0.34925,0.0439 1.422077,0.0817 2.383834,0.0837 1.39141,0.003 1.910212,0.0372 2.539897,0.16795 1.293188,0.26844 1.679545,0.33347 2.569352,0.43305 0.465664,0.0521 1.225008,0.14876 1.687235,0.21446 0.547021,0.0777 1.610966,0.12044 3.047876,0.12144 2.206167,0.002 2.804792,0.0566 2.938322,0.26716 0.164396,0.25928 0.08591,3.52834 -0.08888,3.70314 -0.245637,0.24564 -1.032645,0.3205 -1.439704,0.13694 -0.801968,-0.36164 -0.964041,-0.0783 -0.638204,1.11414 0.418536,1.53172 0.40699,2.89857 -0.03669,4.36666 -0.975198,3.22684 -0.990108,3.97155 -0.08527,4.17029 0.32648,0.0717 0.380645,0.21807 0.244946,0.66042 -0.05964,0.19443 -0.156512,0.67299 -0.21549,1.06351 -0.0596,0.39458 -0.157678,0.74196 -0.22066,0.78186 v 5.3e-4 c -0.06233,0.0395 -0.151349,0.067 -0.197919,0.061 -0.04657,-0.006 -0.370604,-0.0404 -0.719854,-0.077 -0.34925,-0.0366 -0.768017,-0.10761 -0.930691,-0.15761 -0.176445,-0.0542 -1.133147,-0.091 -2.370915,-0.091 -1.465014,5e-5 -2.273528,-0.0364 -2.75177,-0.12454 -0.372536,-0.0686 -1.290529,-0.23989 -2.039669,-0.38086 -0.74914,-0.14098 -1.587092,-0.25675 -1.862419,-0.25735 -0.275327,-5.3e-4 -0.710232,-0.0574 -0.966349,-0.12609 -0.256117,-0.0687 -0.618336,-0.12612 -0.804602,-0.12712 -0.186267,-0.001 -0.586152,-0.0611 -0.888835,-0.13281 -0.753145,-0.17834 -2.271834,-0.30307 -4.190959,-0.34417 -2.241864,-0.048 -2.009789,0.10536 -1.940449,-1.2826 0.06185,-1.23806 0.117467,-1.4578 0.37052,-1.4578 0.395542,0 0.681011,-0.40234 0.681095,-0.96014 1.23e-4,-0.56179 0.183008,-1.72724 0.331763,-2.1146 0.05034,-0.13109 0.09146,-0.41643 0.09147,-0.63459 8e-6,-0.21816 0.05728,-0.69542 0.127124,-1.0604 0.06984,-0.36499 0.126515,-0.89851 0.12609,-1.18546 -9.79e-4,-0.60417 0.200582,-2.06633 0.427881,-3.1042 0.500728,-2.28639 0.424094,-3.03429 -0.311092,-3.04529 -0.342869,-0.005 -0.399389,-0.18924 -0.289388,-0.94155 0.103016,-0.70453 0.13953,-0.96769 0.408244,-0.94516 z m 22.676651,0.50126 c 0.233661,0.009 0.478491,0.0483 0.711067,0.12247 0.162677,0.0519 0.714566,0.12668 1.226799,0.16588 2.762035,0.21126 4.882875,0.34025 6.815605,0.41445 2.3929,0.0919 3.71625,0.20515 4.62866,0.39687 0.63206,0.13281 5.98935,0.12201 6.60373,-0.0134 0.33666,-0.0742 0.5215,0.16913 0.32866,0.43305 -0.10941,0.1497 -0.29827,0.16245 -2.98121,0.20205 -1.57543,0.0233 -2.91745,0.0766 -2.98225,0.11834 -0.0648,0.0417 -1.1318,0.11153 -2.37091,0.15503 -1.2391,0.0435 -2.59571,0.0904 -3.01481,0.10439 -0.81061,0.0271 -1.36266,-0.0285 -2.92075,-0.29559 -0.53552,-0.0919 -1.3251,-0.16708 -1.75441,-0.16692 -0.60168,2.1e-4 -0.92779,-0.0477 -1.422654,-0.20928 -0.825846,-0.2696 -1.89489,-0.4588 -2.961576,-0.524 -1.019966,-0.0623 -1.178544,-0.12527 -1.103294,-0.4377 0.06492,-0.26959 0.471008,-0.4391 0.968417,-0.46406 0.07461,-0.004 0.15104,-0.004 0.228926,-0.002 z m -0.949296,1.80609 c 0.650687,0 2.952858,0.40415 3.597198,0.63149 0.214844,0.0758 0.658349,0.13144 1.057819,0.13229 0.66342,10e-4 1.57057,0.12325 2.63498,0.35398 0.72249,0.15659 6.54659,0.11787 8.00106,-0.0532 0.65659,-0.0773 2.05198,-0.13316 3.67574,-0.14676 3.07821,-0.0258 2.74381,-0.19794 2.75281,1.42162 0.007,1.29243 0.0377,1.24156 -0.83096,1.38596 -1.03236,0.17162 -1.25341,0.44317 -1.12241,1.37976 0.0571,0.40826 0.12534,2.31436 0.15555,4.34444 0.0626,4.21162 0.0742,4.25774 0.96583,3.79667 0.15364,-0.0794 0.41059,-0.12144 0.64957,-0.10594 0.44155,0.0286 0.592,0.49871 0.6041,1.88826 0.008,0.89904 0.21054,0.83525 -2.58848,0.81545 -1.90823,-0.0135 -2.58658,0.011 -3.10523,0.11266 -0.36499,0.0716 -0.91709,0.13092 -1.22732,0.13177 -0.31022,8e-4 -0.82697,0.057 -1.14825,0.12506 -0.32129,0.0681 -0.95027,0.18515 -1.39733,0.26045 -0.44707,0.0753 -1.0206,0.19042 -1.27486,0.2558 -0.25427,0.0653 -0.6409,0.11885 -0.85886,0.11885 -0.21797,0 -0.56233,0.0753 -0.76533,0.16744 -0.46343,0.21028 -4.96014,0.24134 -6.083862,0.0418 -1.645062,-0.29204 -2.593707,-0.4125 -3.725354,-0.4718 -1.673265,-0.0877 -2.467491,-0.1666 -2.657203,-0.2651 -0.295862,-0.15361 0.03555,-2.15857 0.394293,-2.38487 0.08409,-0.053 0.337127,-0.0418 0.731221,0.0326 0.972682,0.18353 1.029811,0.0921 1.002522,-1.60094 -0.02392,-1.484 0.162936,-2.14303 0.928108,-3.27422 0.482444,-0.71322 0.511829,-0.87357 0.564309,-3.06751 0.05585,-2.33492 0.03881,-2.38539 -0.815457,-2.38539 -0.662879,0 -0.655772,0.0197 -0.655772,-1.78852 0,-1.76279 0.02611,-1.85208 0.541568,-1.85208 z m -22.550561,0.71624 c 0.369637,-0.0185 0.306989,0.23596 0.08888,1.32033 -0.319153,1.58676 -0.517682,2.95759 -0.520382,3.59409 -0.0012,0.2794 -0.05693,0.75566 -0.123506,1.05834 -0.06658,0.30268 -0.122424,0.74564 -0.124024,0.98443 -0.0016,0.23878 -0.05905,0.56809 -0.127641,0.73226 -0.06859,0.16417 -0.149997,0.67371 -0.180867,1.13223 -0.03087,0.45853 -0.09042,0.90035 -0.132292,0.98185 -0.07885,0.1534 -0.319774,0.17555 -0.789616,0.0724 -0.248594,-0.0546 -0.253776,-0.0659 -0.243396,-0.55191 0.01474,-0.69029 0.346767,-3.25379 0.604098,-4.66379 0.09842,-0.53928 0.140577,-1.27456 0.144177,-2.51561 0.0059,-2.01073 -0.05521,-1.86739 0.880566,-2.05569 0.229559,-0.0462 0.400787,-0.0827 0.523999,-0.0889 z m 44.944028,3.82663 c 0.59418,0.0112 0.77153,0.29394 0.77153,0.95292 0,0.36181 0.057,0.84524 0.1266,1.07383 0.32098,1.05361 0.58622,4.43066 0.39843,5.07205 -0.0744,0.25396 -0.0744,0.25382 -0.71107,0.22582 -0.41073,-0.0181 -0.79641,0.0195 -1.08727,0.10594 -0.9817,0.29165 -0.90625,0.46906 -0.97255,-2.27893 -0.12388,-5.13882 -0.14216,-4.89824 0.38344,-5.00848 0.46471,-0.0975 0.82081,-0.14826 1.09089,-0.14315 z m -22.672518,0.12661 c 0.179599,-0.0177 0.184838,0.33991 0.168463,1.63763 -0.02228,1.76563 0.0031,1.66498 -0.687811,2.72231 -0.571423,0.87452 -0.78467,1.59845 -0.825791,2.80293 -0.0354,1.03767 -0.03549,1.03785 -0.471289,1.02784 -0.433184,-0.009 -1.27427,-0.16249 -1.35599,-0.24649 -0.0627,-0.0645 0.484471,-2.24133 0.758095,-3.01584 0.282072,-0.79844 0.396237,-2.99497 0.198438,-3.82199 -0.137973,-0.57685 -0.117375,-0.59342 0.902787,-0.72553 0.498377,-0.0645 0.933696,-0.17032 1.0697,-0.25942 0.104365,-0.0684 0.183531,-0.11555 0.243398,-0.12144 z m -33.752979,7.77472 c 0.07205,0.001 0.18641,0.10021 0.368453,0.26045 0.246498,0.21697 0.552187,0.38497 0.856278,0.47077 0.260176,0.0734 0.72808,0.28255 1.039213,0.46457 1.12778,0.65978 2.281654,0.97179 4.048332,1.09451 2.528126,0.1756 2.693277,0.25699 2.375565,1.17409 -0.09038,0.26089 -0.187654,0.65536 -0.216524,0.87643 -0.04673,0.35781 -0.268783,0.65572 -0.394808,0.52968 -0.01987,-0.0199 -0.472736,-0.0761 -1.00614,-0.12505 -2.963787,-0.27235 -5.135954,-0.89289 -5.917985,-1.68982 -0.212143,-0.21619 -0.585965,-0.55703 -0.83044,-0.75758 -0.4445,-0.36464 -0.444417,-0.36453 -0.444417,-1.3162 0,-0.71308 0.0024,-0.9836 0.122473,-0.98185 z m 68.697617,2.66237 c 0.1629,-0.018 0.17915,0.14065 0.0527,0.48059 -0.0763,0.20501 -0.17751,0.5248 -0.22531,0.71107 -0.12365,0.48163 -0.18268,0.57961 -0.42065,0.6966 -0.32108,0.15785 -1.91252,0.44623 -2.46445,0.44648 -0.26923,1.4e-4 -0.71848,0.0773 -0.99838,0.17157 -0.27993,0.0943 -0.68823,0.19376 -0.90744,0.22066 -0.65867,0.0809 -1.54147,0.3684 -2.30374,0.75034 -0.69706,0.34926 -1.6246,0.7437 -2.49752,1.06195 -0.23283,0.0849 -0.74714,0.27141 -1.14257,0.41444 v -5.2e-4 c -1.10663,0.40029 -1.04878,0.44644 -0.97978,-0.7767 0.1188,-2.10712 0.20105,-2.34998 0.79892,-2.34973 0.2155,8e-5 0.92523,-0.0926 1.57716,-0.20619 1.65965,-0.28922 2.9817,-0.47135 3.42925,-0.47335 0.20955,-8e-4 0.53306,-0.0382 0.71934,-0.0827 0.18626,-0.0445 0.89138,-0.13719 1.56682,-0.20619 0.67544,-0.069 1.5521,-0.21805 1.94769,-0.33073 0.3956,-0.11271 0.87006,-0.23127 1.05471,-0.26407 0.18467,-0.0328 0.44634,-0.11678 0.58136,-0.18655 0.087,-0.045 0.1576,-0.071 0.21188,-0.077 z m -57.220798,0.32039 c 1.724244,-0.0291 3.318298,0.0782 4.57233,0.308 1.336526,0.24494 2.161628,0.36463 3.005502,0.43563 0.675774,0.0569 1.463685,0.18569 3.894853,0.63717 0.479134,0.089 1.27204,0.12562 2.709911,0.12557 1.134062,0 2.162997,0.0386 2.328023,0.0868 0.162677,0.0476 0.614744,0.11928 1.004591,0.15968 0.436645,0.0452 0.736854,0.11762 0.781863,0.18862 0.178734,0.28211 -0.07423,2.64724 -0.299723,2.80241 -0.125389,0.0863 -0.351853,0.0693 -0.894519,-0.0662 -0.256117,-0.0639 -0.631875,-0.11788 -0.835091,-0.11988 -0.354169,-0.003 -2.761102,-0.38249 -2.992581,-0.47129 -0.104798,-0.0402 -0.41452,-0.0925 -2.437579,-0.4098 -1.664279,-0.26102 -2.67755,-0.39341 -3.005501,-0.39274 -0.186266,2.7e-4 -0.662517,-0.054 -1.058333,-0.12092 -1.541548,-0.26059 -2.539898,-0.39199 -3.556372,-0.46819 -1.401162,-0.10499 -2.644417,-0.24102 -3.217374,-0.35243 -0.256117,-0.0498 -0.781298,-0.11888 -1.167371,-0.15348 -0.9133,-0.0818 -0.92881,-0.10047 -0.754476,-0.90382 0.281145,-1.29562 0.223359,-1.2565 1.921847,-1.2852 z m 41.611408,1.33739 c 1.30323,-0.008 2.69876,0.0813 2.85513,0.23771 0.0322,0.0322 0.0223,0.40152 -0.0222,0.82062 -0.0444,0.4191 -0.1043,1.19979 -0.1328,1.7353 -0.0285,0.53552 -0.09,1.02132 -0.13643,1.07952 -0.1427,0.17904 -18.421147,0.0706 -21.865332,-0.12971 -3.063195,-0.17815 -3.263082,-0.24298 -3.081464,-1.00304 0.05412,-0.22662 0.122145,-0.79317 0.150894,-1.25884 0.05228,-0.84665 0.05201,-0.8466 0.390673,-0.8325 0.186267,0.008 0.910186,0.0384 1.608688,0.0682 1.149255,0.049 2.795397,0.25356 4.795573,0.59635 1.241178,0.21273 5.760648,0.17845 6.416658,-0.0486 0.27631,-0.0956 0.76191,-0.20662 1.07952,-0.24701 0.61948,-0.0788 2.43511,-0.40061 2.66237,-0.47181 0.34226,-0.10727 1.68885,-0.28994 2.14871,-0.29094 0.2794,-7.9e-4 0.80652,-0.0589 1.17151,-0.12867 0.42783,-0.0819 1.1766,-0.12167 1.95853,-0.12661 z m -15.130339,9.84229 c -0.03865,0.002 -0.07858,0.009 -0.119372,0.0233 -0.493361,0.17023 -0.567986,0.50936 -0.640786,2.91868 -0.03588,1.18745 -0.103984,2.52126 -0.151414,2.96365 -0.04743,0.44238 -0.08717,1.79477 -0.08837,3.0055 -0.0016,1.6255 -0.03449,2.3343 -0.125058,2.70939 -0.09579,0.39671 -0.123023,1.20564 -0.124023,3.69332 -0.0013,3.18555 -0.0011,3.18567 -0.621668,4.00079 -0.644427,0.84635 -1.739995,1.80858 -2.514058,2.20865 -0.940384,0.48603 -1.577668,1.51413 -1.183391,1.90841 0.286639,0.28663 0.598236,0.15776 0.93431,-0.38602 0.10755,-0.17403 0.379865,-0.41058 0.644922,-0.56017 0.908092,-0.51251 2.16526,-1.56948 2.679941,-2.2531 0.698619,-0.92795 0.768172,-0.89685 0.820621,0.3669 0.04569,1.10097 0.148523,1.39469 0.552415,1.57872 0.41081,0.18718 0.66231,-0.25321 0.52917,-0.92656 -0.15358,-0.77681 -0.0578,-0.77977 0.71623,-0.0222 0.54072,0.52922 0.80784,0.72367 1.17719,0.85834 0.29093,0.10608 0.60375,0.30394 0.80047,0.5054 0.37778,0.38688 0.71144,0.43818 0.91881,0.14211 0.33453,-0.4776 -0.0536,-1.01436 -1.09089,-1.50843 -0.69227,-0.32975 -0.8881,-0.50004 -2.21537,-1.93115 -0.27439,-0.29584 -0.61323,-0.59668 -0.75293,-0.66818 -0.139692,-0.0715 -0.282041,-0.17258 -0.316251,-0.22428 -0.123455,-0.18659 -0.06822,-6.06097 0.06253,-6.6554 0.0851,-0.38691 0.123491,-1.16632 0.12919,-2.62465 0.01048,-2.66904 0.241361,-7.7902 0.383961,-8.51214 0.0675,-0.34204 -0.13566,-0.62176 -0.406183,-0.61082 z m 36.233449,11.97808 c 0.004,0.0365 0.006,0.061 0.0109,0.10129 7.9e-4,-0.0307 0.002,-0.0617 0,-0.092 -0.004,-0.003 -0.007,-0.006 -0.0109,-0.009 z"
       style="fill:#ffffff;fill-opacity:0.99606299;stroke-width:18.49999809;stroke-miterlimit:4;stroke-dasharray:none"
       id="path4583" />
  </g>
</svg>
