<?xml version="1.0" encoding="UTF-8" standalone="no"?>
<svg
   xmlns:dc="http://purl.org/dc/elements/1.1/"
   xmlns:cc="http://creativecommons.org/ns#"
   xmlns:rdf="http://www.w3.org/1999/02/22-rdf-syntax-ns#"
   xmlns:svg="http://www.w3.org/2000/svg"
   xmlns="http://www.w3.org/2000/svg"
   id="svg8"
   version="1.1"
   viewBox="0 0 74.127045 70.822136"
   height="70.822136mm"
   width="74.127045mm">
  <defs
     id="defs2" />
  <metadata
     id="metadata5">
    <rdf:RDF>
      <cc:Work
         rdf:about="">
        <dc:format>image/svg+xml</dc:format>
        <dc:type
           rdf:resource="http://purl.org/dc/dcmitype/StillImage" />
        <dc:title></dc:title>
      </cc:Work>
    </rdf:RDF>
  </metadata>
  <g
     transform="translate(-63.988137,-107.74748)"
     id="layer1">
    <path
       d="m 151.27344,0.5859375 c -3.62316,0.1662767 -11.36153,1.5251926 -20.4668,3.6191406 -1.848,0.4249701 -4.00683,0.8675876 -4.79883,0.984375 -1.51505,0.2232567 -11.05559,2.5402599 -15.68164,3.8085938 -1.9212,0.5266771 -3.21181,0.6969289 -4.39844,0.5820312 -1.39132,-0.1349291 -1.68164,-0.074252 -1.68164,0.3476563 0,0.5615996 -0.90597,1.1372956 -2.39257,1.5214846 -3.088207,0.798047 -6.976153,1.909405 -8.646489,2.470703 -3.611312,1.213568 -10.31403,3.259766 -10.677734,3.259766 -0.199824,0 -0.363281,0.144186 -0.363281,0.320312 0,0.176126 -0.201068,0.320312 -0.447266,0.320312 -0.246206,0 -3.277855,0.927471 -6.738281,2.0625 -3.460426,1.13503 -7.328383,2.373169 -8.59375,2.751954 -1.265367,0.378822 -2.587466,0.816498 -2.939453,0.970703 -0.351999,0.154091 -2.296312,0.802654 -4.320313,1.443359 -2.023997,0.640668 -4.832232,1.573859 -6.240234,2.072266 -1.407999,0.498406 -3.460546,1.153094 -4.560547,1.455078 -1.099998,0.301795 -2,0.669383 -2,0.816406 0,0.147024 -0.348101,0.267578 -0.773438,0.267578 -0.425329,0 -0.823676,0.154774 -0.886718,0.34375 -0.06303,0.189203 -1.01179,0.424036 -2.107422,0.523438 -1.378575,0.125027 -1.992188,0.315581 -1.992188,0.617187 0,0.291175 -0.403944,0.435547 -1.21875,0.435547 -0.670359,0 -1.498212,0.21023 -1.839844,0.46875 -0.341639,0.25852 -1.039762,0.476689 -1.550781,0.480469 -0.511015,0.0056 -1.669082,0.360842 -2.574219,0.789062 -0.905132,0.428183 -2.570163,0.992741 -3.701171,1.253907 -1.131013,0.261278 -2.108379,0.629824 -2.171875,0.820312 -0.0635,0.190488 -0.320977,0.347656 -0.570313,0.347656 -0.315572,0 -0.453125,0.388311 -0.453125,1.279297 0,1.249777 0.02776,1.279297 1.121094,1.279297 0.615999,0 1.11914,-0.114064 1.11914,-0.253906 0,-0.139729 0.873331,-0.446617 1.941407,-0.683594 1.068075,-0.236976 2.12571,-0.614142 2.349609,-0.83789 0.223888,-0.223862 1.042324,-0.580118 1.81836,-0.791016 0.776039,-0.210822 1.698793,-0.505762 2.050781,-0.654297 0.351998,-0.148498 1.288078,-0.444282 2.080078,-0.658203 0.792,-0.21377 1.576934,-0.508029 1.744141,-0.654297 C 40.878136,33.619357 41.390058,33.5 41.847656,33.5 c 0.457603,0 0.974126,-0.144123 1.148438,-0.318359 0.174308,-0.174199 1.029209,-0.41377 1.90039,-0.533203 0.871181,-0.119434 1.75692,-0.389846 1.966797,-0.59961 0.2099,-0.209915 1.001909,-0.478223 1.761719,-0.597656 1.970351,-0.309959 7.740692,-2.083052 15.462891,-4.75 2.287997,-0.790186 7.182906,-2.410293 10.878906,-3.601563 3.696,-1.191307 7.871294,-2.574237 9.279297,-3.072265 1.407998,-0.497991 3.208,-1.062726 4,-1.25586 0.792,-0.193058 2.016702,-0.549503 2.720703,-0.791015 0.703997,-0.241625 2.576156,-0.822317 4.160156,-1.291016 1.584,-0.468737 3.422377,-1.053978 4.085938,-1.300781 1.524639,-0.567496 1.965829,-0.581288 1.535159,-0.04883 -0.17794,0.220006 -1.287006,1.839634 -2.464847,3.599609 -1.177841,1.760013 -2.811805,3.990972 -3.630859,4.958985 -0.819062,0.967974 -3.13397,3.704078 -5.144532,6.080078 -2.010553,2.376 -3.832815,4.464499 -4.050781,4.640625 -0.217965,0.176012 -0.754131,0.807332 -1.189453,1.402343 -0.435318,0.595011 -1.554231,1.889918 -2.488281,2.878907 -0.93405,0.988989 -2.186956,2.37415 -2.783203,3.078125 -0.596243,0.704012 -2.197189,2.503987 -3.558594,4 -3.53774,3.887508 -5.744793,6.39337 -7.03125,7.986328 -0.616003,0.762708 -1.415945,1.690153 -1.777344,2.060547 -0.361413,0.370393 -1.177904,1.321281 -1.816406,2.113281 -1.150326,1.426885 -2.28261,2.765153 -3.384766,4 -0.84119,0.942501 -4.937606,5.832779 -8.142578,9.720703 -10.70985,12.992013 -12.71875,15.786918 -12.71875,17.707031 v 0.002 c 0,1.156876 0.04838,1.208605 1.041016,1.197266 0.88608,-0.01149 1.229752,-0.274313 2.320312,-1.775391 2.197939,-3.02536 5.677456,-7.49237 7.681641,-9.859375 1.057852,-1.24936 2.499023,-2.991748 3.201172,-3.871093 1.154286,-1.445556 4.45326,-5.34468 6.427734,-7.597657 0.422846,-0.482494 0.769531,-0.957175 0.769531,-1.054687 0,-0.09751 0.32275,-0.509868 0.71875,-0.916016 0.396001,-0.40611 1.066368,-1.154166 1.490235,-1.664062 0.423863,-0.509859 1.287784,-1.511148 1.919922,-2.22461 1.368272,-1.544352 2.260582,-2.596347 4.189453,-4.9375 0.792,-0.961285 1.655922,-1.97901 1.919922,-2.261718 0.750262,-0.803793 5.185741,-5.747024 6.582031,-7.335938 0.692217,-0.787729 1.54645,-1.746116 1.898437,-2.128906 0.352003,-0.382791 1.360236,-1.527448 2.240235,-2.542969 0.879999,-1.015521 1.892759,-2.14586 2.25,-2.511719 0.357252,-0.365971 0.860394,-0.966677 1.119141,-1.335937 0.376338,-0.537298 2.560077,-3.030001 5.271484,-6.019531 0.834229,-0.919786 3.467987,-4.120774 5.291016,-6.429688 1.111698,-1.408025 2.10666,-2.630687 2.210937,-2.71875 0.438648,-0.370242 3.857425,-5.757621 3.857425,-6.078125 0,-0.360264 0.10579,-0.508395 1.41797,-1.990234 0.42241,-0.477052 0.96045,-1.139239 1.19531,-1.470703 0.23486,-0.331578 1.14734,-0.837378 2.02734,-1.125 1.79844,-0.58749 13.98431,-3.6197227 18.87891,-4.697266 1.76,-0.3874772 4.35176,-0.968244 5.75976,-1.2910156 4.87114,-1.1167748 14.26656,-2.9484363 14.40625,-2.8085938 0.54895,0.5489764 -4.32261,10.7129064 -9.07422,18.9316404 -1.61247,2.789065 -2.93164,5.18967 -2.93164,5.335938 0,0.146381 -0.18038,0.463881 -0.40039,0.703125 -0.21999,0.239357 -0.60603,0.789484 -0.85937,1.222656 -0.25335,0.433209 -0.98548,1.651031 -1.62695,2.707031 -0.64148,1.056 -1.5992,2.716641 -2.12891,3.689453 -1.25814,2.310501 -6.67183,11.306586 -7.79297,12.951172 -0.48053,0.704882 -1.16049,1.785273 -1.51172,2.400391 -0.35123,0.615118 -1.22636,2.055231 -1.94336,3.199219 -0.71699,1.143987 -1.91338,3.068134 -2.6582,4.27539 -0.74482,1.207257 -1.50713,2.362753 -1.69531,2.56836 -0.59212,0.646601 -1.648,2.223278 -2.48828,3.716796 -0.44559,0.792 -1.62006,2.757891 -2.61133,4.369141 -1.41945,2.307213 -1.80274,3.208197 -1.80274,4.240235 v 1.310546 h 1.27539 c 1.19812,0 1.31984,-0.09271 2.05078,-1.521484 0.76823,-1.501644 4.13832,-6.760229 6.28711,-9.8125 5.97769,-8.491087 18.70702,-20.886972 24.67383,-24.027344 1.16974,-0.615647 2.28097,-1.11914 2.47071,-1.11914 0.18974,0 0.56544,0.42409 0.83398,0.943359 0.39795,0.76955 0.4248,1.258414 0.14844,2.640625 -0.18648,0.93275 -0.46418,1.984063 -0.61914,2.335938 -0.70813,1.608642 -5.18436,10.69538 -5.83985,11.855468 -1.04372,1.847207 -3.19604,5.306186 -6.07812,9.767578 -2.82048,4.366073 -3.16767,5.190691 -3.0586,7.273438 0.0939,1.792101 0.11259,1.824741 1.11719,1.921875 1.16748,0.113008 1.37786,-0.048 6.40039,-4.871094 1.81675,-1.74463 3.62716,-3.39389 4.02149,-3.666015 0.39431,-0.272164 0.91809,-0.693216 1.16406,-0.933594 1.62886,-1.593336 5.01409,-4.023528 6.55078,-4.703125 1.00074,-0.442621 1.87346,-0.804688 1.93945,-0.804688 0.066,0 0.16947,1.358769 0.23047,3.019531 0.10408,2.833966 0.16868,3.079799 1.05078,4 0.86189,0.899188 1.11476,0.980469 3.04297,0.980469 2.40041,0 4.05903,-0.723442 7.07422,-3.083984 3.79293,-2.969462 9.74419,-10.673781 12.32617,-15.957031 0.74926,-1.533166 0.95825,-2.434283 1.04102,-4.478516 0.18467,-4.553839 -1.0879,-6.069806 -5.08789,-6.054688 -1.72914,0.0066 -2.38581,0.171615 -3.67969,0.925782 -2.90196,1.691414 -4.19702,2.937287 -7.97656,7.679687 -2.39896,3.010129 -6.5586,9.399019 -6.5586,10.072266 0,0.136327 -0.92193,0.321779 -2.04687,0.412109 -3.39447,0.272504 -5.68674,1.586368 -11.04688,6.328125 -1.65689,1.465777 -2.89449,2.460765 -2.75,2.210938 0.14451,-0.24994 1.17658,-1.922353 2.29297,-3.716797 1.11639,-1.794482 2.0293,-3.346352 2.0293,-3.447266 0,-0.101027 0.38754,-0.792618 0.86133,-1.537109 1.29205,-2.030325 5.04895,-9.768352 5.6289,-11.59375 1.06361,-3.347641 1.28358,-5.249143 0.84571,-7.3125 -0.56828,-2.677871 -0.99205,-3.087891 -3.19922,-3.087891 -1.74677,0 -3.12131,0.304364 -4.77539,1.056641 -0.81071,0.368693 -3.54618,2.109249 -3.83985,2.443359 -0.088,0.100044 -1.02407,0.830001 -2.08007,1.621094 -1.056,0.791131 -1.99765,1.509215 -2.0918,1.597656 -0.0941,0.08844 -1.29484,1.2425 -2.66797,2.5625 l -2.49609,2.398438 2.14258,-3.519532 c 1.91335,-3.142979 3.24811,-5.403255 6.70898,-11.359374 0.56247,-0.968013 2.03266,-3.48761 3.26562,-5.59961 3.84358,-6.583823 8.71306,-15.998347 9.6836,-18.720703 0.2196,-0.6159874 0.5187,-1.4078916 0.66406,-1.7597656 0.14537,-0.3520252 0.39194,-1.0659123 0.54883,-1.5859375 0.24359,-0.8074583 0.5391,-1.0090806 2.02148,-1.3847657 2.25433,-0.5711244 2.59373,-0.8833917 2.47657,-2.28125 -0.0933,-1.11325979 -0.14,-1.15242699 -1.53711,-1.25976558 -0.3416,-0.0262394 -0.77538,-0.0257069 -1.29297,-0.001953 z M 291.75781,33.179688 c -1.09171,0 -8.83355,3.869104 -12.56054,6.277343 -1.1935,0.771175 -2.23591,1.402344 -2.31641,1.402344 -0.25724,0 -1.53574,1.073951 -3.24024,2.722656 -1.72531,1.668813 -2.31601,3.148619 -1.9082,4.773438 0.29069,1.15816 0.96664,1.685167 2.83399,2.210937 1.77592,0.50007 8.53453,1.171875 11.78515,1.171875 1.06273,0 2.60766,0.153135 3.4336,0.339844 3.10386,0.702198 4.22265,1.031163 4.22265,1.238281 0,0.408076 -2.40882,2.463636 -3.60156,3.074219 -0.65998,0.337852 -1.19922,0.707746 -1.19922,0.822266 0,0.114633 -0.43294,0.386634 -0.96094,0.605468 -0.528,0.218722 -0.95898,0.50475 -0.95898,0.634766 0,0.130129 -0.90001,0.713064 -2,1.294922 -1.09999,0.58182 -2.07209,1.160495 -2.16016,1.287109 -0.088,0.126614 -1.5994,0.996813 -3.35937,1.931641 -3.24488,1.723578 -13.97204,8.629224 -14.88086,9.580078 -0.088,0.09207 -0.51901,0.396538 -0.95899,0.677734 -0.44001,0.281235 -1.77291,1.41054 -2.96093,2.507813 -1.95553,1.806047 -2.16016,2.111932 -2.16016,3.240234 h 0.002 c 0,1.234961 0.0117,1.246094 1.2461,1.246094 0.75405,0 1.31119,-0.170539 1.41211,-0.433594 0.18534,-0.483023 4.5151,-4.07161 5.63672,-4.671875 0.39348,-0.210595 0.95595,-0.579493 1.25,-0.818359 1.71677,-1.394457 3.85883,-2.880011 6.04687,-4.19336 1.36819,-0.821253 2.70456,-1.673428 2.96875,-1.894531 0.264,-0.221253 0.98362,-0.687817 1.59961,-1.035156 0.61603,-0.347263 2.416,-1.389805 4,-2.318359 1.584,-0.928517 3.67265,-2.14586 4.64063,-2.705078 4.87562,-2.816467 8.10558,-5.278991 8.9082,-6.789063 0.49682,-0.937965 0.47589,-4.092821 -0.0312,-4.513672 -1.03967,-0.862828 -5.8663,-1.691025 -11.6836,-2.005859 -5.56221,-0.300964 -9.06402,-0.839413 -9.71875,-1.494141 -0.35784,-0.357846 1.13854,-1.966204 3.12891,-3.365234 2.88586,-2.028397 8.11204,-5.041016 8.74609,-5.041016 0.1177,0 0.99594,-0.439151 1.95118,-0.976562 3.77412,-2.124057 3.65003,-2.00874 3.75586,-3.447266 0.0962,-1.305827 0.0739,-1.335937 -0.90821,-1.335937 z m -67.85742,2.246093 c -1.74014,-0.101834 -4.33161,0.92741 -7.49414,3.007813 -2.6465,1.740964 -8.88799,6.593197 -9.26367,7.201172 -0.51364,0.831382 -0.7812,0.245832 -0.30664,-0.671875 1.75831,-3.399837 2.60594,-7.899913 1.66601,-8.839844 -0.68953,-0.689537 -3.6484,-0.45994 -5.38086,0.417969 -3.49137,1.769234 -11.79982,8.794711 -19.41406,16.416015 -2.16419,2.166236 -3.84272,3.679565 -3.73047,3.361328 0.11237,-0.318236 0.45923,-1.155362 0.76953,-1.859375 0.31038,-0.703974 1.02031,-2.431818 1.57813,-3.839843 0.55786,-1.407988 1.19617,-2.991532 1.41992,-3.519532 1.52062,-3.591609 1.81368,-4.660539 1.7207,-6.289062 -0.0962,-1.683402 -0.11514,-1.71354 -1.16796,-1.814453 -1.20537,-0.115465 -2.02585,0.466261 -2.77344,1.964844 -0.52347,1.049877 -0.64743,3.097656 -0.1875,3.097656 0.27209,0 -0.43012,2.177811 -1.39258,4.320312 -0.2372,0.528 -0.90513,2.111544 -1.48438,3.519532 -1.97034,4.78953 -6.17365,12.846238 -8.00586,15.34375 -0.63817,0.870047 -0.92578,1.642207 -0.92578,2.480468 l -0.002,-0.002 c 0,1.160428 0.0492,1.21667 1.04102,1.212891 1.75018,-0.0073 2.48047,-0.327424 2.48047,-1.085938 0,-0.916119 3.53862,-4.906496 11.24414,-12.677734 7.10309,-7.163641 12.07153,-11.725059 16.5957,-15.238281 2.12035,-1.646514 5.11914,-3.518085 5.11914,-3.195313 0,0.371377 -1.32399,3.613866 -1.97656,4.841797 -2.37665,4.472013 -6.95144,11.105314 -12.42578,18.017578 -1.21754,1.537399 -1.59766,2.281661 -1.59766,3.121094 0,1.067905 0.0408,1.101562 1.24219,1.101562 1.16677,0 1.34513,-0.139487 2.98828,-2.320312 3.25636,-4.321965 13.40306,-14.160822 20.08984,-19.480469 3.69921,-2.942891 8.96156,-6.07123 8.95899,-5.326172 -0.003,0.773329 -2.92598,5.862119 -3.81836,6.646485 -0.10012,0.08803 -0.72491,0.990149 -1.38868,2.005859 -1.27237,1.947024 -8.8548,11.622823 -10.42773,13.306641 -0.50763,0.543382 -1.61736,2.003813 -2.46484,3.24414 -1.28894,1.886627 -1.54543,2.50252 -1.56055,3.769531 l -0.0176,1.513672 1.94141,-0.02539 c 1.34067,-0.01905 2.45309,-0.267755 3.58789,-0.800782 1.5436,-0.725177 1.64491,-0.846016 1.65625,-1.972656 0.013,-1.184882 -0.003,-1.199218 -1.24024,-1.199218 -0.70325,0 -1.32335,0.175886 -1.41406,0.40039 -0.0888,0.219969 -0.17238,0.25381 -0.1875,0.07617 -0.0139,-0.177789 0.30377,-0.682895 0.70508,-1.121094 0.40131,-0.438198 1.58872,-1.875312 2.63867,-3.195312 1.04999,-1.32 1.98881,-2.472484 2.08594,-2.560547 0.52513,-0.476069 5.52663,-6.880781 6.87305,-8.800781 0.86396,-1.232013 1.65015,-2.310375 1.74804,-2.398438 0.46031,-0.413972 2.899,-4.492264 3.52735,-5.898437 0.89427,-2.00126 0.79814,-5.030836 -0.1836,-5.773438 -0.3808,-0.288057 -0.86526,-0.448477 -1.44531,-0.482422 z m 20.86328,2.560547 c -1.92559,0.01304 -3.90678,0.605009 -6.59765,1.970703 -2.39845,1.217273 -7.43534,4.397706 -9.59961,6.060547 -3.61501,2.777386 -10.28681,11.147709 -11.65821,14.626953 -1.22456,3.106734 -0.61813,5.485538 1.55664,6.101563 0.6279,0.179149 1.87771,0.271661 2.77735,0.207031 1.67149,-0.120302 6.19197,-1.80717 6.99414,-2.609375 0.24484,-0.244838 0.54312,-0.445312 0.66406,-0.445312 0.67548,0 5.6605,-4.080532 10.03516,-8.214844 1.33553,-1.262136 2.48476,-2.23789 2.55468,-2.167969 0.0699,0.06992 -0.0233,0.31103 -0.20703,0.535156 -0.18368,0.224277 -0.50142,1.488594 -0.70703,2.808594 -0.2982,1.914217 -0.28793,2.72272 0.0488,3.992187 0.48348,1.822262 1.27262,2.394785 3.30469,2.402344 1.49688,0.0055 6.01622,-1.21093 8.3164,-2.238281 0.88003,-0.393033 2.39336,-1.060955 3.36133,-1.484375 0.96801,-0.423383 2.26292,-1.059102 2.87891,-1.412109 0.61602,-0.35297 1.66029,-0.867114 2.32031,-1.144532 1.05184,-0.441902 1.20117,-0.638763 1.20117,-1.589843 0,-1.045569 -0.0466,-1.085938 -1.23242,-1.085938 -0.67695,0 -1.64913,0.205315 -2.16016,0.457031 -4.6329,2.281021 -10.87687,4.80845 -13.13476,5.314453 -1.35145,0.302892 -1.58771,0.273707 -1.9668,-0.234374 -0.5582,-0.748158 -0.30562,-2.373947 0.79883,-5.132813 1.2353,-3.085682 4.75494,-9.21791 6.06836,-10.572266 1.88481,-1.943508 2.70342,-3.290234 2.60742,-4.291015 -0.0895,-0.932523 -0.22495,-1.073227 -1.12305,-1.160156 -1.07947,-0.104504 -1.66277,0.319279 -3.3789,2.453124 l -0.87891,1.09375 v -1.279296 c 0,-1.720933 -1.20105,-2.972276 -2.84375,-2.960938 z m -0.48242,3.136719 c 0.15959,0.01819 0.21335,0.148764 0.14844,0.376953 -0.0752,0.264 -0.19621,1.078604 -0.26953,1.810547 -0.10553,1.055244 -0.0224,1.352902 0.40234,1.439453 0.96782,0.197291 -10.95487,11.791349 -15.51562,15.087891 -1.14399,0.826885 -2.23246,1.627359 -2.41993,1.779297 -0.18746,0.151937 -1.4435,0.799994 -2.79101,1.439453 -2.78559,1.321852 -3.427,1.407148 -4.19141,0.5625 -0.51194,-0.565644 -0.4996,-0.678545 0.2207,-2.033203 0.66335,-1.247623 5.09837,-7.485757 5.63672,-7.927735 0.10719,-0.08803 0.60891,-0.663309 1.11328,-1.279297 2.91912,-3.564926 12.66266,-10.251015 15.8711,-10.890625 0.61599,-0.122834 1.33542,-0.278427 1.59961,-0.345703 0.0761,-0.01947 0.14211,-0.02559 0.19531,-0.01953 z m -75.25586,1.65625 c 0.0593,0 0.1816,0.288751 0.27344,0.640625 0.1282,0.490356 0.4375,0.638672 1.31836,0.638672 0.97149,0 1.1531,-0.110473 1.17578,-0.71875 0.0232,-0.642596 0.0725,-0.616585 0.46484,0.240234 0.24159,0.528 0.44752,1.23677 0.45508,1.576172 0.0183,0.784101 -2.63614,6.064833 -3.79101,7.542969 -0.48129,0.615987 -1.44187,1.981209 -2.13477,3.033203 -1.74524,2.649751 -7.29628,8.188535 -9.41992,9.398437 -2.37064,1.35069 -3.01181,1.313281 -3.82227,-0.224609 -0.72884,-1.382967 0.0601,-3.668388 2.79297,-8.085938 3.13883,-5.073751 9.48001,-12.761718 10.52539,-12.761718 0.23286,0 0.42383,-0.119799 0.42383,-0.267578 0,-0.220763 1.35897,-1.011719 1.73828,-1.011719 z m -11.80273,69.439453 c -0.61506,0 -1.21681,0.20021 -1.35938,0.45117 -0.14074,0.2479 -0.935,1.22004 -1.76562,2.16016 -2.55664,2.89368 -5.73719,6.80346 -5.94336,7.30859 -0.10775,0.264 -0.4671,0.76922 -0.79883,1.1211 -0.94772,1.00561 -5.63916,7.61106 -9.82617,13.83398 -2.1039,3.12688 -3.97155,5.85746 -4.15039,6.06836 -0.72745,0.85727 -7.36824,11.17091 -10.46875,16.25781 -1.82364,2.99203 -3.46134,5.65611 -3.63868,5.91992 -0.17733,0.264 -0.57008,0.88413 -0.87304,1.37891 -1.73146,2.82777 -5.20268,7.25977 -5.68555,7.25977 -0.37688,0 -0.0608,-2.33144 0.81836,-6.0254 1.1976,-5.03217 0.9691,-4.16853 2.5625,-9.65429 2.18512,-7.52292 2.75196,-11.71231 1.89258,-13.97266 -0.45329,-1.19233 -0.81317,-1.37525 -2.69727,-1.38281 -1.31554,-0.004 -1.90748,0.20442 -3.35937,1.17969 -2.93691,1.9728 -6.61007,5.83451 -12.349612,12.98047 -0.249006,0.30999 -0.453125,0.64845 -0.453125,0.7539 0,0.10556 -0.603655,0.91327 -1.341797,1.79492 -1.388084,1.65789 -5.68359,8.11038 -10.613281,15.94141 -1.559142,2.47676 -2.888747,4.447 -2.955078,4.38086 -0.06635,-0.0663 0.103051,-1.11801 0.376953,-2.33789 0.273902,-1.21984 0.633032,-2.8662 0.796875,-3.6582 0.29918,-1.44628 0.677456,-2.80321 2.091797,-7.49024 0.420178,-1.39238 0.763672,-2.72673 0.763672,-2.96484 0,-0.238 0.144451,-0.68252 0.320312,-0.98828 0.440878,-0.76615 5.851002,-17.71436 7.685547,-24.07618 0.380644,-1.32 0.952505,-3.19214 1.269531,-4.16015 0.31702,-0.96801 0.656572,-2.19075 0.75586,-2.71875 0.09927,-0.528 0.484798,-2.32801 0.857422,-4 0.380938,-1.70937 0.758449,-4.827 0.861328,-7.1211 l 0.183596,-4.08007 h -1.306643 c -1.302414,0 -1.306807,0.004 -1.521485,1.43554 -0.118488,0.78977 -0.124638,1.79799 -0.01367,2.24024 0.319619,1.27343 -1.272998,8.71695 -3.183594,14.88476 -0.408896,1.32 -0.841341,2.89483 -0.962891,3.5 -0.121527,0.60514 -0.712859,2.62162 -1.3125,4.48047 -0.599637,1.85885 -1.523037,4.74794 -2.052734,6.41992 -0.529693,1.67203 -1.08923,3.32782 -1.242188,3.67969 -0.295423,0.67986 -1.865454,5.58912 -3.480468,10.87891 -1.009883,3.30773 -1.790311,6.23591 -2.285157,8.57226 -0.156971,0.74113 -0.513371,2.35588 -0.791015,3.58789 -0.584002,2.59151 -0.999631,7.23047 -0.714844,7.97266 0.143078,0.37285 0.631444,0.50781 1.835938,0.50781 1.422893,0 1.765893,-0.13314 2.568359,-0.99218 0.509212,-0.54509 1.10672,-1.33157 1.328125,-1.75 0.388925,-0.73501 4.169207,-6.59424 9.175781,-14.21876 1.329041,-2.02397 2.681765,-3.96648 3.005859,-4.31835 0.32408,-0.35199 1.254157,-1.57672 2.066407,-2.72071 1.93554,-2.7261 3.82246,-5.06424 6.42969,-7.96484 1.16869,-1.3002 2.19717,-2.45453 2.28515,-2.56641 0.31721,-0.40271 3.69791,-3.11706 4.52539,-3.63281 0.79393,-0.49466 0.85532,-0.49177 0.99414,0.0391 0.20133,0.76985 -0.23984,3.86371 -0.84179,5.89649 -0.97646,3.29737 -3.05119,10.994 -3.55469,13.18945 -0.28255,1.23201 -0.65032,2.84213 -0.81836,3.58008 -0.48348,2.12322 -0.37837,6.38792 0.18359,7.47461 0.42451,0.82091 0.66465,0.94531 1.84766,0.94531 1.86529,0 3.26874,-1.03588 5.20898,-3.8418 0.42596,-0.61598 1.35506,-1.91089 2.06446,-2.8789 1.25348,-1.71043 3.38008,-5.09333 6.45117,-10.26172 2.77345,-4.66745 18.68036,-28.33808 22.13476,-32.9375 1.05323,-1.40236 4.16987,-5.40198 6.4336,-8.25586 0.1812,-0.22847 0.56999,-0.66122 0.86328,-0.96094 1.9525,-1.99423 2.82135,-3.46377 2.82422,-4.7832 0.003,-1.33731 -0.0155,-1.36133 -1.10156,-1.36133 z m 33.88281,6.125 c -0.21235,-4.5e-4 -0.44707,0.0159 -0.70508,0.0449 -1.75317,0.19763 -2.89368,1.24964 -5.51758,5.08594 -2.60575,3.80973 -4.68266,7.62174 -7.28906,13.38477 -0.51738,1.14402 -1.23394,2.72753 -1.59375,3.51953 -1.03714,2.2826 -3.0008,7.5902 -4.91211,13.27929 -1.57674,4.69327 -2.87996,13.35247 -2.39648,15.92969 0.11625,0.61969 0.5184,1.51646 0.89257,1.99219 0.64536,0.82038 0.79947,0.85803 2.97852,0.74804 2.0798,-0.10499 2.53762,-0.2606 4.83984,-1.65234 1.39862,-0.84552 3.13581,-2.06823 3.86133,-2.7168 0.72552,-0.64856 1.80113,-1.56907 2.39063,-2.04492 0.58949,-0.4758 1.9001,-1.63735 2.91211,-2.58008 1.49718,-1.39479 1.83984,-1.90367 1.83984,-2.73437 0,-0.92633 -0.091,-1.01953 -0.98437,-1.01953 -0.91091,0 -3.11132,1.42678 -5.25586,3.4082 -0.35214,0.32538 -1.16791,0.98548 -1.8125,1.4668 -0.64464,0.48136 -1.37026,1.07338 -1.61329,1.3164 -1.00221,1.00222 -5.55055,3.72852 -6.2207,3.72852 -1.5535,0 -1.48067,-3.3983 0.22461,-10.56055 0.18856,-0.792 0.42202,-1.83805 0.51953,-2.32422 0.0975,-0.48612 0.30522,-0.96221 0.46094,-1.05859 0.15572,-0.0962 0.2832,-0.47109 0.2832,-0.83203 0,-1.55667 4.95929,-13.66702 8.5625,-20.90625 2.16295,-4.34559 2.38035,-4.72083 4.85938,-8.47852 0.63859,-0.96797 1.35816,-2.15688 1.60156,-2.64062 0.2434,-0.48359 0.5036,-0.81866 0.57617,-0.7461 0.0726,0.0726 -0.0247,0.4217 -0.21484,0.77735 -0.19011,0.3555 -0.3457,1.01522 -0.3457,1.4668 -10e-6,0.48846 -0.17999,0.82226 -0.44532,0.82226 -0.55835,0 -0.83398,0.69582 -0.83398,2.10547 0,1.03601 0.058,1.09375 1.11523,1.09375 1.05483,0 1.1268,-0.0697 1.32031,-1.2793 0.1126,-0.70401 0.37693,-1.28125 0.58594,-1.28125 0.64676,0 1.78791,-2.5669 1.98633,-4.46679 0.21731,-2.0793 -0.18345,-2.84451 -1.66992,-2.84766 z m 110.06445,1.23633 c -0.83577,0 -1.11001,0.17942 -1.45508,0.95898 -0.23368,0.528 -0.51709,0.96094 -0.63086,0.96094 -0.11399,0 -0.295,0.34965 -0.40234,0.77734 -0.10734,0.4277 -0.37618,0.96678 -0.59766,1.19922 -0.39707,0.41643 -4.07617,7.65128 -4.07617,8.01563 0,0.60442 -6.5815,13.94009 -8.375,16.9707 -0.54538,0.92156 -1.62006,2.87598 -2.38867,4.3418 -1.23651,2.35789 -1.39648,2.90568 -1.39648,4.75976 v 2.09571 l 1.52734,-0.14649 c 1.11477,-0.10711 2.13249,-0.54024 3.75977,-1.59961 1.22725,-0.79895 3.60393,-2.29934 5.28125,-3.33398 1.67731,-1.03465 3.3331,-2.05883 3.67968,-2.27539 1.46514,-0.91506 3.92229,-1.93779 5.14844,-2.14453 2.01317,-0.33963 2.05615,0.34321 0.32422,5.23437 -0.83535,2.35873 -1.13688,6.09361 -0.64063,7.94531 0.15765,0.58848 0.41886,0.71875 1.42383,0.71875 h 1.23047 l -0.0684,-2.66797 c -0.0374,-1.49416 0.0956,-3.01008 0.30078,-3.4414 0.94999,-1.9951 1.71447,-5.24296 1.70313,-7.25586 -0.0136,-2.8831 -0.36689,-3.30365 -2.93164,-3.49414 -3.30626,-0.24571 -5.52987,0.64443 -12.82032,5.13867 -1.89233,1.16655 -3.52578,2.12109 -3.63085,2.12109 -0.10508,0 0.12995,-0.53923 0.52343,-1.19921 0.39349,-0.66002 1.05676,-1.81258 1.47266,-2.56055 0.4159,-0.74801 1.13891,-2.04487 1.60742,-2.88086 1.33765,-2.38673 6.18945,-12.36499 6.18945,-12.73047 0,-0.2171 2.09522,-4.68204 3.375,-7.18945 2.09027,-4.09546 2.54268,-4.79431 3.10352,-4.79688 0.44625,-0.002 0.56055,-0.28277 0.56055,-1.3789 0,-1.64376 -0.41901,-2.14258 -1.79688,-2.14258 z m -93.5625,13.72461 -1.51953,0.0977 c -1.5052,0.0966 -1.52283,0.10844 -1.62109,1.29688 -0.0544,0.66002 0.0372,1.19922 0.20312,1.19922 0.3052,0 -0.41212,2.44142 -0.89258,3.03711 -0.14305,0.17737 -1.12854,2.33871 -2.18945,4.80273 -1.92661,4.47458 -1.93099,4.48129 -3.63477,5.44141 -0.93819,0.52872 -2.49878,1.31791 -3.46679,1.75195 -2.92184,1.31017 -3.19922,1.55315 -3.19922,2.80859 v 1.12891 l 1.67969,-0.17969 c 0.92402,-0.0988 2.36636,-0.54771 3.20508,-0.99804 l 1.52539,-0.82032 -0.45118,0.875 c -1.09028,2.11488 -4.03906,8.45298 -4.03906,8.68164 0,0.13868 -0.21666,0.68568 -0.48047,1.21485 -0.79049,1.58422 -0.98784,4.72343 -0.35742,5.68554 0.78973,1.20533 3.02228,1.13378 5.47266,-0.17382 1.01454,-0.54138 2.00703,-1.1135 2.20508,-1.27149 0.19823,-0.1581 1.29542,-1.04494 2.43945,-1.9707 1.14399,-0.92576 2.36883,-1.90113 2.7207,-2.16797 0.35203,-0.26676 1.54063,-1.41157 2.64063,-2.54297 1.63906,-1.68582 2,-2.24815 2,-3.11914 0,-0.98691 -0.076,-1.0625 -1.04688,-1.0625 -0.78879,0 -1.40149,0.33342 -2.49805,1.35938 -0.79948,0.74796 -2.45435,2.1908 -3.67578,3.20507 -2.4709,2.05183 -2.363,1.96593 -4.14062,3.28321 -0.70398,0.52169 -1.35139,1.02213 -1.43945,1.11133 -0.33544,0.34034 -1.92543,1.06285 -2.05469,0.93359 -0.26631,-0.26631 1.1075,-3.63735 3.33398,-8.17773 1.24498,-2.53875 2.4095,-5.00574 2.58789,-5.48438 0.91238,-2.45008 1.0232,-2.55952 3.9043,-3.88281 1.56023,-0.71664 4.33695,-1.83632 6.17187,-2.48828 l 3.33594,-1.18555 v -1.2168 c 0,-1.12471 -0.0691,-1.21679 -0.91211,-1.21679 -0.83614,0 -2.07918,0.31087 -3.72656,0.93359 -0.35203,0.13304 -1.76425,0.622 -3.13867,1.08594 l -2.5,0.84375 0.21484,-0.71289 c 0.27341,-0.90705 1.03905,-2.71943 1.58399,-3.75196 1.1176,-2.1177 1.75961,-4.42924 1.75976,-6.33593 z m 38.79883,1.95898 c -0.99163,-0.004 -1.03906,0.0515 -1.03906,1.21094 0,0.66882 0.17153,1.38833 0.38281,1.59961 0.2112,0.21127 0.91644,0.38476 1.56641,0.38476 1.27502,0 1.57031,-0.35844 1.57031,-1.9082 0,-0.97799 -0.58054,-1.27955 -2.48047,-1.28711 z m -14.54883,4.16797 c -2.30876,-0.0116 -2.54144,0.0502 -3.58984,0.9707 -1.06526,0.93544 -1.17705,0.96558 -2.25391,0.57618 -2.41776,-0.87425 -6.28009,1.10505 -9.30273,4.76953 -1.51495,1.83662 -1.74414,2.29566 -1.74414,3.49218 0,1.35886 0.0161,1.37891 1.10937,1.37891 0.8236,0 1.2052,-0.1859 1.48828,-0.7207 0.76865,-1.45255 2.68363,-3.52041 4.39258,-4.74414 3.15651,-2.26035 3.45102,-1.45612 0.84961,2.32031 -0.96801,1.40523 -1.75976,2.62672 -1.75976,2.71289 0,0.0863 -0.4109,0.75842 -0.91407,1.49414 -0.50313,0.73569 -1.46551,2.41633 -2.13672,3.73633 -0.67124,1.32 -1.49691,2.80332 -1.83593,3.29492 -0.35936,0.52108 -0.68815,1.68941 -0.78907,2.80078 l -0.17382,1.90625 1.24609,-0.0117 c 0.68443,-0.006 1.45966,-0.18609 1.72461,-0.40039 0.78788,-0.63783 3.99147,-5.08824 4.65625,-6.46875 0.33902,-0.70397 0.77322,-1.49557 0.96484,-1.75976 0.1917,-0.264 0.60055,-1.20006 0.90821,-2.08008 0.3075,-0.87999 0.68318,-1.88836 0.83398,-2.24024 0.15095,-0.35202 0.57032,-1.33964 0.93164,-2.19336 0.75999,-1.79572 3.54683,-5.14688 4.83399,-5.8125 0.76849,-0.39737 1.1018,-0.39157 2.5957,0.0391 0.94265,0.27175 2.62443,0.57159 3.73633,0.66797 l 2.02148,0.17578 -0.10156,-1.19532 -0.10156,-1.19726 -2.56055,-0.75 c -1.67513,-0.49058 -3.41378,-0.75416 -5.0293,-0.76172 z m 40.4043,2.54688 c -2.70055,0 -8.24993,4.11842 -12.9336,9.5996 -3.19729,3.74174 -4.0556,8.72211 -1.69921,9.86133 v -0.002 c 1.03891,0.50237 4.50951,0.44778 6.64453,-0.10547 3.67241,-0.95161 11.34723,-4.42262 15.08008,-6.82031 1.5962,-1.02531 1.8285,-1.3038 1.83984,-2.21289 0.0127,-0.95233 -0.0703,-1.03906 -0.97656,-1.03906 -0.88328,0 -2.73678,0.81888 -7.33008,3.24023 -2.80562,1.479 -7.93852,3.51192 -10.66016,4.22266 -1.67686,0.43804 -1.87752,0.43299 -2.5039,-0.0742 -0.66717,-0.54029 -0.66885,-0.57769 -0.11719,-1.74024 0.61599,-1.29811 4.41369,-5.82893 6.19336,-7.38867 0.61504,-0.53903 1.27511,-1.12465 1.46484,-1.30078 2.19118,-2.03214 4.98193,-3.67969 6.23242,-3.67969 0.5503,0 0.66993,-0.19646 0.66993,-1.08594 0,-1.17112 -0.39056,-1.4746 -1.9043,-1.4746 z m -122.21484,1.92968 c -0.39672,0.0219 -0.67969,0.1222 -0.67969,0.31055 0,0.17613 -0.29289,0.32031 -0.65039,0.32031 -0.35753,0 -0.7327,0.21628 -0.83399,0.48047 -0.10131,0.26381 -0.36312,0.47852 -0.58203,0.47852 -1.19577,0 -8.69806,6.85978 -10.64648,9.73437 -0.48724,0.71887 -0.96663,1.37874 -1.06641,1.4668 -0.49102,0.43313 -4.41937,6.38796 -4.88672,7.4082 -0.78284,1.70892 -0.71503,4.75519 0.12891,5.82813 0.60033,0.76301 0.87011,0.84375 2.83984,0.84375 3.2491,0 6.16161,-1.48261 11.03516,-5.61719 l 2.10156,-1.7832 0.002,2.5 c 9.4e-4,1.96335 0.14202,2.73282 0.66211,3.58593 0.84159,1.38048 1.35091,1.88509 2.27539,2.25586 1.37097,0.54974 4.9225,0.37951 6.8086,-0.32617 0.97459,-0.36465 1.77148,-0.79571 1.77148,-0.95898 0,-0.16328 0.21628,-0.29688 0.48047,-0.29688 0.33524,0 0.48047,-0.33884 0.48047,-1.12109 0,-1.0667 -0.0544,-1.11914 -1.12109,-1.11914 -0.61599,0 -1.11914,0.14418 -1.11914,0.32031 0,0.17613 -0.35164,0.32031 -0.78126,0.32031 -0.42961,0 -0.86429,0.13486 -0.96679,0.30078 -0.10249,0.16566 -0.8194,0.39764 -1.59375,0.51368 -2.48579,0.37277 -4.35421,-1.53663 -4.32813,-4.42188 0.0189,-2.10017 1.16209,-5.37413 2.30078,-6.58789 1.89272,-2.01751 3.72417,-4.38009 6.02344,-7.76953 1.98977,-2.93322 2.22656,-3.44337 2.22656,-4.81836 v -1.53711 h -1.39843 c -1.47882,0 -3.08203,0.92786 -3.08203,1.7832 0,0.25115 -0.14345,0.45703 -0.31836,0.45703 -0.1749,0 -0.7502,0.59774 -1.2793,1.32813 l -0.96289,1.32812 v -2.10937 c 0,-1.81754 -0.0983,-2.18025 -0.71094,-2.60938 -0.4928,-0.34511 -1.46772,-0.52484 -2.1289,-0.48828 z m 96.05468,0.043 c -0.524,0.067 -0.89281,0.38241 -1.64453,1.2461 -1.26675,1.45542 -2.52238,3.51609 -4.55078,7.46679 -1.90091,3.70228 -2.54376,5.54377 -2.75391,7.89063 -0.15382,1.71624 -0.0899,2.19528 0.35547,2.64062 h 0.002 c 0.39216,0.39236 1.08295,0.54297 2.48046,0.54297 1.74331,0 2.13669,-0.13317 3.89844,-1.32422 2.58921,-1.75049 3.07813,-2.29968 3.07813,-3.46094 0,-0.88531 -0.0937,-0.9746 -1.04297,-0.9746 -0.7053,0 -1.73849,0.46607 -3.18945,1.43945 -1.88119,1.26206 -2.80665,1.70047 -2.80665,1.33008 0,-0.0604 0.26645,-0.88828 0.59375,-1.83985 1.04792,-3.04467 4.49768,-9.49947 5.87305,-10.99023 0.31495,-0.34118 0.57227,-0.73604 0.57227,-0.87891 0,-0.14286 0.22403,-0.25976 0.49804,-0.25976 0.38869,0 0.47712,-0.29941 0.40039,-1.35938 -0.093,-1.28526 -0.15683,-1.36613 -1.16796,-1.46289 -0.22918,-0.022 -0.42104,-0.0282 -0.59571,-0.006 z m -96.28515,3.46875 c 0.63556,0 0.64769,0.33658 0.041,1.13867 -0.2584,0.34164 -0.4748,1.1603 -0.48047,1.82032 -0.009,1.06922 0.0761,1.19921 0.78907,1.19921 0.44,0 0.80078,0.0655 0.80078,0.14454 0,0.0792 -0.50359,0.97918 -1.11914,2 -0.61555,1.02081 -1.11883,2.12342 -1.11914,2.44922 -0.002,1.34199 -8.71421,8.97884 -12.44141,10.90624 -1.92211,0.99391 -2.50385,1.1221 -3.10352,0.6836 -0.53863,-0.39387 -0.52436,-0.50354 0.27344,-2.0293 1.85672,-3.5509 7.09257,-10.44084 10.03906,-13.21094 3.05548,-2.87251 5.81838,-5.10156 6.32032,-5.10156 z m 11.56054,56.6836 c -0.68771,0.0619 -1.09807,0.41592 -2.3164,1.61523 -1.48895,1.46578 -4.89453,6.22083 -4.89453,6.83398 0,0.1146 -0.26801,0.58946 -0.59766,1.05665 -1.0813,1.5324 -7.0834,13.7408 -8.67774,17.65039 -0.39475,0.96801 -1.13022,2.64628 -1.63281,3.72851 -0.50259,1.08223 -1.03982,2.53258 -1.19531,3.22461 -0.15549,0.69203 -0.45426,1.53516 -0.66406,1.87305 -0.37074,0.59629 -0.37691,0.59469 -0.22656,-0.0273 0.51087,-2.11328 1.38458,-9.85573 1.80664,-16 0.19343,-2.81601 0.49571,-6.05326 0.67187,-7.19336 0.17617,-1.14013 0.40348,-3.52333 0.50391,-5.29687 0.23243,-4.10449 -0.001,-4.62891 -2.04883,-4.62891 -1.30095,0 -1.61647,0.14607 -2.62891,1.22657 -0.63275,0.67525 -1.43678,1.79172 -1.78711,2.48046 -0.35031,0.68875 -0.70914,1.32405 -0.79883,1.41211 -0.0897,0.088 -0.59011,1.09621 -1.11132,2.24024 -1.27498,2.79836 -1.35256,2.88086 -2.73438,2.88086 -1.44326,0 -1.41717,-0.0738 -2.03125,5.91992 -0.30504,2.97744 -0.81224,5.47787 -1.78125,8.79883 -1.68166,5.76336 -2.19006,7.5356 -2.57617,8.96094 -0.16687,0.61598 -0.73456,2.56029 -1.25977,4.32031 -0.52521,1.76001 -1.46696,5.28787 -2.09375,7.83984 -0.62678,2.55201 -1.26769,4.99944 -1.42382,5.43945 -0.15612,0.44002 -0.47209,1.66471 -0.70313,2.72071 -0.23105,1.056 -0.60533,2.27877 -0.83203,2.71875 -0.43801,0.85009 -0.55923,2.63225 -0.20313,2.98828 0.11734,0.11716 0.6818,0.21289 1.25391,0.21289 0.95149,0 1.08594,-0.12916 1.58203,-1.51953 0.29829,-0.836 0.73229,-2.03951 0.96485,-2.67383 0.23256,-0.63432 0.77998,-2.36216 1.21679,-3.83984 0.43682,-1.47769 1.24989,-3.91028 1.80664,-5.40625 2.40263,-6.45589 4.68199,-15.27689 5.78711,-22.40039 0.32968,-2.12504 1.96707,-7.04612 3.40821,-10.24024 1.80414,-3.9987 4.00378,-8.32394 4.71875,-9.2793 l 0.83789,-1.12109 -0.19141,1.44141 c -0.10597,0.792 -0.32129,2.30337 -0.47851,3.35937 -0.15721,1.056 -0.44598,4.22305 -0.64063,7.03906 -0.46118,6.67125 -1.1295,12.15062 -2.09766,17.20313 -0.76062,3.96941 -0.98338,7.02014 -0.58789,8.05078 0.13565,0.35346 0.61263,0.50781 1.57813,0.50781 1.56807,0 2.38337,-0.75257 3.05664,-2.82031 0.21132,-0.64898 0.79417,-2.08504 1.29687,-3.18945 0.5027,-1.10438 0.91407,-2.13165 0.91407,-2.28321 0,-0.15159 0.6494,-1.65242 1.4414,-3.33593 0.792,-1.68352 1.43946,-3.13548 1.43946,-3.22657 0,-0.52936 7.0333,-14.89862 8.72265,-17.82031 1.70463,-2.94803 4.21235,-6.661 4.60156,-6.81445 0.40067,-0.1578 0.41141,-0.2396 -0.49023,3.64844 -0.34696,1.49597 -0.92862,4.01756 -1.29297,5.60156 -0.36427,1.584 -0.80018,3.38397 -0.96875,4 -0.5701,2.08467 -1.35499,5.27212 -1.61328,6.55859 -0.2431,1.21077 -0.72803,3.19461 -1.76367,7.20117 -0.41465,1.60419 -0.96584,4.61821 -1.7832,9.75977 -0.16788,1.056 -0.44556,3.63573 -0.61719,5.73242 -0.44722,5.46316 0.14579,7.22656 2.42773,7.22656 1.05635,0 1.09577,-0.0439 1.08594,-1.19921 -0.006,-0.66002 -0.22011,-1.47865 -0.47852,-1.82032 -0.61067,-0.80764 -0.60289,-3.30263 0.0234,-7.01367 1.42897,-8.46663 2.00795,-11.20733 4.19531,-19.88672 1.14531,-4.54454 1.3246,-5.32499 2.8125,-12.16015 0.45978,-2.112 0.9846,-4.343 1.16602,-4.95899 0.18104,-0.61602 0.28489,-2.48817 0.23047,-4.16015 l -0.0977,-3.03907 -1.41015,-0.10156 c -0.33115,-0.0237 -0.59108,-0.0362 -0.82032,-0.0156 z m 63.18946,15.3164 v 1.64258 h 0.002 v 1.64453 l 1.82812,-0.21484 c 2.01744,-0.23709 2.31862,-0.50155 2.32618,-2.03321 l 0.004,-1.03906 h -2.08008 z m -20.01758,6.71875 c -1.15918,0 -1.71849,0.20829 -2.72071,1.01367 -0.69369,0.55748 -1.26171,1.20513 -1.26171,1.43946 0,0.23444 -0.15642,0.42773 -0.34766,0.42773 -0.75538,0 -7.32078,7.09238 -8.81445,9.52149 -0.82103,1.33519 -1.02886,3.94021 -0.35742,4.48242 1.14145,0.92171 3.82317,0.78327 10.16015,-0.52539 5.99853,-1.23882 7.55942,-1.1829 6.67188,0.23828 -0.23456,0.37561 -0.53613,0.68359 -0.66993,0.68359 -0.13379,0 -0.24218,0.19555 -0.24218,0.43555 0,0.45902 -3.96036,4.32823 -5.59961,5.4707 -0.528,0.36798 -1.63016,1.31399 -2.44922,2.10156 -0.81906,0.78758 -2.43239,2.15127 -3.58594,3.03125 -1.9158,1.46159 -2.09999,1.70461 -2.11133,2.80079 -0.0129,1.14973 0.0316,1.19921 1.05469,1.19921 0.82813,0 1.64889,-0.45792 3.6582,-2.04101 6.2713,-4.94094 11.79184,-10.23587 12.86719,-12.34375 0.76895,-1.50754 0.84515,-3.60993 0.15625,-4.29883 -0.26963,-0.26967 -0.96541,-0.5806 -1.54492,-0.68945 -2.20929,-0.41447 -10.12092,0.38925 -12.66016,1.28515 -0.76218,0.26895 -1.72906,0.48829 -2.14843,0.48829 -0.69241,0 -0.72524,-0.0639 -0.35938,-0.69336 0.22152,-0.38117 0.619,-0.93983 0.88281,-1.24219 0.264,-0.30236 1.12793,-1.32192 1.91993,-2.26563 0.792,-0.94371 2.05277,-2.31358 2.80078,-3.04492 0.748,-0.73138 1.35937,-1.48813 1.35937,-1.68164 0,-0.19351 0.10833,-0.35329 0.24024,-0.35352 0.39428,-6.4e-4 2,-1.48721 2,-1.85156 0,-0.18538 0.46706,-0.43853 1.03906,-0.5625 1.24641,-0.27038 1.50806,-0.6132 1.51562,-1.98437 0.005,-1.02112 -0.0197,-1.04102 -1.45312,-1.04102 z m -20.58203,2.56055 c -1.20737,0 -1.26968,0.0572 -2.35742,2.16016 -0.61452,1.18798 -1.42548,2.69935 -1.80079,3.35937 -1.62421,2.85555 -1.91806,3.38027 -2.92968,5.20117 -1.68533,3.03356 -5.00486,7.99715 -6.74805,10.0918 -2.12323,2.55133 -4.76645,4.65072 -5.14063,4.08398 -0.3092,-0.46824 -0.12161,-2.52554 0.53516,-5.85742 0.24287,-1.23197 0.68491,-3.46297 0.98047,-4.95898 0.29575,-1.49602 0.66787,-3.49062 0.82812,-4.43164 0.16018,-0.94103 0.57492,-2.26733 0.92188,-2.94727 0.34688,-0.67997 0.63086,-1.74612 0.63086,-2.36914 0,-1.07985 -0.0517,-1.13281 -1.11328,-1.13281 -0.96839,0 -1.19535,0.16044 -1.73828,1.22461 -0.56191,1.10146 -2.10446,7.7712 -3.26954,14.13672 -0.58473,3.19494 -0.58473,8.36626 0,9.07031 0.55601,0.66931 3.23427,0.71559 4.47071,0.0762 1.67089,-0.86404 3.85854,-2.92254 5.98437,-5.62891 1.17438,-1.49506 2.19464,-2.78189 2.26758,-2.85937 0.073,-0.0772 -0.0856,0.48085 -0.35351,1.24023 -0.60401,1.71228 -0.63114,5.7252 -0.043,6.5 0.61557,0.8109 3.35902,0.75131 5.08789,-0.11132 0.74097,-0.36976 2.24766,-1.55366 3.34765,-2.63086 1.64848,-1.61428 2,-2.14299 2,-3.00782 0,-0.98914 -0.0652,-1.04882 -1.13867,-1.04882 -0.88845,0 -1.43993,0.28237 -2.50976,1.28515 -2.67731,2.50934 -4.67188,3.76192 -4.67188,2.93359 0,-0.5868 3.88023,-12.44119 4.4707,-13.6582 0.1708,-0.35199 0.67631,-1.64884 1.12305,-2.88086 0.44678,-1.23201 0.93923,-2.52898 1.0957,-2.88086 0.15636,-0.35198 0.51493,-1.16404 0.79688,-1.80664 0.28207,-0.64259 0.51367,-1.61477 0.51367,-2.16015 0,-0.93835 -0.0668,-0.99219 -1.24023,-0.99219 z m 60.79882,1.91992 c -1.13404,0 -1.48686,0.24404 -4.05078,2.80078 -4.15256,4.14089 -7.61441,8.13889 -9.95507,11.4961 -1.7497,2.50956 -2.10613,3.24857 -2.25391,4.67968 -0.13776,1.33527 -0.0599,1.81703 0.36523,2.24219 0.41847,0.41847 1.12426,0.54102 3.10938,0.54102 3.50967,0 5.42622,-0.56246 11.06641,-3.24414 2.55836,-1.21648 2.64062,-1.28887 2.64062,-2.36524 0,-1.05929 -0.0538,-1.11133 -1.13867,-1.11133 -0.62566,0 -1.74825,0.27936 -2.49414,0.61914 -3.07472,1.4007 -9.13131,3.53529 -10.04883,3.53907 -0.54074,0.003 -0.50416,-0.48799 0.0801,-1.07227 0.26419,-0.264 0.48047,-0.56195 0.48047,-0.66211 0,-0.17193 1.83669,-2.82087 2.88086,-4.15625 1.51305,-1.935 6.38339,-7.1296 8.3125,-8.86523 2.03013,-1.82646 2.24804,-2.13946 2.24804,-3.23243 0,-1.19089 -0.0186,-1.20898 -1.24219,-1.20898 z m -21.77734,1.59961 c -1.5335,0 -1.74254,0.26624 -4.41406,5.59961 -4.29377,8.57185 -5.73064,13.53917 -4.49024,15.52539 0.32436,0.51923 0.74697,0.63477 2.31446,0.63477 3.51016,0 7.52929,-2.81874 7.52929,-5.28125 0,-1.04085 -0.0717,-1.11719 -1.00585,-1.11719 -0.7273,0 -1.38792,0.35351 -2.39649,1.2832 -1.43989,1.32722 -3.49061,2.48986 -3.81641,2.16406 -0.26263,-0.26264 0.57945,-2.95445 1.79102,-5.72851 1.52576,-3.49349 4.77531,-9.96496 5.29492,-10.54492 0.24888,-0.27787 0.45117,-0.96137 0.45117,-1.51953 0,-0.96756 -0.058,-1.01563 -1.25781,-1.01563 z"
       style="fill:#ffff00;fill-opacity:1;stroke:#ffff00;stroke-width:1.13385832;stroke-miterlimit:4;stroke-dasharray:none;stroke-opacity:1"
       transform="matrix(0.26458333,0,0,0.26458333,57.130296,107.74949)"
       id="path880" />
  </g>
</svg>
