<?xml version="1.0" encoding="UTF-8" standalone="no"?>
<svg
   xmlns:dc="http://purl.org/dc/elements/1.1/"
   xmlns:cc="http://creativecommons.org/ns#"
   xmlns:rdf="http://www.w3.org/1999/02/22-rdf-syntax-ns#"
   xmlns:svg="http://www.w3.org/2000/svg"
   xmlns="http://www.w3.org/2000/svg"
   id="svg8"
   version="1.1"
   viewBox="0 0 90.553458 63.004405"
   height="63.004406mm"
   width="90.553459mm">
  <defs
     id="defs2" />
  <metadata
     id="metadata5">
    <rdf:RDF>
      <cc:Work
         rdf:about="">
        <dc:format>image/svg+xml</dc:format>
        <dc:type
           rdf:resource="http://purl.org/dc/dcmitype/StillImage" />
        <dc:title></dc:title>
      </cc:Work>
    </rdf:RDF>
  </metadata>
  <g
     transform="translate(-48.476817,-116.85017)"
     id="layer1">
    <path
       id="path882"
       d="m 65.249634,179.61945 c -0.22061,-0.28045 -0.23419,-0.9324 -0.0348,-1.66969 0.12525,-0.46312 0.14151,-1.25442 0.14816,-7.20889 0.009,-7.69288 0.019,-7.55348 -0.60662,-8.14617 -0.20716,-0.19626 -0.44728,-0.37926 -0.53361,-0.40666 -0.21044,-0.0668 -1.43164,0.6413 -1.76934,1.02592 -0.3183,0.36253 -0.70152,1.10865 -0.88245,1.71812 -0.07454,0.2511 -0.231619,0.6205 -0.349059,0.8209 -0.186204,0.31773 -0.764812,1.80785 -0.980132,2.52418 -0.06566,0.21845 -0.223379,1.38516 -0.375668,2.77901 -0.06308,0.57736 -0.252316,0.84886 -0.591647,0.84886 -0.277423,0 -0.550671,-0.27821 -0.549726,-0.55971 0.01032,-3.07546 -0.08526,-6.55455 -0.196485,-7.15183 -0.178173,-0.95678 -0.394638,-1.61651 -0.557765,-1.69992 -0.19714,-0.1008 -1.777249,0.6039 -2.020351,0.90104 -0.431082,0.5269 -1.367744,2.60763 -1.633744,3.62926 -0.1443,0.55422 -0.398173,1.44581 -0.564161,1.98133 -0.285402,0.92078 -0.304812,1.05987 -0.357321,2.56059 -0.04955,1.41625 -0.07419,1.61203 -0.229024,1.82034 -0.110976,0.14929 -0.267765,0.24283 -0.435083,0.25955 -0.496413,0.0496 -0.507858,-0.0215 -0.549541,-3.41281 -0.03451,-2.80778 -0.0547,-3.14476 -0.256176,-4.27567 -0.41546,-2.33202 -0.45164,-2.45533 -0.720431,-2.45533 -0.33232,0 -1.379426,0.90487 -1.733233,1.4978 -0.307105,0.51466 -0.564653,0.64066 -0.826038,0.40411 -0.264223,-0.23912 -0.215403,-0.66882 0.129345,-1.13846 0.534937,-0.72873 1.852354,-1.76422 2.426114,-1.90692 0.135762,-0.0338 0.318837,-0.006 0.465667,0.0703 0.33867,0.17633 0.780067,0.94782 0.885277,1.54732 0.04821,0.27472 0.189887,1.09003 0.314833,1.81182 0.124946,0.72178 0.265275,1.30566 0.311842,1.29751 0.04657,-0.008 0.170215,-0.31296 0.274774,-0.67734 0.243919,-0.85003 1.641876,-3.68311 1.928746,-3.90877 0.118424,-0.0931 0.509278,-0.29031 0.868565,-0.43814 0.359287,-0.14783 0.88804,-0.39849 1.175005,-0.55702 0.286967,-0.15853 0.580916,-0.28824 0.653222,-0.28824 0.0723,0 0.264253,0.11659 0.426552,0.25909 0.564357,0.49551 0.999667,2.03788 1.116417,3.95562 0.03198,0.52528 0.08851,0.97382 0.125624,0.99676 0.07338,0.0454 0.680088,-1.18506 0.920668,-1.86714 0.215147,-0.60997 0.802226,-1.75045 1.056824,-2.05303 0.23128,-0.27485 1.97052,-1.31959 2.34032,-1.40579 0.27666,-0.0645 0.68114,0.13792 1.24332,0.62217 0.55089,0.47452 0.73244,0.80763 0.9231,1.69365 0.141,0.65522 0.15468,1.20111 0.15281,6.096 -0.001,2.95698 -0.0353,5.95167 -0.0759,6.65486 -0.0515,0.89132 -0.0464,1.29547 0.0167,1.33448 0.0498,0.0308 0.22906,-0.0258 0.39837,-0.12567 0.25321,-0.1494 0.3445,-0.16492 0.5145,-0.0875 0.3331,0.15177 0.26618,0.47766 -0.264,1.28557 -0.81941,1.24866 -1.32367,1.55407 -1.72452,1.04447 z m 9.1986,-5.288 c -0.68871,-0.16217 -0.99217,-0.42625 -1.61263,-1.40337 -0.44449,-0.69999 -0.84989,-1.82098 -0.99226,-2.74372 -0.21234,-1.37628 0.15754,-6.04356 0.51288,-6.47172 0.16522,-0.19908 0.52219,-0.12327 0.67064,0.14243 0.13324,0.23847 0.13963,0.13822 -0.17707,2.77946 -0.0475,0.39582 -0.0705,1.42452 -0.0511,2.286 0.0333,1.48541 0.0485,1.60369 0.29312,2.28934 0.14187,0.39766 0.43565,1.00024 0.65285,1.33909 0.44881,0.70019 0.67779,0.83806 1.517,0.9134 0.46349,0.0416 0.57542,0.0192 0.98592,-0.19735 0.46459,-0.24509 0.76366,-0.56466 1.51762,-1.62169 0.20461,-0.28686 0.71132,-0.85491 1.12601,-1.26234 0.84372,-0.82893 1.43109,-1.69487 1.62234,-2.39178 0.0703,-0.25612 0.18708,-0.67522 0.25954,-0.93133 0.10351,-0.36587 0.13196,-0.93011 0.13274,-2.63271 9.7e-4,-2.08273 0.008,-2.17321 0.17613,-2.32553 0.15995,-0.14475 0.19479,-0.14746 0.40217,-0.0313 0.4024,0.22544 0.45516,0.58028 0.41452,2.78818 -0.0272,1.48002 -0.0704,2.09811 -0.16865,2.413 -0.0726,0.23284 -0.20631,0.68086 -0.2971,0.99561 -0.26485,0.91814 -0.87321,1.83738 -1.8867,2.85081 -0.49223,0.4922 -1.10998,1.20357 -1.37277,1.5808 -0.90191,1.29469 -1.59413,1.73063 -2.72759,1.71779 -0.37253,-0.004 -0.82145,-0.0416 -0.99759,-0.0831 z m 28.296796,-1.00899 c -0.46194,-0.0782 -1.15587,-0.41576 -1.39121,-0.67672 -0.14964,-0.16593 -0.16872,-0.30239 -0.16403,-1.17332 0.007,-1.37695 0.13798,-1.68289 1.2304,-2.88286 0.89824,-0.98666 1.52006,-1.49005 2.74253,-2.22022 0.81522,-0.48691 1.6779,-0.759 3.98043,-1.25539 0.60537,-0.13051 1.30761,-0.29897 1.56054,-0.37435 0.64798,-0.19313 1.19994,-0.17877 1.47604,0.0384 0.1227,0.0965 0.22309,0.2271 0.22309,0.29019 0,0.17379 -0.41736,0.46554 -0.66759,0.46667 -0.12178,6e-4 -0.43096,0.0584 -0.68708,0.12847 -0.25612,0.0701 -0.86572,0.2047 -1.35467,0.29909 -0.48895,0.0944 -1.1176,0.24476 -1.397,0.33414 -0.2794,0.0894 -0.79375,0.22429 -1.143,0.2998 -1.16303,0.25146 -2.81266,1.31418 -3.91356,2.5212 -0.82565,0.90523 -0.96708,1.14872 -1.09269,1.88123 -0.17264,1.00677 -0.0194,1.23245 0.94225,1.38764 0.68976,0.11132 2.37335,0.11029 2.87867,-0.002 0.20955,-0.0465 1.0668,-0.11767 1.905,-0.15824 1.29541,-0.0627 1.60655,-0.10483 2.07433,-0.28088 0.30269,-0.11391 0.81704,-0.23499 1.143,-0.26905 0.32597,-0.0341 0.92438,-0.17059 1.3298,-0.30338 0.87503,-0.2866 1.86541,-0.44091 2.14573,-0.33434 0.38793,0.1475 0.46975,0.6594 0.13409,0.83904 -0.0806,0.0431 -0.39236,0.10491 -0.69276,0.13726 -0.3004,0.0323 -0.88909,0.16661 -1.30819,0.29836 -0.4191,0.13175 -1.0668,0.27832 -1.43933,0.3257 -0.37254,0.0474 -0.88689,0.16898 -1.143,0.27022 -0.3844,0.15194 -0.73165,0.19585 -1.98967,0.25157 -0.8382,0.0371 -1.6764,0.10697 -1.86267,0.1552 -0.38695,0.10019 -2.93798,0.10477 -3.51945,0.006 z m -5.616846,-0.24475 c -0.0827,-0.0913 -0.14145,-0.28341 -0.13607,-0.4445 0.005,-0.15602 0.0362,-2.2133 0.0689,-4.57174 0.0562,-4.0517 0.0683,-4.29788 0.22074,-4.46617 0.21282,-0.23501 0.34014,-0.22464 0.55223,0.045 0.17218,0.21889 0.17544,0.30115 0.17341,4.3815 -0.001,2.55277 -0.0358,4.30504 -0.0896,4.53816 -0.14625,0.63474 -0.48362,0.85594 -0.78967,0.51776 z m -11.1188,-0.33715 c -0.35433,-0.0678 -0.61557,-0.29685 -0.61393,-0.53836 0.003,-0.41036 0.35754,-0.62172 0.82543,-0.49178 0.54196,0.15052 2.00657,0.10906 2.63547,-0.0746 0.30771,-0.0899 0.86427,-0.20794 1.2368,-0.2624 0.96914,-0.14169 1.22767,-0.2644 1.22767,-0.58273 0,-0.42492 -0.32481,-1.16312 -0.62947,-1.43061 -0.30499,-0.26779 -1.11682,-0.60093 -1.99387,-0.81821 -1.08107,-0.26782 -2.75749,-1.42333 -3.13308,-2.15955 -0.40471,-0.7933 -0.42084,-1.65428 -0.0395,-2.10751 0.29856,-0.35482 0.96662,-0.63822 2.11606,-0.89767 1.17744,-0.26576 2.80623,-0.37652 3.27276,-0.22255 0.52028,0.1717 0.77423,0.57403 0.63063,0.9991 -0.0983,0.29089 -0.34517,0.31461 -0.7578,0.0728 -0.4328,-0.25364 -0.77032,-0.2698 -1.87876,-0.09 -1.50598,0.24435 -2.24463,0.44866 -2.51868,0.69668 -0.18464,0.16709 -0.1929,0.62345 -0.018,0.99211 0.30695,0.64684 1.64141,1.52005 2.79064,1.82606 0.8294,0.22085 1.70112,0.56275 2.00461,0.78625 0.70633,0.52014 1.35126,2.1488 1.15335,2.91258 -0.12915,0.49839 -0.68803,0.75961 -2.1341,0.9975 -0.37686,0.062 -0.97018,0.19254 -1.31849,0.2901 -0.49206,0.13782 -0.85082,0.1749 -1.60867,0.16624 -0.53645,-0.006 -1.09856,-0.0347 -1.24914,-0.0635 z m 10.23685,-11.10736 c -0.82339,-0.41145 -1.37173,-1.23943 -1.25013,-1.88766 0.0654,-0.34881 0.5104,-0.78019 1.09834,-1.06481 0.3954,-0.19141 0.41834,-0.19301 0.88531,-0.0619 0.26367,0.074 0.66192,0.15073 0.885,0.17047 0.8449,0.0748 1.1683,0.75808 0.91564,1.93462 -0.18149,0.84513 -0.60197,1.16931 -1.51666,1.16931 -0.38559,0 -0.61399,-0.0584 -1.0175,-0.26 z m 41.760206,-1.78084 c -0.19373,-0.21401 -0.20844,-0.69801 -0.0551,-1.81149 0.0577,-0.4191 0.10507,-1.52892 0.1052,-2.46627 0,-1.66674 -0.005,-1.71522 -0.22591,-2.20133 -0.12439,-0.27339 -0.31761,-0.6364 -0.42937,-0.80669 -0.11177,-0.17029 -0.31653,-0.58806 -0.45502,-0.92837 -0.34337,-0.84376 -0.57453,-1.11823 -1.38878,-1.64898 -1.46756,-0.95661 -2.6508,-0.90409 -3.65948,0.16243 -0.26593,0.28118 -0.46401,0.58189 -0.51755,0.7857 -0.20382,0.77582 -0.36079,1.75452 -0.43996,2.74317 -0.0466,0.58209 -0.11908,1.26789 -0.16104,1.524 -0.042,0.25612 -0.0791,1.00012 -0.0825,1.65333 -0.007,1.34053 -0.0809,1.56401 -0.51703,1.56401 -0.4565,0 -0.52631,-0.24202 -0.48149,-1.66925 0.0216,-0.68846 0.0834,-1.63275 0.13725,-2.09842 0.0539,-0.46567 0.13699,-1.18957 0.18472,-1.60867 0.0954,-0.83769 0.25591,-1.69388 0.49999,-2.667 0.17279,-0.68893 0.30376,-1.54576 0.42399,-2.77383 0.0422,-0.43129 0.15136,-1.05994 0.24253,-1.397 0.1087,-0.4019 0.19581,-1.13739 0.25307,-2.13683 0.0537,-0.93748 0.15845,-1.84985 0.27213,-2.37067 0.15849,-0.72612 0.17542,-0.97323 0.11893,-1.73567 -0.10354,-1.39746 -0.0876,-1.61906 0.12935,-1.79471 0.23333,-0.18894 0.27618,-0.18932 0.49834,-0.004 0.12921,0.10753 0.20099,0.31073 0.2617,0.74084 0.12337,0.87408 0.10039,2.29333 -0.0466,2.87866 -0.0702,0.2794 -0.16472,1.0033 -0.21011,1.60867 -0.16175,2.15706 -0.23547,2.79948 -0.36832,3.20962 -0.074,0.2286 -0.13628,0.6096 -0.13831,0.84667 -0.002,0.23707 -0.0373,0.60249 -0.0783,0.81204 -0.041,0.20955 -0.0446,0.412 -0.008,0.44988 0.0367,0.0379 0.3071,-0.0288 0.60088,-0.14816 1.025,-0.4165 2.26468,-0.25396 3.3697,0.44182 0.97512,0.61397 1.49235,1.12738 1.7952,1.78193 0.14375,0.31068 0.36056,0.75537 0.4818,0.9882 0.12123,0.23283 0.37602,0.72813 0.56618,1.10067 l 0.34575,0.67733 -8.5e-4,2.032 c -8.5e-4,2.29542 -0.17107,3.99745 -0.42907,4.28253 -0.19118,0.21126 -0.39388,0.20591 -0.59449,-0.0157 z m -19.97329,-1.88681 c -1.62022,-0.40643 -2.39038,-1.05105 -2.71568,-2.273 -0.49673,-1.86596 0.46294,-4.02191 2.25002,-5.05477 2.34206,-1.35363 2.85202,-1.54746 3.16408,-1.20264 0.30423,0.33617 0.14316,0.51715 -0.98236,1.10376 -2.19013,1.14148 -2.71921,1.56535 -3.23863,2.59459 -0.22044,0.43682 -0.25662,0.61026 -0.28451,1.36356 -0.0289,0.78143 -0.0117,0.90726 0.18179,1.32997 0.26058,0.56916 0.65155,0.84424 1.62529,1.1435 0.5998,0.18433 0.87535,0.21249 2.40712,0.24603 1.90184,0.0416 2.71605,-0.0638 3.48631,-0.45159 0.68089,-0.34277 0.92224,-0.598 0.92224,-0.97528 0,-0.37415 0.20019,-0.63183 0.56128,-0.72246 0.27559,-0.0692 0.45961,0.0343 0.61134,0.34362 0.0987,0.20118 0.0943,0.28685 -0.0324,0.62719 -0.20016,0.53793 -0.96125,1.27463 -1.65455,1.60151 -0.93973,0.44307 -1.53978,0.52899 -3.65106,0.52274 -1.66698,-0.005 -1.97759,-0.028 -2.65029,-0.19673 z m -18.310276,-0.85996 c -0.10748,-0.0753 -0.25045,-0.33622 -0.33634,-0.61384 -0.21027,-0.6797 -0.2089,-4.3589 0.002,-5.43588 0.10722,-0.54746 0.31239,-2.55249 0.31406,-3.06917 9e-5,-0.0349 -0.12567,-0.0635 -0.27951,-0.0635 -0.20854,0 -0.35283,0.0754 -0.56695,0.29633 -0.57392,0.59214 -1.10546,0.26871 -0.81374,-0.49513 0.19351,-0.5067 0.38677,-0.65804 1.006,-0.78781 0.79675,-0.16697 1.115866,-0.14609 1.390526,0.091 0.23143,0.19978 0.23728,0.22613 0.22698,1.0231 -0.009,0.71876 0.006,0.81294 0.127,0.77601 1.19113,-0.36389 1.60795,-0.47692 1.76427,-0.4784 0.10305,-9.7e-4 0.3888,-0.0815 0.635,-0.17897 0.25512,-0.10099 0.81177,-0.21119 1.2943,-0.25624 0.95192,-0.0889 2.33867,-0.39859 2.93874,-0.65633 0.67972,-0.29197 0.93874,-0.30798 1.20988,-0.0748 0.2799,0.24076 0.25274,0.56276 -0.0612,0.72523 -0.58686,0.30374 -2.52475,0.79414 -3.74878,0.94867 -0.74106,0.0936 -1.14171,0.18192 -2.85632,0.6299 -0.45338,0.11846 -0.95463,0.21538 -1.11389,0.21538 -0.28575,0 -0.29031,0.006 -0.34569,0.4445 -0.0309,0.24448 -0.11065,0.74398 -0.17728,1.11002 -0.0831,0.45618 -0.12098,1.29509 -0.1206,2.667 5.1e-4,1.85485 0.0129,2.02009 0.16878,2.25548 0.2246,0.33913 0.21283,0.5992 -0.0385,0.85052 -0.2419,0.2419 -0.361876,0.25681 -0.618786,0.0769 z m 11.367846,-0.3768 c -0.166,-0.18343 -0.18602,-0.5268 -0.0557,-0.95575 0.0455,-0.1497 0.10309,-0.53887 0.12803,-0.86484 0.0249,-0.32597 0.14267,-0.87563 0.26162,-1.22147 0.129,-0.37509 0.28456,-1.16084 0.38553,-1.94734 0.0931,-0.72519 0.18918,-1.41377 0.21352,-1.53019 0.0243,-0.11642 0.0775,-0.50909 0.11821,-0.8726 0.0995,-0.88955 0.43092,-1.24203 0.79151,-0.8419 0.28796,0.31953 0.28822,0.31478 -0.19963,3.67766 -0.0925,0.63736 -0.2619,1.4346 -0.37654,1.77166 -0.11464,0.33706 -0.20795,0.78714 -0.20736,1.00018 0.002,0.54535 -0.25663,1.58473 -0.4434,1.78521 -0.19994,0.21461 -0.42121,0.21438 -0.61578,-6e-4 z m -18.962036,-1.49637 c -0.50787,-0.14426 -0.90621,-0.70199 -1.04792,-1.46722 -0.32577,-1.75916 -0.3693,-2.26965 -0.27226,-3.19269 0.0528,-0.5025 0.11264,-0.97079 0.13292,-1.04064 0.089,-0.30667 -0.35627,-0.50186 -1.15435,-0.50598 -0.46485,-0.002 -0.83692,-0.24856 -0.83692,-0.5537 0,-0.28933 0.29624,-0.46457 0.71232,-0.42138 0.19031,0.0198 0.51832,0.0544 0.72891,0.0769 0.21059,0.0225 0.43196,0.0106 0.49193,-0.0264 0.06,-0.0371 0.17781,-0.33042 0.26188,-0.65191 0.20773,-0.79439 0.72304,-1.84373 1.03384,-2.10525 0.2846,-0.23947 0.3504,-0.25375 0.58669,-0.12729 0.24658,0.13197 0.20367,0.5107 -0.12646,1.11594 -0.34565,0.6337 -0.66931,1.56414 -0.60363,1.7353 0.0388,0.10112 0.24073,0.11477 1.16888,0.079 0.61709,-0.0238 1.2806,-0.0685 1.47449,-0.0994 0.31654,-0.0505 0.36721,-0.0338 0.49657,0.16367 0.13074,0.19953 0.132,0.23826 0.0137,0.41887 -0.26256,0.40071 -0.67654,0.51543 -1.97852,0.5483 -0.96594,0.0244 -1.2099,0.055 -1.24887,0.15653 -0.0266,0.0694 -0.091,0.58978 -0.14299,1.15635 -0.095,1.03499 -0.0534,1.67356 0.19242,2.95172 0.17699,0.92038 0.65438,1.06952 1.66278,0.51948 0.65726,-0.35852 0.99145,-0.3518 1.08522,0.0218 0.0903,0.35979 -0.085,0.57947 -0.73519,0.92112 -0.50025,0.26288 -0.72073,0.32846 -1.17283,0.34887 -0.30622,0.0138 -0.63138,0.004 -0.72257,-0.022 z m -6.44894,-0.28123 c -0.18036,-0.083 -0.58324,-0.36403 -0.8953,-0.62456 -0.43096,-0.3598 -0.57887,-0.54021 -0.6152,-0.75039 -0.103,-0.59595 0.16275,-4.06209 0.42486,-5.54125 0.0675,-0.38089 0.12272,-0.87771 0.12272,-1.10404 0,-0.22633 0.0562,-0.62724 0.12486,-0.89091 0.11282,-0.43313 0.28677,-1.51497 0.42554,-2.64651 0.0285,-0.23283 0.12594,-0.70673 0.21642,-1.05311 0.10768,-0.41222 0.16451,-0.91024 0.16451,-1.44166 0,-0.59779 0.0348,-0.8615 0.1318,-1.00005 0.16973,-0.24233 0.498,-0.24233 0.66773,0 0.19731,0.28169 0.18045,1.91497 -0.0285,2.76105 -0.0882,0.35701 -0.22509,1.14441 -0.30427,1.74977 -0.0792,0.60537 -0.19755,1.28856 -0.26303,1.5182 -0.0655,0.22965 -0.11899,0.5916 -0.11889,0.80434 8e-5,0.21274 -0.054,0.71065 -0.12014,1.10646 -0.24252,1.45068 -0.48589,4.06763 -0.48794,5.24671 -4.2e-4,0.26354 0.60673,0.84929 0.88035,0.84929 0.10689,0 0.32049,-0.0362 0.47467,-0.0804 0.82027,-0.23525 1.02921,0.57622 0.25187,0.97819 -0.49544,0.25621 -0.70266,0.27962 -1.05206,0.11886 z m -5.69377,-0.37218 c -0.52478,-0.29092 -1.18519,-1.80286 -1.45196,-3.3241 -0.0968,-0.55186 -0.21252,-1.11959 -0.25722,-1.26162 -0.0447,-0.14204 -0.13744,-0.57775 -0.2061,-0.96825 -0.16021,-0.91124 -0.24394,-0.99348 -0.46901,-0.46071 -0.0969,0.22946 -0.23958,0.56595 -0.31697,0.74774 -0.0964,0.22635 -0.27491,0.41727 -0.56647,0.60569 -0.51543,0.33311 -0.92426,0.75805 -1.38001,1.43444 -0.58088,0.86208 -1.17647,1.46753 -1.5399,1.56539 -0.86537,0.23302 -2.27358,-0.57401 -3.09385,-1.77304 l -0.254,-0.37129 v -1.36153 c 0,-1.42961 0.0558,-1.73402 0.48935,-2.66776 0.20951,-0.45127 1.0068,-1.2505 1.96261,-1.96741 l 0.67396,-0.50551 1.82371,0.0269 1.82371,0.0269 0.5255,0.27453 c 0.28902,0.151 0.66718,0.39865 0.84034,0.55034 0.40629,0.3559 0.79316,0.96702 0.79316,1.25291 0,0.26461 -0.23469,0.50455 -0.4935,0.50455 -0.24274,0 -0.23807,0.11347 0.0645,1.56633 0.41522,1.99395 0.48672,2.34889 0.59691,2.96334 0.12706,0.7085 0.56599,1.82033 0.71864,1.82033 0.0598,0 0.15945,-0.0611 0.22145,-0.13582 0.28068,-0.3382 0.76917,-0.31103 0.86305,0.048 0.0628,0.24015 -0.31621,0.96108 -0.66734,1.26938 -0.32578,0.28604 -0.4079,0.30248 -0.70054,0.14025 z m -6.09045,-2.95164 c 0.18434,-0.19791 0.49167,-0.58844 0.68297,-0.86784 0.57124,-0.83433 0.81245,-1.10449 1.29427,-1.44964 0.49434,-0.35411 0.57124,-0.47889 1.02603,-1.66488 0.50185,-1.30872 0.53192,-1.3978 0.58614,-1.73691 0.0504,-0.315 0.0395,-0.33454 -0.27366,-0.48999 -0.28389,-0.14094 -0.51904,-0.16191 -1.81587,-0.16191 h -1.48974 l -0.43547,0.30485 c -0.77969,0.54581 -1.52602,1.30406 -1.71306,1.74042 -0.27894,0.65073 -0.41505,1.36747 -0.4164,2.19265 -10e-4,0.69809 0.0203,0.80052 0.23952,1.14625 0.39819,0.62788 1.37058,1.34657 1.82218,1.34676 0.0869,4e-5 0.30876,-0.16185 0.49309,-0.35976 z m -10.85337,2.60694 c -0.18922,-0.10439 -0.70486,-0.66704 -0.88193,-0.96232 -0.037,-0.0617 -0.19272,-0.46177 -0.34603,-0.889 -0.249291,-0.69471 -0.422455,-1.1351 -1.0852,-2.75986 -0.102991,-0.25249 -0.230528,-0.47349 -0.283418,-0.49112 -0.08563,-0.0285 -0.539067,0.70928 -0.989607,1.61028 -0.319003,0.63794 -0.981853,0.9513 -2.208185,1.04391 -1.019368,0.077 -1.295366,-0.027 -2.007193,-0.75613 -0.858879,-0.87977 -1.001917,-1.223 -1.002946,-2.40663 -6.78e-4,-0.76777 0.05696,-1.22406 0.299407,-2.37067 0.165128,-0.78095 0.356201,-1.86824 0.424605,-2.4162 0.138987,-1.11338 0.309902,-1.63837 0.559143,-1.71747 0.18882,-0.0599 0.459158,0.14222 0.542856,0.40593 0.06916,0.21791 -0.151967,1.75908 -0.519422,3.62017 -0.327633,1.6594 -0.398068,3.10417 -0.172591,3.54019 0.182734,0.35337 1.005023,1.08969 1.283476,1.14928 0.344656,0.0738 1.529484,-0.14734 1.721709,-0.3213 0.375339,-0.33968 1.379864,-2.34958 1.569588,-3.1405 0.08409,-0.35056 0.285829,-0.55034 0.555735,-0.55034 0.322071,0 0.475479,0.21193 0.626855,0.86596 0.13657,0.59007 1.048298,3.08087 1.335188,3.64768 0.0898,0.17745 0.23746,0.56272 0.32809,0.85615 0.16691,0.5404 0.43991,0.98021 0.60843,0.98021 0.1919,0 2.0199,-1.46252 2.25363,-1.80306 0.53253,-0.77587 0.95874,-1.76583 1.07834,-2.50467 0.0641,-0.39578 0.17385,-0.89338 0.24396,-1.10577 0.1867,-0.56559 0.36472,-1.69615 0.43326,-2.75145 0.0832,-1.28134 0.19294,-1.72509 0.47941,-1.93896 l 0.23284,-0.17381 0.23283,0.17522 c 0.27277,0.20529 0.27141,0.11553 0.0325,2.14384 -0.21482,1.82365 -0.31698,2.43814 -0.4664,2.80554 -0.0637,0.15664 -0.16263,0.60864 -0.21984,1.00446 -0.0861,0.59563 -0.19218,0.89477 -0.61554,1.73566 -0.68035,1.35133 -0.761,1.45997 -1.54879,2.08631 -1.98748,1.58015 -2.06705,1.62443 -2.49474,1.38847 z m 50.080326,-8.4097 c -0.28811,-0.10278 -0.43294,-0.22002 -0.59757,-0.48374 -0.0872,-0.1397 -0.2837,-0.42141 -0.43666,-0.62601 -0.25742,-0.34435 -0.2781,-0.41993 -0.2781,-1.01656 0,-1.18069 0.20384,-1.48979 1.48903,-2.25793 0.70299,-0.42017 0.8132,-0.45984 1.27764,-0.45984 0.68568,0 1.43704,0.36848 1.8475,0.90604 0.34657,0.45389 0.40942,0.72943 0.36905,1.61807 -0.0255,0.56153 -0.067,0.71851 -0.26618,1.00586 -0.30328,0.43764 -0.79971,0.7852 -1.53756,1.07648 -0.5968,0.2356 -1.5373,0.35529 -1.86715,0.23763 z M 72.122914,135.22899 c -0.42439,-0.30742 -0.70813,-0.67375 -0.98864,-1.2764 l -0.21647,-0.46506 -8.4e-4,-2.95777 c -7.7e-4,-2.80742 -0.01,-2.97598 -0.17432,-3.31615 -0.23091,-0.47699 -0.46743,-0.61513 -1.24807,-0.72891 -0.88184,-0.12853 -1.03175,-0.05 -1.63044,0.85407 -0.32311,0.48792 -0.5735,0.76736 -0.8024,0.89551 l -0.33273,0.18627 -0.11292,0.79782 c -0.0804,0.56813 -0.10327,1.48853 -0.0794,3.19685 l 0.0335,2.39903 -0.19772,0.12954 c -0.17766,0.11641 -0.21802,0.11625 -0.39793,-0.002 -0.12365,-0.081 -0.23698,-0.27716 -0.29634,-0.51289 -0.11421,-0.45357 -0.11951,-3.97298 -0.009,-5.8524 0.0411,-0.6985 0.11387,-1.92514 0.16163,-2.72587 0.0477,-0.80074 0.12465,-1.61989 0.17088,-1.82034 0.13425,-0.58203 0.10157,-4.31408 -0.0443,-5.06345 -0.3271,-1.68002 -0.32647,-1.67467 -0.22414,-1.89925 0.0651,-0.14291 0.16668,-0.21742 0.29636,-0.21742 0.44778,0 0.56493,0.26421 0.86347,1.94733 0.17297,0.97516 0.17426,4.42893 0.002,5.715 -0.14326,1.07043 -0.16897,2.49767 -0.045,2.49767 0.0456,0 0.15669,-0.14287 0.24683,-0.3175 0.19369,-0.37525 0.70383,-0.8788 1.08419,-1.07017 0.31797,-0.15998 1.03878,-0.17664 1.91415,-0.0442 0.55706,0.0843 0.64321,0.12551 1.01207,0.48466 0.71734,0.69842 0.73982,0.82581 0.73982,4.19346 v 2.9012 l 0.21068,0.41879 c 0.11587,0.23034 0.40162,0.62179 0.635,0.8699 0.44548,0.47362 0.51156,0.67722 0.29127,0.89751 -0.19915,0.19915 -0.47934,0.16169 -0.86153,-0.11516 z m -15.43072,-0.27024 c -0.299532,-0.11944 -0.579757,-0.40053 -0.791449,-0.79388 -0.176748,-0.32843 -0.183541,-0.45263 -0.224594,-4.10634 l -0.04233,-3.76766 h -1.705258 c -1.557969,0 -1.720683,-0.0139 -1.883834,-0.16129 -0.226278,-0.20438 -0.226862,-0.40377 -0.0018,-0.60747 0.156,-0.14117 0.363631,-0.16513 1.76518,-0.20362 1.16939,-0.0321 1.625268,-0.0743 1.728204,-0.15982 0.122016,-0.10141 0.13998,-0.34938 0.141069,-1.94734 0.0014,-2.04974 0.04357,-2.25446 0.464418,-2.25446 0.416897,0 0.463018,0.21257 0.464419,2.14049 0.0011,1.47938 0.0196,1.7242 0.133784,1.76801 0.161267,0.0619 2.418223,-0.36168 2.818606,-0.52897 0.350732,-0.14655 0.789658,-0.1552 0.926592,-0.0183 0.153474,0.15348 0.121994,0.46547 -0.0645,0.63922 -0.26096,0.24312 -0.870225,0.42362 -2.320152,0.68738 -0.812063,0.14772 -1.372933,0.29031 -1.418315,0.36058 -0.0416,0.0644 -0.06557,1.78945 -0.05375,3.86973 l 0.02132,3.7535 0.28206,0.25196 0.282059,0.25196 1.629805,-0.0261 1.629804,-0.0261 0.316019,-0.24125 c 0.17381,-0.13268 0.374632,-0.38033 0.446273,-0.55033 0.283316,-0.67229 0.328061,-0.7322 0.56764,-0.75993 0.14337,-0.0166 0.30529,0.0337 0.40815,0.12678 0.27412,0.24808 0.16849,0.76834 -0.27632,1.36088 -0.415867,0.55398 -0.506129,0.63727 -0.94295,0.87009 -0.286916,0.15292 -0.4776,0.16696 -2.201333,0.16206 -1.041847,-0.003 -1.982002,-0.0432 -2.09883,-0.0898 z m 42.17011,-1.22863 c -0.1635,-0.20785 -0.17548,-0.33258 -0.17548,-1.8263 0,-1.72382 -0.10709,-2.57886 -0.46467,-3.71017 -0.11077,-0.35048 -0.24416,-1.05533 -0.29642,-1.56634 -0.13328,-1.30324 -0.23718,-1.77582 -0.42852,-1.94898 -0.21263,-0.19243 -0.38559,-0.11513 -1.01866,0.45524 -0.58856,0.53028 -1.42619,1.96925 -1.67885,2.88411 -0.19769,0.71582 -0.36112,0.94019 -0.68488,0.94019 -0.5314,0 -0.84613,-0.79383 -0.84797,-2.13874 -10e-4,-1.1347 -0.0764,-1.32132 -0.38187,-0.9516 -0.2423,0.29329 -1.06452,1.87897 -1.22034,2.35344 -0.0581,0.17679 -0.25541,0.49458 -0.43856,0.7062 -0.4199,0.48515 -0.57937,0.79985 -0.92786,1.83106 -0.29327,0.86779 -0.485,1.16297 -0.7554,1.16297 -0.2244,0 -0.50743,-0.32552 -0.51077,-0.58746 -0.002,-0.11928 -0.001,-1.13127 4.2e-4,-2.24887 0.004,-2.36923 -0.0774,-3.29239 -0.30997,-3.52493 -0.2207,-0.2207 -1.34088,-0.42071 -2.26331,-0.40413 -0.64215,0.0115 -0.77212,-0.009 -0.86783,-0.14036 -0.16185,-0.22135 -0.14021,-0.35563 0.0952,-0.5911 0.19276,-0.19275 0.26878,-0.20782 1.04898,-0.20782 0.89655,0 2.09471,0.18769 2.48431,0.38916 0.5064,0.26187 0.70587,0.99281 0.80066,2.93401 0.029,0.59373 0.0818,1.0795 0.11737,1.0795 0.13286,0 0.57608,-0.58977 0.67853,-0.9029 0.0584,-0.17862 0.33508,-0.74387 0.61476,-1.2561 0.27968,-0.51223 0.65394,-1.21708 0.8317,-1.56633 0.52386,-1.02925 1.08658,-1.30389 1.54801,-0.75551 0.12056,0.14328 0.22172,0.3052 0.22481,0.35984 0.0358,0.63345 0.22512,1.84385 0.29073,1.85847 0.0466,0.0104 0.29421,-0.32969 0.55032,-0.7557 0.33526,-0.55765 0.64004,-0.93065 1.08832,-1.33195 0.64735,-0.57951 0.97294,-0.72852 1.59369,-0.72935 0.3038,-4.2e-4 0.38933,0.0428 0.60659,0.30637 0.30746,0.37301 0.58062,1.22248 0.65003,2.02149 0.0948,1.09121 0.20486,1.70955 0.37494,2.10633 0.0928,0.21658 0.20724,0.70042 0.25424,1.07521 0.047,0.37479 0.11165,0.72384 0.14368,0.77567 0.032,0.0518 0.0863,0.93526 0.12057,1.96318 0.0544,1.63171 0.0456,1.88776 -0.0696,2.01711 -0.19896,0.22336 -0.57049,0.18753 -0.77693,-0.0749 z m -22.40702,-0.88092 c -0.7329,-0.2324 -1.03901,-0.47218 -1.34007,-1.0497 -0.25671,-0.49244 -0.26206,-0.52699 -0.26206,-1.69333 v -1.19064 l 0.4037,-0.76953 c 0.78612,-1.49852 2.27001,-2.73739 3.28463,-2.74227 0.31634,-0.002 0.42857,0.0422 0.61953,0.24155 0.15443,0.16119 0.4746,0.32194 0.94779,0.47587 0.65119,0.21183 2.105,0.99953 2.54242,1.37752 0.6678,0.57708 0.43113,1.3516 -0.89867,2.94086 -0.42861,0.51224 -0.9278,1.14864 -1.10932,1.41422 -0.63861,0.93439 -1.18296,1.17055 -2.68154,1.16336 -0.73438,-0.004 -1.12545,-0.0471 -1.50641,-0.16791 z m 2.84317,-0.98702 c 0.16282,-0.1008 0.3688,-0.30688 0.45774,-0.45795 0.0889,-0.15106 0.52911,-0.71567 0.97817,-1.25468 1.06039,-1.2728 1.18846,-1.46342 1.18846,-1.76893 0,-0.22891 -0.0709,-0.29719 -0.6985,-0.67255 -0.9949,-0.59504 -1.44477,-0.75255 -1.79142,-0.6272 -0.15058,0.0545 -0.33184,0.099 -0.40281,0.099 -0.17741,0 -0.38792,-0.25298 -0.42272,-0.508 -0.0195,-0.14294 -0.09,-0.22036 -0.21716,-0.23843 -0.43477,-0.0618 -1.78513,1.20809 -2.26328,2.12841 -0.29368,0.56527 -0.30011,0.59885 -0.2998,1.56634 2.6e-4,0.8312 0.0266,1.03185 0.16559,1.25973 0.31117,0.51035 0.92772,0.70308 2.16273,0.67607 0.69998,-0.0153 0.89834,-0.0503 1.143,-0.20181 z m 23.579366,-0.51985 c -0.49666,-0.30288 -0.77699,-0.7186 -0.8788,-1.30322 -0.20968,-1.2041 -0.0583,-2.56498 0.35371,-3.17973 0.21826,-0.32565 1.24367,-1.14172 1.86765,-1.48635 0.93055,-0.51395 1.72088,-0.88927 2.06998,-0.98301 0.2005,-0.0538 0.4291,-0.17871 0.508,-0.27749 0.63086,-0.78985 1.02637,-0.77724 1.41692,0.0452 0.11488,0.24192 0.30611,0.57249 0.42496,0.7346 0.14316,0.19527 0.19789,0.35242 0.16216,0.46566 -0.0297,0.094 -0.0727,0.24808 -0.0957,0.34238 -0.0715,0.29396 0.94828,2.36446 1.60449,3.25755 0.7077,0.96315 1.14793,1.44027 1.32559,1.43669 0.0721,-0.001 0.28339,-0.0965 0.46965,-0.21124 0.39414,-0.24275 0.57167,-0.2607 0.75596,-0.0764 0.19986,0.19987 0.16075,0.48656 -0.0998,0.73148 -0.6582,0.61875 -1.26359,0.7343 -1.82149,0.34767 -0.18027,-0.12492 -0.70161,-0.725 -1.15855,-1.3335 -0.80698,-1.07465 -1.13645,-1.64425 -1.86088,-3.21713 -0.20575,-0.44673 -0.37864,-0.72387 -0.42254,-0.67733 -0.13781,0.14609 -0.34571,1.81409 -0.34571,2.7737 0,1.51647 -0.26781,2.29602 -0.89271,2.59853 -0.30191,0.14615 -0.5237,0.1675 -1.73752,0.16722 -1.19886,-2.5e-4 -1.42659,-0.0217 -1.64543,-0.15522 z m 2.91435,-0.92396 c 0.27564,-0.2251 0.4278,-0.95275 0.42932,-2.05317 7.6e-4,-0.53552 0.0601,-1.33562 0.13182,-1.778 0.15499,-0.95537 0.11884,-1.22071 -0.15515,-1.13894 -0.67335,0.20096 -2.63452,1.46735 -3.00833,1.94257 -0.3538,0.44979 -0.43943,1.79939 -0.16678,2.62857 0.1559,0.4741 0.35686,0.54442 1.55989,0.54589 0.85452,0.001 1.05837,-0.0237 1.20923,-0.14692 z m 12.0883,0.83369 c -1.13172,-0.17017 -1.33016,-0.28021 -1.19568,-0.66303 0.1335,-0.38 0.54512,-0.46711 1.4501,-0.30687 0.55599,0.0985 1.01336,0.11788 1.80326,0.0766 1.28263,-0.067 1.35467,-0.0854 1.35467,-0.34535 0,-0.47918 -1.17649,-1.34661 -2.16997,-1.59993 -0.28542,-0.0728 -0.76167,-0.24191 -1.05833,-0.37585 -0.29665,-0.13393 -0.84073,-0.34971 -1.20906,-0.47951 -1.13379,-0.39954 -1.625,-1.08582 -1.37404,-1.9197 0.15257,-0.50699 0.81211,-1.51539 1.16703,-1.78434 0.45617,-0.34568 1.11909,-0.42766 3.01358,-0.37266 1.90293,0.0553 2.09825,0.0865 2.28069,0.36494 0.11879,0.18129 0.11884,0.22025 8.5e-4,0.40075 -0.17382,0.26529 -0.53888,0.32691 -1.26725,0.2139 -0.72886,-0.11309 -2.87674,-0.0552 -3.24919,0.0875 -0.35119,0.13462 -0.96003,1.02484 -0.96003,1.40372 0,0.37017 0.17055,0.49766 1.14851,0.85849 0.46264,0.1707 0.91782,0.36012 1.01153,0.42093 0.0937,0.0608 0.43661,0.17142 0.762,0.24579 0.73787,0.16863 2.0298,0.91316 2.40367,1.38521 0.29066,0.367 0.68352,1.16001 0.68479,1.38232 0.003,0.56713 -0.53013,0.89492 -1.6407,1.00828 -1.4621,0.14924 -1.95662,0.14903 -2.95615,-0.001 z"
       style="fill:#ffff00;stroke-width:0.08466667;fill-opacity:1" />
  </g>
</svg>
